<?xml version="1.0" encoding="UTF-8"?>
<!DOCTYPE svg PUBLIC "-//W3C//DTD SVG 1.1//EN" "http://www.w3.org/Graphics/SVG/1.1/DTD/svg11.dtd">
<svg xmlns="http://www.w3.org/2000/svg" version="1.1" width="256px" height="256px" style="shape-rendering:geometricPrecision; text-rendering:geometricPrecision; image-rendering:optimizeQuality; fill-rule:evenodd; clip-rule:evenodd" xmlns:xlink="http://www.w3.org/1999/xlink">
<g><path style="opacity:0.992" fill="#df9e00" d="M 103.5,41.5 C 103.611,42.1174 103.944,42.6174 104.5,43C 123.164,43.4999 141.83,43.6666 160.5,43.5C 189.835,43.3334 219.169,43.5 248.5,44C 251.358,45.6941 253.691,47.8607 255.5,50.5C 255.5,52.1667 255.5,53.8333 255.5,55.5C 254.833,54.8333 254.167,54.1667 253.5,53.5C 253.489,51.9826 252.823,50.8159 251.5,50C 248.392,48.2415 245.059,47.4081 241.5,47.5C 228.167,47.5 214.833,47.5 201.5,47.5C 176.833,47.5 152.167,47.5 127.5,47.5C 119.493,47.3336 111.493,47.5003 103.5,48C 102.016,48.6622 100.683,49.4955 99.5,50.5C 71.6697,49.3363 43.6697,49.1697 15.5,50C 9.57295,50.3094 4.23961,52.1428 -0.5,55.5C -0.5,45.8333 -0.5,36.1667 -0.5,26.5C 1.30904,23.8607 3.64238,21.6941 6.5,20C 31.1667,19.3333 55.8333,19.3333 80.5,20C 83.4456,20.8061 86.1123,22.1395 88.5,24C 93.7392,29.7308 98.7392,35.5641 103.5,41.5 Z"/></g>
<g><path style="opacity:0.004" fill="#000000" d="M 103.5,41.5 C 120.503,41.3334 137.503,41.5001 154.5,42C 156.708,42.1909 158.708,42.6909 160.5,43.5C 141.83,43.6666 123.164,43.4999 104.5,43C 103.944,42.6174 103.611,42.1174 103.5,41.5 Z"/></g>
<g><path style="opacity:1" fill="#fedb77" d="M 127.5,47.5 C 127.063,49.0744 126.063,50.2411 124.5,51C 117.833,51.3333 111.167,51.6667 104.5,52C 99.1615,57.3285 92.8282,60.9952 85.5,63C 75.172,63.4998 64.8387,63.6665 54.5,63.5C 55.5,62.1667 56.5,60.8333 57.5,59.5C 68.3211,60.142 78.9878,59.3086 89.5,57C 93.0323,55.0718 96.3656,52.9052 99.5,50.5C 100.683,49.4955 102.016,48.6622 103.5,48C 111.493,47.5003 119.493,47.3336 127.5,47.5 Z"/></g>
<g><path style="opacity:1" fill="#d29500" d="M 99.5,50.5 C 96.3656,52.9052 93.0323,55.0718 89.5,57C 78.9878,59.3086 68.3211,60.142 57.5,59.5C 40.83,59.3334 24.1633,59.5001 7.5,60C 3.64987,61.3532 0.983199,63.8532 -0.5,67.5C -0.5,63.5 -0.5,59.5 -0.5,55.5C 4.23961,52.1428 9.57295,50.3094 15.5,50C 43.6697,49.1697 71.6697,49.3363 99.5,50.5 Z"/></g>
<g><path style="opacity:1" fill="#ffd357" d="M 127.5,47.5 C 152.167,47.5 176.833,47.5 201.5,47.5C 201.5,48.8333 201.5,50.1667 201.5,51.5C 186.496,51.3334 171.496,51.5001 156.5,52C 104.139,82.1784 51.8059,112.345 -0.5,142.5C -0.5,118.833 -0.5,95.1667 -0.5,71.5C 1.64111,68.5282 4.30777,66.0282 7.5,64C 23.1631,63.5001 38.8298,63.3334 54.5,63.5C 64.8387,63.6665 75.172,63.4998 85.5,63C 92.8282,60.9952 99.1615,57.3285 104.5,52C 111.167,51.6667 117.833,51.3333 124.5,51C 126.063,50.2411 127.063,49.0744 127.5,47.5 Z"/></g>
<g><path style="opacity:1" fill="#ffd04d" d="M 201.5,47.5 C 214.833,47.5 228.167,47.5 241.5,47.5C 239.9,48.6444 238.233,49.8111 236.5,51C 226.833,51.3333 217.167,51.6667 207.5,52C 138.279,92.0609 68.9452,131.894 -0.5,171.5C -0.5,161.833 -0.5,152.167 -0.5,142.5C 51.8059,112.345 104.139,82.1784 156.5,52C 171.496,51.5001 186.496,51.3334 201.5,51.5C 201.5,50.1667 201.5,48.8333 201.5,47.5 Z"/></g>
<g><path style="opacity:1" fill="#fece47" d="M 241.5,47.5 C 245.059,47.4081 248.392,48.2415 251.5,50C 252.823,50.8159 253.489,51.9826 253.5,53.5C 251.623,54.6246 249.79,54.2912 248,52.5C 165.26,100.611 82.427,148.277 -0.5,195.5C -0.5,187.5 -0.5,179.5 -0.5,171.5C 68.9452,131.894 138.279,92.0609 207.5,52C 217.167,51.6667 226.833,51.3333 236.5,51C 238.233,49.8111 239.9,48.6444 241.5,47.5 Z"/></g>
<g><path style="opacity:1" fill="#fecb3f" d="M 253.5,53.5 C 254.167,54.1667 254.833,54.8333 255.5,55.5C 255.5,67.8333 255.5,80.1667 255.5,92.5C 217.561,113.805 179.894,135.638 142.5,158C 137.428,159.06 132.428,159.893 127.5,160.5C 108.474,160.178 89.4745,160.678 70.5,162C 50.3333,166.167 38.1667,178.333 34,198.5C 34.8558,212.713 35.6891,227.713 36.5,243.5C 26.4944,243.666 16.4944,243.5 6.5,243C 3.64238,241.306 1.30904,239.139 -0.5,236.5C -0.5,222.833 -0.5,209.167 -0.5,195.5C 82.427,148.277 165.26,100.611 248,52.5C 249.79,54.2912 251.623,54.6246 253.5,53.5 Z"/></g>
<g><path style="opacity:1" fill="#fee18a" d="M 57.5,59.5 C 56.5,60.8333 55.5,62.1667 54.5,63.5C 38.8298,63.3334 23.1631,63.5001 7.5,64C 4.30777,66.0282 1.64111,68.5282 -0.5,71.5C -0.5,70.1667 -0.5,68.8333 -0.5,67.5C 0.983199,63.8532 3.64987,61.3532 7.5,60C 24.1633,59.5001 40.83,59.3334 57.5,59.5 Z"/></g>
<g><path style="opacity:1" fill="#fbc42f" d="M 255.5,92.5 C 255.5,108.833 255.5,125.167 255.5,141.5C 240.527,149.988 225.527,158.488 210.5,167C 209.549,167.718 209.383,168.551 210,169.5C 212.333,171.167 214.333,173.167 216,175.5C 217.635,174.151 219.135,174.318 220.5,176C 218.833,177.167 217.167,178.333 215.5,179.5C 214.787,177.565 213.787,177.232 212.5,178.5C 211.188,179.145 210.188,180.145 209.5,181.5C 212.775,185.7 214.609,190.366 215,195.5C 214.374,193.009 213.541,193.009 212.5,195.5C 211.692,193.577 211.192,191.577 211,189.5C 210.184,188.177 209.017,187.511 207.5,187.5C 205.883,184.216 203.55,181.549 200.5,179.5C 200.167,178.833 199.833,178.167 199.5,177.5C 199.804,176.85 200.137,176.183 200.5,175.5C 197.026,173.959 194.026,171.792 191.5,169C 189.5,168.333 187.5,167.667 185.5,167C 175.519,166.126 165.519,165.626 155.5,165.5C 139.837,166.323 124.17,166.489 108.5,166C 116.242,164.434 123.909,162.768 131.5,161C 130.207,160.51 128.873,160.343 127.5,160.5C 132.428,159.893 137.428,159.06 142.5,158C 179.894,135.638 217.561,113.805 255.5,92.5 Z"/></g>
<g><path style="opacity:1" fill="#f1c038" d="M 127.5,160.5 C 128.873,160.343 130.207,160.51 131.5,161C 123.909,162.768 116.242,164.434 108.5,166C 124.17,166.489 139.837,166.323 155.5,165.5C 165.519,165.626 175.519,166.126 185.5,167C 187.5,167.667 189.5,168.333 191.5,169C 194.026,171.792 197.026,173.959 200.5,175.5C 200.137,176.183 199.804,176.85 199.5,177.5C 196.86,176.18 194.193,174.847 191.5,173.5C 189.333,171.489 186.666,170.322 183.5,170C 144.833,169.333 106.167,169.333 67.5,170C 63.8859,170.945 60.2192,171.612 56.5,172C 49.7938,175.674 45.9604,181.174 45,188.5C 42.0161,191.085 40.3494,194.418 40,198.5C 39.5,205 39,211.5 38.5,218C 40.0371,226.435 40.7038,234.935 40.5,243.5C 39.1667,243.5 37.8333,243.5 36.5,243.5C 35.6891,227.713 34.8558,212.713 34,198.5C 38.1667,178.333 50.3333,166.167 70.5,162C 89.4745,160.678 108.474,160.178 127.5,160.5 Z"/></g>
<g><path style="opacity:1" fill="#148dd9" d="M 121.5,171.5 C 96.0216,187.291 70.0216,202.291 43.5,216.5C 39.9461,199.646 44.9461,186.146 58.5,176C 61.3821,174.392 64.3821,173.059 67.5,172C 85.4969,171.5 103.497,171.333 121.5,171.5 Z"/></g>
<g><path style="opacity:1" fill="#0d81cf" d="M 121.5,171.5 C 143.34,171.169 165.006,171.503 186.5,172.5C 184.801,172.34 183.134,172.506 181.5,173C 164.605,182.608 147.939,192.441 131.5,202.5C 113.992,202.17 96.6586,202.503 79.5,203.5C 75.1708,204.982 74.5041,207.482 77.5,211C 89.8288,211.5 102.162,211.667 114.5,211.5C 96.5,222.167 78.5,232.833 60.5,243.5C 54.8333,243.5 49.1667,243.5 43.5,243.5C 43.5,234.5 43.5,225.5 43.5,216.5C 70.0216,202.291 96.0216,187.291 121.5,171.5 Z"/></g>
<g><path style="opacity:1" fill="#0b79c8" d="M 186.5,172.5 C 188.216,172.629 189.883,172.962 191.5,173.5C 194.193,174.847 196.86,176.18 199.5,177.5C 199.833,178.167 200.167,178.833 200.5,179.5C 186.61,186.448 172.943,193.948 159.5,202C 150.173,202.5 140.839,202.666 131.5,202.5C 147.939,192.441 164.605,182.608 181.5,173C 183.134,172.506 184.801,172.34 186.5,172.5 Z"/></g>
<g><path style="opacity:1" fill="#dfb235" d="M 191.5,173.5 C 189.883,172.962 188.216,172.629 186.5,172.5C 165.006,171.503 143.34,171.169 121.5,171.5C 103.497,171.333 85.4969,171.5 67.5,172C 64.3821,173.059 61.3821,174.392 58.5,176C 44.9461,186.146 39.9461,199.646 43.5,216.5C 43.5,225.5 43.5,234.5 43.5,243.5C 42.5,243.5 41.5,243.5 40.5,243.5C 40.7038,234.935 40.0371,226.435 38.5,218C 39,211.5 39.5,205 40,198.5C 40.3494,194.418 42.0161,191.085 45,188.5C 45.9604,181.174 49.7938,175.674 56.5,172C 60.2192,171.612 63.8859,170.945 67.5,170C 106.167,169.333 144.833,169.333 183.5,170C 186.666,170.322 189.333,171.489 191.5,173.5 Z"/></g>
<g><path style="opacity:1" fill="#076fbe" d="M 200.5,179.5 C 203.55,181.549 205.883,184.216 207.5,187.5C 210.555,192.723 211.889,198.389 211.5,204.5C 188.967,217.263 166.634,230.263 144.5,243.5C 135.167,243.5 125.833,243.5 116.5,243.5C 134.5,232.833 152.5,222.167 170.5,211.5C 173.685,211.98 176.519,211.314 179,209.5C 179.825,207.299 179.325,205.466 177.5,204C 144.835,203.5 112.168,203.333 79.5,203.5C 96.6586,202.503 113.992,202.17 131.5,202.5C 140.839,202.666 150.173,202.5 159.5,202C 172.943,193.948 186.61,186.448 200.5,179.5 Z"/></g>
<g><path style="opacity:1" fill="#f8bb16" d="M 255.5,141.5 C 255.5,162.833 255.5,184.167 255.5,205.5C 245.03,211.236 234.697,217.236 224.5,223.5C 223.096,215.022 221.763,206.522 220.5,198C 220.396,195.855 221.063,194.021 222.5,192.5C 219.482,187.502 216.149,182.835 212.5,178.5C 213.787,177.232 214.787,177.565 215.5,179.5C 217.167,178.333 218.833,177.167 220.5,176C 219.135,174.318 217.635,174.151 216,175.5C 214.333,173.167 212.333,171.167 210,169.5C 209.383,168.551 209.549,167.718 210.5,167C 225.527,158.488 240.527,149.988 255.5,141.5 Z"/></g>
<g><path style="opacity:1" fill="#104a8b" d="M 79.5,203.5 C 112.168,203.333 144.835,203.5 177.5,204C 179.325,205.466 179.825,207.299 179,209.5C 176.519,211.314 173.685,211.98 170.5,211.5C 151.833,211.5 133.167,211.5 114.5,211.5C 102.162,211.667 89.8288,211.5 77.5,211C 74.5041,207.482 75.1708,204.982 79.5,203.5 Z"/></g>
<g><path style="opacity:1" fill="#0166b7" d="M 211.5,204.5 C 211.5,217.5 211.5,230.5 211.5,243.5C 189.167,243.5 166.833,243.5 144.5,243.5C 166.634,230.263 188.967,217.263 211.5,204.5 Z"/></g>
<g><path style="opacity:1" fill="#f2b40a" d="M 212.5,178.5 C 216.149,182.835 219.482,187.502 222.5,192.5C 221.063,194.021 220.396,195.855 220.5,198C 221.763,206.522 223.096,215.022 224.5,223.5C 234.697,217.236 245.03,211.236 255.5,205.5C 255.5,215.833 255.5,226.167 255.5,236.5C 253.691,239.139 251.358,241.306 248.5,243C 236.171,243.5 223.838,243.667 211.5,243.5C 211.5,230.5 211.5,217.5 211.5,204.5C 211.889,198.389 210.555,192.723 207.5,187.5C 209.017,187.511 210.184,188.177 211,189.5C 211.192,191.577 211.692,193.577 212.5,195.5C 213.541,193.009 214.374,193.009 215,195.5C 214.609,190.366 212.775,185.7 209.5,181.5C 210.188,180.145 211.188,179.145 212.5,178.5 Z"/></g>
<g><path style="opacity:1" fill="#0875c5" d="M 114.5,211.5 C 133.167,211.5 151.833,211.5 170.5,211.5C 152.5,222.167 134.5,232.833 116.5,243.5C 97.8333,243.5 79.1667,243.5 60.5,243.5C 78.5,232.833 96.5,222.167 114.5,211.5 Z"/></g>
</svg>
