<?xml version="1.0" encoding="UTF-8"?>
<!DOCTYPE svg PUBLIC "-//W3C//DTD SVG 1.1//EN" "http://www.w3.org/Graphics/SVG/1.1/DTD/svg11.dtd">
<svg xmlns="http://www.w3.org/2000/svg" version="1.1" width="374px" height="357px" style="shape-rendering:geometricPrecision; text-rendering:geometricPrecision; image-rendering:optimizeQuality; fill-rule:evenodd; clip-rule:evenodd" xmlns:xlink="http://www.w3.org/1999/xlink">
<g><path style="opacity:1" fill="#d1d1d1" d="M 219.5,22.5 C 219.821,24.0481 220.821,24.7148 222.5,24.5C 236.933,32.5927 249.599,42.926 260.5,55.5C 260.427,57.0269 261.094,58.0269 262.5,58.5C 263.5,58.8333 264.167,59.5 264.5,60.5C 264.427,62.0269 265.094,63.0269 266.5,63.5C 269.605,66.2749 271.938,69.6082 273.5,73.5C 273.427,75.0269 274.094,76.0269 275.5,76.5C 294.493,107.969 300.993,141.969 295,178.5C 291.616,197.818 284.783,215.818 274.5,232.5C 304.521,262.854 334.521,293.188 364.5,323.5C 364.427,325.027 365.094,326.027 366.5,326.5C 370.067,334.789 368.734,342.289 362.5,349C 360.593,350.122 358.593,350.955 356.5,351.5C 351.797,351.563 347.13,351.229 342.5,350.5C 311.563,321.064 281.063,291.064 251,260.5C 218.84,290.446 180.673,303.946 136.5,301C 125.224,300.045 114.224,297.878 103.5,294.5C 102.365,292.787 100.698,292.12 98.5,292.5C 88.7898,289.477 79.7898,285.144 71.5,279.5C 71.0269,278.094 70.0269,277.427 68.5,277.5C 68.0269,276.094 67.0269,275.427 65.5,275.5C 62.4669,273.984 59.8003,271.984 57.5,269.5C 56.7377,267.738 55.4044,266.738 53.5,266.5C 52.5,266.167 51.8333,265.5 51.5,264.5C 50.7377,262.738 49.4044,261.738 47.5,261.5C 36.5856,251.663 27.5856,240.329 20.5,227.5C 20.7148,225.821 20.0481,224.821 18.5,224.5C 0.840657,191.233 -3.82601,156.233 4.5,119.5C 5.92381,117.485 6.59047,115.152 6.5,112.5C 6.36596,110.708 6.69929,109.042 7.5,107.5C 9.21321,106.365 9.87988,104.698 9.5,102.5C 13.8532,88.7855 20.5198,76.4522 29.5,65.5C 30.9063,65.0269 31.573,64.0269 31.5,62.5C 31.8333,61.5 32.5,60.8333 33.5,60.5C 34.9063,60.0269 35.573,59.0269 35.5,57.5C 36.5,55.8333 37.8333,54.5 39.5,53.5C 43.1667,50.5 46.5,47.1667 49.5,43.5C 49.8333,42.5 50.5,41.8333 51.5,41.5C 53.7488,40.9202 55.4154,39.5869 56.5,37.5C 60.4538,33.1879 65.1205,29.8545 70.5,27.5C 72.0269,27.573 73.0269,26.9063 73.5,25.5C 74.5137,24.3263 75.847,23.6596 77.5,23.5C 79.0269,23.573 80.0269,22.9063 80.5,21.5C 87.3209,17.4286 94.6542,14.4286 102.5,12.5C 105.152,12.5905 107.485,11.9238 109.5,10.5C 147.624,0.113285 184.29,4.11328 219.5,22.5 Z"/></g>
<g><path style="opacity:0.957" fill="#828282" d="M 109.5,10.5 C 107.485,11.9238 105.152,12.5905 102.5,12.5C 104.515,11.0762 106.848,10.4095 109.5,10.5 Z"/></g>
<g><path style="opacity:0.8" fill="#636363" d="M 80.5,21.5 C 80.0269,22.9063 79.0269,23.573 77.5,23.5C 77.9731,22.0937 78.9731,21.427 80.5,21.5 Z"/></g>
<g><path style="opacity:0.945" fill="#636363" d="M 219.5,22.5 C 220.71,22.9321 221.71,23.5987 222.5,24.5C 220.821,24.7148 219.821,24.0481 219.5,22.5 Z"/></g>
<g><path style="opacity:0.792" fill="#646464" d="M 73.5,25.5 C 73.0269,26.9063 72.0269,27.573 70.5,27.5C 70.9731,26.0937 71.9731,25.427 73.5,25.5 Z"/></g>
<g><path style="opacity:0.922" fill="#797979" d="M 56.5,37.5 C 55.4154,39.5869 53.7488,40.9202 51.5,41.5C 52.5846,39.4131 54.2512,38.0798 56.5,37.5 Z"/></g>
<g><path style="opacity:0.502" fill="#010112" d="M 134.5,40.5 C 186.043,37.5131 224.543,58.1798 250,102.5C 268.781,144.845 264.781,184.845 238,222.5C 204.945,260.626 163.779,273.459 114.5,261C 70.1002,244.688 44.2668,213.188 37,166.5C 33.278,118.111 51.778,80.9444 92.5,55C 105.757,47.638 119.757,42.8046 134.5,40.5 Z"/></g>
<g><path style="opacity:0.6" fill="#555555" d="M 49.5,43.5 C 46.5,47.1667 43.1667,50.5 39.5,53.5C 41.8333,49.1667 45.1667,45.8333 49.5,43.5 Z"/></g>
<g><path style="opacity:0.655" fill="#4d4d4d" d="M 260.5,55.5 C 261.906,55.9731 262.573,56.9731 262.5,58.5C 261.094,58.0269 260.427,57.0269 260.5,55.5 Z"/></g>
<g><path style="opacity:0.773" fill="#5d5d5d" d="M 35.5,57.5 C 35.573,59.0269 34.9063,60.0269 33.5,60.5C 33.427,58.9731 34.0937,57.9731 35.5,57.5 Z"/></g>
<g><path style="opacity:0.753" fill="#595959" d="M 264.5,60.5 C 265.906,60.9731 266.573,61.9731 266.5,63.5C 265.094,63.0269 264.427,62.0269 264.5,60.5 Z"/></g>
<g><path style="opacity:0.498" fill="#535353" d="M 31.5,62.5 C 31.573,64.0269 30.9063,65.0269 29.5,65.5C 29.427,63.9731 30.0937,62.9731 31.5,62.5 Z"/></g>
<g><path style="opacity:0.502" fill="#5d5d5d" d="M 273.5,73.5 C 274.906,73.9731 275.573,74.9731 275.5,76.5C 274.094,76.0269 273.427,75.0269 273.5,73.5 Z"/></g>
<g><path style="opacity:0.89" fill="#616161" d="M 9.5,102.5 C 9.87988,104.698 9.21321,106.365 7.5,107.5C 7.79586,105.597 8.46253,103.93 9.5,102.5 Z"/></g>
<g><path style="opacity:0.635" fill="#646464" d="M 6.5,112.5 C 6.59047,115.152 5.92381,117.485 4.5,119.5C 4.40953,116.848 5.07619,114.515 6.5,112.5 Z"/></g>
<g><path style="opacity:0.882" fill="#575757" d="M 18.5,224.5 C 20.0481,224.821 20.7148,225.821 20.5,227.5C 19.5987,226.71 18.9321,225.71 18.5,224.5 Z"/></g>
<g><path style="opacity:0.729" fill="#4f4f4f" d="M 47.5,261.5 C 49.4044,261.738 50.7377,262.738 51.5,264.5C 49.5956,264.262 48.2623,263.262 47.5,261.5 Z"/></g>
<g><path style="opacity:0.875" fill="#5e5e5e" d="M 53.5,266.5 C 55.4044,266.738 56.7377,267.738 57.5,269.5C 55.5956,269.262 54.2623,268.262 53.5,266.5 Z"/></g>
<g><path style="opacity:0.463" fill="#545454" d="M 65.5,275.5 C 67.0269,275.427 68.0269,276.094 68.5,277.5C 66.9731,277.573 65.9731,276.906 65.5,275.5 Z"/></g>
<g><path style="opacity:0.388" fill="#494949" d="M 68.5,277.5 C 70.0269,277.427 71.0269,278.094 71.5,279.5C 69.9731,279.573 68.9731,278.906 68.5,277.5 Z"/></g>
<g><path style="opacity:0.894" fill="#606060" d="M 98.5,292.5 C 100.698,292.12 102.365,292.787 103.5,294.5C 101.597,294.204 99.9303,293.537 98.5,292.5 Z"/></g>
<g><path style="opacity:0.506" fill="#5b5b5b" d="M 364.5,323.5 C 365.906,323.973 366.573,324.973 366.5,326.5C 365.094,326.027 364.427,325.027 364.5,323.5 Z"/></g>
<g><path style="opacity:0.682" fill="#797979" d="M 342.5,350.5 C 347.13,351.229 351.797,351.563 356.5,351.5C 354.866,352.161 353.033,352.494 351,352.5C 347.85,352.64 345.017,351.973 342.5,350.5 Z"/></g>
</svg>
