<?xml version="1.0" encoding="UTF-8"?>
<!DOCTYPE svg PUBLIC "-//W3C//DTD SVG 1.1//EN" "http://www.w3.org/Graphics/SVG/1.1/DTD/svg11.dtd">
<svg xmlns="http://www.w3.org/2000/svg" version="1.1" width="434px" height="440px" style="shape-rendering:geometricPrecision; text-rendering:geometricPrecision; image-rendering:optimizeQuality; fill-rule:evenodd; clip-rule:evenodd" xmlns:xlink="http://www.w3.org/1999/xlink">
<g><path style="opacity:1" fill="#14a3f9" d="M 302.5,10.5 C 302.5,20.8333 302.5,31.1667 302.5,41.5C 245.833,41.5 189.167,41.5 132.5,41.5C 132.5,31.1667 132.5,20.8333 132.5,10.5C 189.167,10.5 245.833,10.5 302.5,10.5 Z"/></g>
<g><path style="opacity:1" fill="#23c9f4" d="M 132.5,116.5 C 132.5,116.833 132.5,117.167 132.5,117.5C 132.5,127.833 132.5,138.167 132.5,148.5C 121.833,148.5 111.167,148.5 100.5,148.5C 100.5,112.833 100.5,77.1667 100.5,41.5C 111.08,32.4242 121.246,22.7576 131,12.5C 131.168,47.3357 131.668,82.0024 132.5,116.5 Z"/></g>
<g><path style="opacity:1" fill="#23c8f3" d="M 304.5,11.5 C 314.833,21.1667 324.833,31.1667 334.5,41.5C 334.5,77.1667 334.5,112.833 334.5,148.5C 324.167,148.5 313.833,148.5 303.5,148.5C 303.168,102.664 303.501,56.997 304.5,11.5 Z"/></g>
<g><path style="opacity:0.698" fill="#126b89" d="M 303.5,10.5 C 303.167,10.5 302.833,10.5 302.5,10.5C 245.833,10.5 189.167,10.5 132.5,10.5C 132.5,20.8333 132.5,31.1667 132.5,41.5C 132.5,41.8333 132.5,42.1667 132.5,42.5C 132.5,67.1667 132.5,91.8333 132.5,116.5C 131.668,82.0024 131.168,47.3357 131,12.5C 121.246,22.7576 111.08,32.4242 100.5,41.5C 110.631,30.8683 120.965,20.3683 131.5,10C 189.001,9.16812 246.335,9.33479 303.5,10.5 Z"/></g>
<g><path style="opacity:0.698" fill="#267dab" d="M 302.5,10.5 C 302.833,10.5 303.167,10.5 303.5,10.5C 304.167,10.5 304.5,10.8333 304.5,11.5C 303.501,56.997 303.168,102.664 303.5,148.5C 313.833,148.5 324.167,148.5 334.5,148.5C 324.013,149.494 313.346,149.828 302.5,149.5C 302.5,146.167 302.5,142.833 302.5,139.5C 302.825,131.981 302.492,124.648 301.5,117.5C 284.833,117.5 268.167,117.5 251.5,117.5C 241.5,117.5 231.5,117.5 221.5,117.5C 191.833,117.5 162.167,117.5 132.5,117.5C 132.5,117.167 132.5,116.833 132.5,116.5C 189.167,116.5 245.833,116.5 302.5,116.5C 302.5,91.8333 302.5,67.1667 302.5,42.5C 245.833,42.5 189.167,42.5 132.5,42.5C 132.5,42.1667 132.5,41.8333 132.5,41.5C 189.167,41.5 245.833,41.5 302.5,41.5C 302.5,31.1667 302.5,20.8333 302.5,10.5 Z"/></g>
<g><path style="opacity:0.902" fill="#29648e" d="M 100.5,41.5 C 100.5,77.1667 100.5,112.833 100.5,148.5C 99.5058,138.347 99.1724,128.014 99.5,117.5C 67.8333,117.5 36.1667,117.5 4.5,117.5C 4.5,117.167 4.5,116.833 4.5,116.5C 36.1667,116.5 67.8333,116.5 99.5,116.5C 99.169,91.3278 99.5023,66.3278 100.5,41.5 Z"/></g>
<g><path style="opacity:0.902" fill="#34546f" d="M 334.5,41.5 C 335.498,66.3278 335.831,91.3278 335.5,116.5C 367.5,116.5 399.5,116.5 431.5,116.5C 431.5,127.167 431.5,137.833 431.5,148.5C 430.523,145.713 430.19,142.713 430.5,139.5C 430.5,133.167 430.5,126.833 430.5,120.5C 430.5,119.5 430.5,118.5 430.5,117.5C 422.833,117.5 415.167,117.5 407.5,117.5C 383.5,117.5 359.5,117.5 335.5,117.5C 335.828,128.014 335.494,138.347 334.5,148.5C 334.5,112.833 334.5,77.1667 334.5,41.5 Z"/></g>
<g><path style="opacity:1" fill="#0d61ae" d="M 4.5,117.5 C 36.1667,117.5 67.8333,117.5 99.5,117.5C 99.1724,128.014 99.5058,138.347 100.5,148.5C 111.167,148.5 121.833,148.5 132.5,148.5C 128.688,149.324 124.688,149.824 120.5,150C 81.9749,175.093 43.3082,199.927 4.5,224.5C 4.5,188.833 4.5,153.167 4.5,117.5 Z"/></g>
<g><path style="opacity:1" fill="#105ba1" d="M 132.5,117.5 C 162.167,117.5 191.833,117.5 221.5,117.5C 149.373,164.402 77.0399,211.069 4.5,257.5C 4.5,246.5 4.5,235.5 4.5,224.5C 43.3082,199.927 81.9749,175.093 120.5,150C 124.688,149.824 128.688,149.324 132.5,148.5C 132.5,138.167 132.5,127.833 132.5,117.5 Z"/></g>
<g><path style="opacity:1" fill="#135698" d="M 221.5,117.5 C 231.5,117.5 241.5,117.5 251.5,117.5C 169.373,170.736 87.0397,223.736 4.5,276.5C 4.5,270.167 4.5,263.833 4.5,257.5C 77.0399,211.069 149.373,164.402 221.5,117.5 Z"/></g>
<g><path style="opacity:1" fill="#155190" d="M 251.5,117.5 C 268.167,117.5 284.833,117.5 301.5,117.5C 258.671,145.749 215.671,173.749 172.5,201.5C 162.319,201.173 152.319,201.506 142.5,202.5C 142.5,208.5 142.5,214.5 142.5,220.5C 96.5,250.167 50.5,279.833 4.5,309.5C 4.5,298.5 4.5,287.5 4.5,276.5C 87.0397,223.736 169.373,170.736 251.5,117.5 Z"/></g>
<g><path style="opacity:1" fill="#1f406d" d="M 407.5,117.5 C 415.167,117.5 422.833,117.5 430.5,117.5C 430.5,118.5 430.5,119.5 430.5,120.5C 384.25,149.412 338.25,178.746 292.5,208.5C 292.5,206.167 292.5,203.833 292.5,201.5C 287.833,201.5 283.167,201.5 278.5,201.5C 321.671,173.749 364.671,145.749 407.5,117.5 Z"/></g>
<g><path style="opacity:1" fill="#213c66" d="M 430.5,120.5 C 430.5,126.833 430.5,133.167 430.5,139.5C 384.25,168.412 338.25,197.746 292.5,227.5C 292.5,221.167 292.5,214.833 292.5,208.5C 338.25,178.746 384.25,149.412 430.5,120.5 Z"/></g>
<g><path style="opacity:1" fill="#184c84" d="M 301.5,117.5 C 302.492,124.648 302.825,131.981 302.5,139.5C 270.223,159.979 237.89,180.479 205.5,201C 194.505,201.5 183.505,201.667 172.5,201.5C 215.671,173.749 258.671,145.749 301.5,117.5 Z"/></g>
<g><path style="opacity:1" fill="#22385f" d="M 4.5,116.5 C 4.5,116.833 4.5,117.167 4.5,117.5C 4.5,153.167 4.5,188.833 4.5,224.5C 4.5,235.5 4.5,246.5 4.5,257.5C 4.5,263.833 4.5,270.167 4.5,276.5C 4.5,287.5 4.5,298.5 4.5,309.5C 4.5,321.167 4.5,332.833 4.5,344.5C 4.5,355.5 4.5,366.5 4.5,377.5C 4.5,382.833 4.5,388.167 4.5,393.5C 4.17033,399.868 4.50367,406.202 5.5,412.5C 51.0251,382.907 96.6918,353.573 142.5,324.5C 142.5,333.5 142.5,342.5 142.5,351.5C 165.833,351.5 189.167,351.5 212.5,351.5C 212.5,328.5 212.5,305.5 212.5,282.5C 211.791,281.596 210.791,281.263 209.5,281.5C 214.167,278.167 218.833,274.833 223.5,271.5C 246.167,271.5 268.833,271.5 291.5,271.5C 292.496,257.01 292.829,242.343 292.5,227.5C 338.25,197.746 384.25,168.412 430.5,139.5C 430.19,142.713 430.523,145.713 431.5,148.5C 431.667,238.167 431.5,327.834 431,417.5C 429.247,428.252 423.08,434.752 412.5,437C 282.5,437.667 152.5,437.667 22.5,437C 11.9198,434.752 5.75311,428.252 4,417.5C 3.1675,316.999 3.33416,216.666 4.5,116.5 Z"/></g>
<g><path style="opacity:1" fill="#1d4678" d="M 407.5,117.5 C 364.671,145.749 321.671,173.749 278.5,201.5C 259.659,201.17 240.993,201.503 222.5,202.5C 222.5,208.833 222.5,215.167 222.5,221.5C 218.922,223.075 215.589,225.075 212.5,227.5C 212.5,219.167 212.5,210.833 212.5,202.5C 189.167,202.5 165.833,202.5 142.5,202.5C 152.319,201.506 162.319,201.173 172.5,201.5C 183.505,201.667 194.505,201.5 205.5,201C 237.89,180.479 270.223,159.979 302.5,139.5C 302.5,142.833 302.5,146.167 302.5,149.5C 313.346,149.828 324.013,149.494 334.5,148.5C 335.494,138.347 335.828,128.014 335.5,117.5C 359.5,117.5 383.5,117.5 407.5,117.5 Z"/></g>
<g><path style="opacity:1" fill="#ef4f23" d="M 142.5,202.5 C 165.833,202.5 189.167,202.5 212.5,202.5C 212.5,210.833 212.5,219.167 212.5,227.5C 212.5,242.167 212.5,256.833 212.5,271.5C 197.833,271.5 183.167,271.5 168.5,271.5C 159.833,271.5 151.167,271.5 142.5,271.5C 142.5,266.5 142.5,261.5 142.5,256.5C 142.5,244.5 142.5,232.5 142.5,220.5C 142.5,214.5 142.5,208.5 142.5,202.5 Z"/></g>
<g><path style="opacity:1" fill="#7eb900" d="M 222.5,202.5 C 245.5,202.5 268.5,202.5 291.5,202.5C 291.5,225.5 291.5,248.5 291.5,271.5C 268.833,271.5 246.167,271.5 223.5,271.5C 222.503,255.008 222.17,238.342 222.5,221.5C 222.5,215.167 222.5,208.833 222.5,202.5 Z"/></g>
<g><path style="opacity:1" fill="#517c38" d="M 222.5,202.5 C 240.993,201.503 259.659,201.17 278.5,201.5C 283.167,201.5 287.833,201.5 292.5,201.5C 292.5,203.833 292.5,206.167 292.5,208.5C 292.5,214.833 292.5,221.167 292.5,227.5C 292.829,242.343 292.496,257.01 291.5,271.5C 291.5,248.5 291.5,225.5 291.5,202.5C 268.5,202.5 245.5,202.5 222.5,202.5 Z"/></g>
<g><path style="opacity:1" fill="#194a81" d="M 142.5,220.5 C 142.5,232.5 142.5,244.5 142.5,256.5C 96.5,285.833 50.5,315.167 4.5,344.5C 4.5,332.833 4.5,321.167 4.5,309.5C 50.5,279.833 96.5,250.167 142.5,220.5 Z"/></g>
<g><path style="opacity:1" fill="#203e6a" d="M 222.5,221.5 C 222.17,238.342 222.503,255.008 223.5,271.5C 218.833,274.833 214.167,278.167 209.5,281.5C 191.164,281.667 172.83,281.5 154.5,281C 159.406,278.058 164.072,274.891 168.5,271.5C 183.167,271.5 197.833,271.5 212.5,271.5C 212.5,256.833 212.5,242.167 212.5,227.5C 215.589,225.075 218.922,223.075 222.5,221.5 Z"/></g>
<g><path style="opacity:1" fill="#1d4475" d="M 142.5,256.5 C 142.5,261.5 142.5,266.5 142.5,271.5C 151.167,271.5 159.833,271.5 168.5,271.5C 164.072,274.891 159.406,278.058 154.5,281C 172.83,281.5 191.164,281.667 209.5,281.5C 210.791,281.263 211.791,281.596 212.5,282.5C 189.167,282.5 165.833,282.5 142.5,282.5C 142.5,284.833 142.5,287.167 142.5,289.5C 96.2497,318.412 50.2497,347.746 4.5,377.5C 4.5,366.5 4.5,355.5 4.5,344.5C 50.5,315.167 96.5,285.833 142.5,256.5 Z"/></g>
<g><path style="opacity:1" fill="#00a2ed" d="M 212.5,282.5 C 212.5,305.5 212.5,328.5 212.5,351.5C 189.167,351.5 165.833,351.5 142.5,351.5C 142.5,342.5 142.5,333.5 142.5,324.5C 142.5,318.167 142.5,311.833 142.5,305.5C 142.5,300.167 142.5,294.833 142.5,289.5C 142.5,287.167 142.5,284.833 142.5,282.5C 165.833,282.5 189.167,282.5 212.5,282.5 Z"/></g>
<g><path style="opacity:1" fill="#9c7f2e" d="M 291.5,351.5 C 291.5,328.5 291.5,305.5 291.5,282.5C 268.833,282.5 246.167,282.5 223.5,282.5C 223.5,305.5 223.5,328.5 223.5,351.5C 222.502,328.339 222.169,305.006 222.5,281.5C 245.833,281.5 269.167,281.5 292.5,281.5C 292.831,305.006 292.498,328.339 291.5,351.5 Z"/></g>
<g><path style="opacity:1" fill="#feb900" d="M 291.5,351.5 C 268.833,351.5 246.167,351.5 223.5,351.5C 223.5,328.5 223.5,305.5 223.5,282.5C 246.167,282.5 268.833,282.5 291.5,282.5C 291.5,305.5 291.5,328.5 291.5,351.5 Z"/></g>
<g><path style="opacity:1" fill="#1f406d" d="M 142.5,289.5 C 142.5,294.833 142.5,300.167 142.5,305.5C 96.5,334.833 50.5,364.167 4.5,393.5C 4.5,388.167 4.5,382.833 4.5,377.5C 50.2497,347.746 96.2497,318.412 142.5,289.5 Z"/></g>
<g><path style="opacity:1" fill="#213c66" d="M 142.5,305.5 C 142.5,311.833 142.5,318.167 142.5,324.5C 96.6918,353.573 51.0251,382.907 5.5,412.5C 4.50367,406.202 4.17033,399.868 4.5,393.5C 50.5,364.167 96.5,334.833 142.5,305.5 Z"/></g>
</svg>
