<?xml version="1.0" encoding="UTF-8"?>
<!DOCTYPE svg PUBLIC "-//W3C//DTD SVG 1.1//EN" "http://www.w3.org/Graphics/SVG/1.1/DTD/svg11.dtd">
<svg xmlns="http://www.w3.org/2000/svg" version="1.1" width="471px" height="472px" style="shape-rendering:geometricPrecision; text-rendering:geometricPrecision; image-rendering:optimizeQuality; fill-rule:evenodd; clip-rule:evenodd" xmlns:xlink="http://www.w3.org/1999/xlink">
<g><path style="opacity:1" fill="#37369a" d="M 218.5,5.5 C 305.387,1.53484 374.553,34.2015 426,103.5C 466.088,164.367 476.421,230.034 457,300.5C 431.928,377.239 381.094,428.406 304.5,454C 229.877,474.509 161.21,462.342 98.5,417.5C 68.9802,422.226 39.4802,426.892 10,431.5C 4.85863,430.039 2.5253,426.706 3,421.5C 12.7347,393.462 22.5681,365.462 32.5,337.5C 7.5363,286.326 1.70297,232.992 15,177.5C 36.1298,102.076 82.9631,49.5756 155.5,20C 176.037,12.53 197.037,7.69665 218.5,5.5 Z"/></g>
<g><path style="opacity:1" fill="#fefefe" d="M 125.5,170.5 C 183.834,170.333 242.168,170.5 300.5,171C 301,171.5 301.5,172 302,172.5C 302.667,213.833 302.667,255.167 302,296.5C 301.5,297 301,297.5 300.5,298C 242.167,298.667 183.833,298.667 125.5,298C 124.667,297.167 123.833,296.333 123,295.5C 122.333,254.833 122.333,214.167 123,173.5C 124.045,172.627 124.878,171.627 125.5,170.5 Z"/></g>
<g><path style="opacity:1" fill="#fafafc" d="M 347.5,198.5 C 349.144,198.286 350.644,198.62 352,199.5C 352.667,222.833 352.667,246.167 352,269.5C 351.275,270.059 350.442,270.392 349.5,270.5C 336.59,262.931 323.924,254.931 311.5,246.5C 310.335,239.189 310.169,231.856 311,224.5C 323.321,215.934 335.488,207.268 347.5,198.5 Z"/></g>
</svg>
