<?xml version="1.0" standalone="no"?>
<!DOCTYPE svg PUBLIC "-//W3C//DTD SVG 20010904//EN"
 "http://www.w3.org/TR/2001/REC-SVG-20010904/DTD/svg10.dtd">
<svg version="1.0" xmlns="http://www.w3.org/2000/svg"
 width="3840.000000pt" height="2400.000000pt" viewBox="0 0 3840.000000 2400.000000"
 preserveAspectRatio="xMidYMid meet">

<g transform="translate(0.000000,2400.000000) scale(0.100000,-0.100000)"
fill="#000000" stroke="none">
<path d="M0 12000 l0 -12000 19200 0 19200 0 0 12000 0 12000 -19200 0 -19200
0 0 -12000z m21140 8960 c-8 -5 -22 -9 -30 -9 -10 0 -8 3 5 9 27 12 43 12 25
0z m-90 -27 c-8 -3 -62 -23 -120 -43 -129 -46 -187 -69 -265 -105 -33 -15
-105 -47 -160 -72 -432 -196 -956 -499 -1630 -944 -269 -178 -1228 -814 -1490
-989 -330 -220 -630 -425 -684 -467 -9 -7 -54 -39 -101 -72 -154 -108 -221
-156 -260 -186 -21 -16 -82 -61 -135 -100 -146 -106 -640 -495 -655 -516 -3
-3 -39 -35 -80 -69 -259 -215 -679 -625 -877 -855 -52 -60 -105 -121 -117
-135 -80 -93 -158 -213 -196 -300 -28 -66 -35 -186 -13 -239 24 -61 7 -43 -22
21 -18 42 -29 87 -32 134 -5 70 -2 85 54 213 5 10 -1 12 -23 8 -16 -4 -121
-24 -234 -46 -297 -59 -490 -120 -542 -172 -34 -33 -36 -74 -8 -130 23 -44 92
-115 378 -388 261 -248 493 -510 587 -661 15 -25 29 -46 30 -48 1 -1 14 2 27
9 25 11 25 12 21 118 -10 203 24 309 134 417 l63 63 -29 88 c-84 249 -33 397
204 588 97 78 190 141 590 400 143 93 465 303 715 468 776 512 847 559 1120
734 810 519 1559 948 2335 1336 486 243 1008 478 1350 609 44 16 120 46 169
65 48 18 91 32 94 29 2 -3 -4 -8 -14 -12 -49 -16 -94 -34 -299 -120 -901 -378
-1913 -897 -2815 -1445 -52 -31 -138 -83 -190 -115 -99 -60 -195 -120 -381
-239 -60 -38 -144 -92 -187 -119 -114 -73 -390 -253 -442 -289 -25 -17 -106
-71 -180 -120 -74 -49 -147 -97 -161 -107 -15 -10 -307 -206 -649 -435 -343
-229 -639 -428 -659 -443 -20 -14 -54 -39 -76 -54 -210 -148 -356 -280 -422
-384 -58 -90 -87 -207 -73 -301 8 -62 26 -107 39 -101 4 2 59 37 123 78 l116
75 16 65 c39 155 160 275 475 470 222 138 1282 750 1671 965 107 59 269 152
360 205 91 54 246 145 345 202 99 58 272 161 385 230 928 566 1914 1066 2715
1380 183 71 422 158 434 158 16 -1 -57 -33 -185 -81 -197 -73 -637 -260 -891
-378 -355 -165 -894 -438 -1163 -591 -47 -26 -107 -60 -135 -75 -122 -66 -385
-218 -385 -222 0 -2 3 -2 8 0 17 11 392 186 562 262 982 440 2179 850 3036
1039 88 19 176 36 195 37 19 2 41 6 50 10 9 5 43 12 75 18 32 5 111 18 174 29
166 29 191 32 185 23 -2 -5 -28 -11 -57 -14 -29 -3 -89 -13 -133 -22 -44 -9
-107 -20 -140 -25 -33 -5 -91 -16 -130 -25 -217 -49 -502 -118 -585 -141 -52
-14 -128 -34 -168 -45 -40 -11 -195 -57 -345 -104 -747 -231 -1558 -540 -2242
-855 -311 -143 -965 -473 -965 -486 0 -3 3 -3 8 -1 54 34 718 328 992 440 796
325 1490 521 2655 751 686 135 956 171 1350 183 285 8 426 -2 795 -57 114 -17
381 -84 535 -136 440 -146 815 -369 1124 -669 251 -243 413 -474 506 -721 37
-98 30 -102 -10 -6 -76 186 -220 408 -373 577 -100 111 -113 124 -255 248
-338 294 -805 527 -1297 646 -296 71 -464 91 -810 98 -480 9 -739 -21 -1475
-168 -1295 -260 -1974 -455 -2835 -817 -595 -249 -1251 -571 -1865 -915 -404
-225 -1424 -818 -1570 -912 -27 -18 -95 -61 -150 -96 -213 -135 -359 -268
-415 -379 -17 -33 -28 -60 -24 -60 3 0 117 68 252 152 539 331 1180 716 1617
973 1134 664 2027 1083 2882 1354 1483 468 2584 490 3382 65 246 -130 486
-330 649 -540 18 -23 32 -47 32 -53 0 -6 5 -11 10 -11 6 0 10 -5 10 -10 0 -10
38 -70 51 -80 18 -14 151 -307 177 -390 140 -443 119 -938 -69 -1575 -23 -78
-68 -213 -97 -290 -55 -146 -85 -223 -97 -250 -7 -16 -27 -64 -44 -105 -41
-98 -78 -179 -185 -400 -110 -231 -310 -592 -449 -815 -57 -91 -315 -478 -394
-591 -155 -220 -487 -653 -614 -799 -10 -11 -50 -58 -89 -105 -40 -47 -89
-103 -109 -125 -20 -22 -67 -76 -106 -120 -219 -251 -318 -354 -876 -925 -553
-565 -556 -568 -757 -785 -349 -376 -562 -631 -789 -940 -103 -140 -279 -402
-317 -470 -9 -16 -22 -39 -29 -50 -191 -305 -369 -696 -485 -1065 -26 -82 -90
-343 -103 -418 -20 -117 -39 -283 -51 -455 -29 -421 42 -911 186 -1296 65
-171 82 -209 178 -400 96 -192 99 -203 14 -61 -304 507 -450 1083 -433 1700 4
118 8 226 11 240 2 14 7 54 10 90 22 214 115 599 186 775 5 11 32 83 61 160
49 130 127 310 150 345 5 8 16 30 25 49 28 60 131 239 247 426 7 10 49 74 94
141 45 67 79 124 76 127 -8 9 40 67 50 60 6 -3 7 -2 4 4 -13 20 332 449 634
788 204 229 432 467 954 995 744 752 1024 1056 1396 1515 826 1018 1466 2159
1736 3095 94 328 127 542 127 830 0 180 -4 233 -22 322 -25 126 -60 258 -71
273 -5 5 -14 28 -21 50 -16 53 -137 287 -155 301 -8 6 -13 14 -10 17 3 4 2 5
-2 2 -8 -6 -33 14 -33 27 0 5 5 6 10 3 6 -4 2 8 -10 27 -11 18 -24 34 -30 34
-5 1 -15 2 -21 3 -6 0 -9 8 -6 15 4 9 1 13 -6 10 -16 -6 -61 62 -51 77 5 8 3
9 -6 4 -15 -9 -110 89 -110 115 0 16 -25 42 -65 69 -11 8 -7 2 8 -13 32 -29
24 -35 -10 -7 -12 10 -21 26 -20 37 1 12 -4 19 -14 18 -11 -1 -15 5 -12 17 4
13 0 19 -11 19 -11 0 -14 -5 -10 -12 4 -7 3 -8 -5 -4 -9 6 -9 11 0 22 6 8 7
14 2 14 -5 0 -18 8 -29 18 -10 10 -27 21 -36 25 -10 3 -18 14 -18 22 0 9 -4
14 -10 10 -5 -3 -28 15 -52 40 -39 42 -187 149 -230 167 -10 4 -18 12 -18 18
0 6 -3 9 -7 7 -5 -3 -30 8 -58 24 -27 16 -62 34 -77 40 -16 6 -28 14 -28 18 0
4 -6 8 -13 8 -8 0 -47 14 -88 30 -294 122 -596 175 -1019 177 -256 1 -367 -7
-650 -45 -750 -101 -1672 -387 -2570 -799 -143 -66 -607 -296 -740 -367 -249
-135 -724 -403 -955 -541 -231 -138 -746 -449 -890 -537 -433 -265 -556 -341
-615 -379 -36 -23 -128 -82 -205 -131 -522 -333 -625 -451 -625 -713 0 -64 3
-83 13 -79 21 8 347 204 552 332 383 239 865 558 1360 900 335 232 909 614
1105 736 880 548 1591 863 2281 1010 867 184 1643 68 2261 -338 630 -413 968
-1035 970 -1783 1 -260 -11 -388 -58 -635 -49 -257 -179 -680 -278 -900 -8
-16 -33 -75 -57 -130 -153 -355 -406 -796 -653 -1140 -116 -162 -140 -195
-201 -273 -33 -43 -73 -95 -90 -117 -46 -63 -256 -315 -261 -315 -10 0 16 34
77 104 93 107 369 480 508 686 513 761 851 1580 936 2263 40 325 9 468 -138
627 -13 14 -41 48 -63 75 -43 55 -55 66 -65 59 -4 -2 -17 12 -29 31 -12 19
-25 35 -29 35 -9 0 -20 10 -181 180 -74 79 -160 168 -190 199 -35 36 -54 63
-52 74 6 28 -38 69 -66 64 -17 -3 -26 1 -32 18 -5 12 -16 25 -24 28 -9 4 -16
14 -16 23 0 11 -5 14 -17 10 -10 -4 -14 -4 -10 0 4 4 -1 16 -10 26 -13 15 -14
21 -5 27 9 5 7 13 -9 27 -22 19 -22 19 -17 -3 5 -20 4 -21 -13 -12 -10 5 -19
15 -19 21 0 7 -12 22 -27 35 l-28 22 25 -6 c14 -4 30 -14 37 -22 7 -9 13 -11
13 -5 0 16 -46 56 -61 54 -29 -4 -39 1 -39 20 0 11 -6 20 -12 20 -19 1 -178
179 -178 199 0 7 -5 9 -11 5 -9 -5 -10 1 -5 20 7 28 -4 56 -35 90 -11 11 -19
26 -19 33 0 8 -4 12 -8 9 -23 -14 -55 51 -56 116 -1 41 1 45 17 37 12 -7 17
-6 17 5 0 8 -6 17 -12 19 -8 3 -5 6 5 6 10 1 16 5 12 10 -11 19 26 29 54 15
29 -14 83 -8 59 7 -24 16 42 10 73 -7 17 -8 36 -13 42 -11 6 2 -7 12 -31 22
-23 10 -42 23 -42 27 0 5 27 -6 61 -22 33 -17 66 -29 72 -27 6 2 -4 9 -21 16
-18 8 -32 17 -32 22 0 5 -7 9 -15 9 -8 0 -15 4 -15 10 0 5 7 7 16 3 12 -4 15
-2 12 8 -2 8 -26 24 -52 37 -29 14 -44 27 -40 34 4 7 3 8 -5 4 -7 -5 -38 8
-72 28 -33 20 -62 36 -65 36 -2 0 -32 14 -66 30 -34 17 -66 30 -71 30 -5 0
-23 6 -40 14 -67 30 -329 97 -467 120 -258 43 -649 39 -960 -10 -335 -53 -819
-195 -1105 -324 -22 -9 -80 -34 -130 -55 -302 -124 -848 -422 -1265 -689 -131
-84 -632 -418 -760 -506 -58 -40 -145 -101 -195 -135 -49 -34 -142 -98 -205
-142 -767 -535 -1469 -981 -2160 -1373 -507 -287 -663 -379 -643 -380 7 0 175
34 375 75 752 157 958 195 1738 325 923 154 1142 196 1925 365 803 174 1020
216 1325 255 441 57 819 51 1135 -19 669 -147 1170 -632 1280 -1241 9 -52 20
-106 24 -120 20 -76 -6 -509 -38 -630 -142 -525 -449 -1015 -1075 -1710 -190
-210 -296 -326 -436 -475 -321 -341 -792 -878 -965 -1100 -16 -21 -66 -84
-110 -139 -44 -56 -116 -152 -160 -213 -87 -122 -117 -137 -39 -20 250 376
623 823 1266 1520 321 347 518 568 666 746 430 514 677 945 764 1333 32 143
32 413 1 528 -20 70 -115 312 -133 335 -4 6 -31 57 -60 115 -30 58 -61 116
-70 130 -33 47 -129 238 -123 244 3 3 0 19 -7 36 -11 27 -11 33 3 46 10 8 12
9 7 2 -6 -7 -10 -16 -10 -22 0 -5 6 -1 14 10 9 12 11 23 5 29 -22 22 -7 26 17
4 18 -17 23 -19 18 -6 -3 9 -10 17 -15 17 -5 0 -9 9 -9 20 0 11 -4 20 -10 20
-5 0 -10 6 -10 13 0 14 -113 129 -165 169 -16 12 -39 31 -50 41 -22 20 -208
137 -218 137 -4 0 -30 11 -59 23 -482 215 -1085 222 -2038 26 -161 -33 -803
-173 -865 -189 -99 -25 -786 -165 -960 -195 -255 -45 -396 -69 -665 -114 -990
-166 -1377 -242 -2765 -546 -943 -206 -1074 -238 -1370 -337 -333 -111 -608
-291 -706 -463 -41 -71 -36 -46 7 35 50 96 129 187 230 266 l87 68 -69 33
c-145 68 -306 93 -604 93 -269 0 -575 -31 -830 -85 -41 -9 -168 -40 -281 -70
-192 -51 -279 -66 -279 -47 0 4 66 24 148 45 81 20 217 56 302 78 300 78 620
119 929 119 290 0 482 -34 638 -110 l82 -41 81 41 c44 22 115 54 157 71 43 17
81 33 85 35 10 7 -69 110 -130 170 -120 118 -286 193 -527 241 -74 14 -145 17
-390 18 -336 0 -387 -5 -835 -81 -265 -45 -445 -63 -513 -50 -64 12 -40 21 61
23 107 2 193 14 477 67 282 52 462 76 646 85 396 20 723 -35 939 -156 97 -55
230 -181 270 -256 14 -26 31 -47 38 -47 8 0 66 16 129 35 64 19 182 51 262 71
80 20 147 37 149 39 4 3 -60 115 -99 172 -45 66 -172 190 -244 238 -213 141
-453 206 -870 235 -258 18 -350 37 -381 78 -21 28 -16 37 9 15 32 -29 105 -41
359 -58 336 -22 530 -60 717 -139 223 -94 402 -260 509 -472 l31 -62 43 9 c24
4 274 58 557 119 l514 110 66 48 c74 54 112 78 290 182 67 39 119 75 115 79
-27 23 -197 58 -414 86 -473 61 -705 119 -932 231 -357 176 -518 409 -453 658
65 248 348 546 768 806 64 40 117 74 117 76 0 6 -306 -148 -445 -224 -184
-100 -470 -272 -628 -379 -78 -53 -175 -118 -216 -146 -41 -27 -146 -103 -235
-168 -89 -66 -226 -167 -306 -226 -80 -58 -163 -123 -184 -142 -21 -20 -36
-31 -32 -24 19 34 331 290 566 465 906 674 1841 1114 2675 1258 218 37 573 71
562 52 -4 -5 -57 -12 -119 -16 -116 -7 -425 -49 -488 -66 -31 -9 -30 -9 15 -4
28 3 118 14 201 24 83 11 200 22 260 26 60 4 118 11 129 17 26 13 315 298 315
311 0 11 -336 0 -570 -20 -940 -80 -1803 -370 -2690 -903 -498 -299 -1214
-819 -1885 -1370 -329 -270 -457 -394 -451 -434 4 -27 20 -31 77 -17 163 42
262 60 369 68 127 10 167 5 203 -26 26 -23 5 -39 -84 -64 -65 -19 -105 -22
-339 -24 -232 -3 -308 -6 -317 -14 -2 -2 -6 -3 -10 -4 -5 -1 -18 -7 -30 -14
-55 -31 -13 21 145 178 236 235 536 488 1017 859 1139 877 1941 1325 2850
1591 490 143 1089 230 1585 230 l169 0 59 53 c91 80 352 318 352 321 0 1 -66
-4 -147 -11 -935 -79 -1738 -297 -2859 -779 -726 -311 -1197 -576 -1834 -1032
-731 -523 -1349 -1003 -1675 -1302 -262 -240 -555 -547 -555 -581 0 -12 83
-12 129 1 272 72 366 90 498 97 l132 6 83 -33 c46 -18 89 -37 96 -43 17 -13
15 -58 -4 -85 -21 -30 -108 -69 -168 -75 -27 -3 -51 -9 -55 -14 -10 -15 -271
-20 -726 -14 -128 1 -151 -2 -177 -25 -78 -68 153 213 328 398 406 431 849
803 1696 1426 1014 746 1490 1018 2503 1429 979 398 1693 580 2595 661 l196
18 164 135 c488 399 926 708 1855 1309 182 117 562 364 845 548 992 645 1336
855 1700 1037 356 179 553 262 890 378 43 15 96 23 60 10z m-14 -568 c-11 -8
-27 -15 -36 -15 -9 0 -20 -4 -25 -8 -6 -5 -89 -42 -185 -83 -444 -188 -1198
-588 -1903 -1011 -82 -49 -163 -97 -180 -107 -37 -21 -286 -173 -337 -206 -19
-13 -71 -44 -115 -71 -44 -26 -119 -73 -167 -103 -47 -31 -153 -99 -234 -151
-215 -138 -541 -356 -675 -452 -151 -108 -209 -150 -287 -207 -48 -35 -89 -66
-92 -70 -3 -3 -27 -21 -54 -40 -45 -30 -240 -183 -410 -320 -37 -31 -79 -63
-92 -72 -13 -8 -38 -29 -56 -45 -32 -28 -126 -108 -177 -149 -26 -21 -90 -76
-187 -162 -32 -28 -76 -65 -98 -82 -21 -17 -46 -39 -55 -48 -9 -10 -41 -40
-71 -67 -208 -185 -431 -396 -600 -570 -80 -82 -158 -160 -173 -175 -49 -45
-177 -222 -209 -288 -16 -35 -34 -94 -40 -131 -9 -65 -4 -108 26 -197 5 -12 2
-11 -7 5 -34 58 -59 155 -59 229 1 67 5 84 41 155 56 114 157 230 462 531 690
681 1460 1315 2230 1837 675 458 1845 1155 2659 1583 394 207 665 331 1035
474 91 35 97 36 71 16z m2357 -1002 c-7 -2 -19 -2 -25 0 -7 3 -2 5 12 5 14 0
19 -2 13 -5z m-326 -29 c-3 -3 -12 -4 -19 -1 -8 3 -5 6 6 6 11 1 17 -2 13 -5z
m-1642 -84 c-27 -12 -43 -12 -25 0 8 5 22 9 30 9 10 0 8 -3 -5 -9z m2449
-1966 c3 -8 2 -12 -4 -9 -6 3 -10 10 -10 16 0 14 7 11 14 -7z m-1664 -754 c17
-17 27 -40 17 -40 -2 0 -16 14 -30 30 -30 33 -19 42 13 10z m-14220 -3084 c0
-2 -20 -16 -45 -30 -66 -39 -158 -128 -183 -178 -38 -75 -52 -172 -41 -279 11
-113 19 -141 72 -243 99 -192 300 -328 637 -429 518 -156 1380 -213 1989 -131
327 44 570 109 1241 334 439 147 531 176 835 264 271 78 525 145 875 230 958
234 1353 298 1830 299 415 1 724 -58 1013 -192 246 -113 479 -322 596 -536
119 -216 195 -401 241 -588 11 -45 25 -91 30 -102 8 -18 25 -100 34 -165 2
-14 11 -55 20 -92 9 -37 15 -71 14 -75 -2 -4 5 -33 14 -63 24 -78 51 -227 45
-244 -3 -8 0 -37 8 -64 7 -28 16 -84 20 -124 4 -40 11 -77 15 -83 13 -17 22
-77 26 -174 2 -52 8 -99 13 -105 5 -6 11 -20 13 -31 10 -43 30 37 23 91 -3 29
-10 179 -14 334 -6 210 -12 284 -21 290 -13 8 -10 75 8 195 l7 50 17 -50 c9
-27 19 -65 23 -82 5 -26 12 -33 30 -33 20 0 25 -7 31 -37 4 -21 12 -45 19 -53
14 -17 34 -87 36 -121 1 -21 2 -20 8 6 6 24 10 12 19 -60 7 -49 17 -124 23
-167 8 -54 8 -100 0 -160 -5 -45 -13 -145 -16 -222 -4 -76 -11 -150 -16 -165
-6 -14 -10 -62 -9 -106 2 -71 -2 -146 -15 -320 -2 -27 -4 -66 -4 -85 -1 -19
-5 -60 -11 -90 -6 -30 -12 -66 -15 -80 -2 -14 -10 -70 -16 -124 -8 -60 -15
-92 -19 -80 -13 37 -29 -109 -35 -316 -3 -113 -10 -259 -15 -325 -13 -164 -25
-763 -24 -1150 2 -430 24 -734 81 -1115 14 -96 27 -184 28 -195 6 -59 82 -400
141 -630 29 -115 63 -248 75 -295 12 -47 25 -94 30 -105 20 -47 82 -262 82
-282 -1 -13 3 -23 8 -23 5 0 9 -9 9 -19 0 -11 5 -32 12 -48 6 -15 11 -31 10
-35 -1 -3 59 -190 133 -415 74 -224 133 -412 132 -418 -2 -5 -9 8 -16 30 -13
39 -169 464 -196 535 -70 178 -294 837 -287 844 3 4 -1 12 -10 19 -8 6 -23 49
-33 95 -10 46 -22 85 -27 88 -4 3 -5 -9 -1 -27 4 -21 3 -30 -4 -26 -14 9 -14
-104 -1 -120 6 -7 8 -22 5 -33 -3 -13 -1 -18 5 -13 8 4 9 -6 5 -30 -4 -25 -2
-37 6 -37 8 0 8 -3 2 -8 -6 -4 -10 -19 -10 -34 2 -50 -12 -29 -33 50 -209 780
-297 1529 -272 2308 5 165 14 353 20 419 5 66 14 174 19 240 31 370 45 941 32
1290 -21 540 -74 1037 -177 1653 -97 583 -196 878 -397 1176 -57 86 -227 253
-321 316 -194 130 -439 217 -749 267 -160 26 -652 25 -852 -1 -257 -33 -589
-94 -835 -152 -36 -9 -83 -20 -105 -25 -140 -31 -644 -155 -810 -199 -433
-114 -770 -215 -1275 -385 -996 -334 -1314 -397 -2005 -398 -606 0 -1129 64
-1425 176 -158 60 -294 135 -375 207 -169 151 -265 356 -265 566 0 179 73 299
252 414 61 40 68 44 68 36z m13394 -233 c6 -22 1 -218 -7 -253 -3 -14 -10 -49
-17 -78 -7 -29 -10 -62 -7 -72 3 -11 -1 -21 -9 -24 -8 -3 -14 -11 -14 -18 0
-7 -10 -33 -21 -58 -16 -35 -22 -41 -29 -30 -10 15 -10 16 -14 -38 -1 -15 -27
-33 -38 -26 -4 3 -8 -2 -8 -10 0 -9 -4 -16 -10 -16 -5 0 -10 -11 -10 -24 0
-14 -5 -28 -12 -32 -8 -5 -9 2 -4 26 3 19 11 37 17 41 7 4 8 12 4 18 -4 7 -1
19 6 28 19 22 39 82 43 130 3 23 9 50 14 60 9 16 50 154 57 193 2 8 4 15 5 15
4 0 11 44 17 98 3 31 10 57 14 57 5 0 6 7 3 15 -4 8 -1 15 4 15 6 0 13 -8 16
-17z m-10423 -86 c-10 -9 -11 -8 -5 6 3 10 9 15 12 12 3 -3 0 -11 -7 -18z
m-3020 -734 c13 -16 12 -17 -3 -4 -17 13 -22 21 -14 21 2 0 10 -8 17 -17z m79
-109 c43 -58 67 -83 77 -80 15 6 46 -17 38 -28 -3 -3 -2 -4 1 -2 15 11 66 -25
122 -88 34 -37 62 -72 62 -76 0 -5 16 -14 35 -21 19 -7 35 -17 35 -22 0 -4 5
-5 10 -2 10 6 116 -29 136 -46 6 -5 14 -6 17 -2 4 3 7 1 7 -5 0 -7 3 -11 8
-10 4 1 23 -4 42 -11 19 -8 40 -15 45 -16 104 -27 265 -92 265 -107 0 -5 8 -8
18 -8 9 0 44 -14 76 -30 32 -17 65 -30 72 -30 16 0 184 -89 202 -106 6 -7 21
-16 32 -19 11 -3 20 -10 20 -13 0 -4 17 -16 38 -27 20 -11 39 -22 42 -25 3 -3
26 -21 52 -40 26 -19 48 -38 48 -42 0 -4 17 -24 39 -45 21 -21 42 -48 46 -60
3 -13 11 -23 16 -23 5 0 9 -5 9 -11 0 -6 9 -24 21 -40 11 -16 17 -34 13 -40
-4 -7 -3 -9 4 -5 7 4 13 -10 17 -39 4 -25 11 -45 16 -45 21 0 -1 -302 -24
-329 -24 -29 -55 -88 -62 -120 -4 -17 -13 -31 -21 -31 -8 0 -14 -4 -14 -9 0
-13 -56 -95 -86 -128 -13 -14 -24 -30 -24 -34 0 -11 -40 -51 -41 -41 0 4 -4
-2 -8 -12 -4 -11 -17 -21 -30 -23 -12 -1 -34 -14 -49 -28 -18 -17 -38 -25 -63
-25 -20 0 -41 -6 -46 -12 -12 -15 -14 -98 -3 -98 6 0 373 126 495 170 324 117
656 260 1350 583 594 276 880 397 1187 503 435 151 801 233 1186 265 274 23
699 -1 927 -51 281 -62 481 -131 706 -246 384 -195 703 -477 961 -849 118
-171 275 -470 367 -700 29 -71 61 -149 72 -173 11 -24 17 -47 14 -52 -3 -5 -1
-11 5 -15 6 -4 8 -10 6 -13 -2 -4 2 -18 10 -32 16 -30 18 -12 3 27 -7 15 -13
44 -15 63 l-3 35 9 -30 c5 -16 16 -35 24 -40 14 -11 46 -94 46 -120 0 -8 6
-18 13 -22 21 -13 58 -101 67 -160 5 -29 12 -58 15 -63 3 -5 8 -29 11 -52 3
-24 9 -47 14 -52 5 -5 5 -18 0 -31 -5 -13 -7 -25 -4 -28 7 -7 16 -67 18 -117
0 -25 5 -51 10 -59 7 -10 6 -12 -4 -6 -10 6 -12 3 -8 -13 3 -12 2 -22 -3 -24
-5 -2 -6 -18 -3 -36 5 -22 10 -29 15 -21 5 8 10 -1 14 -24 5 -24 3 -42 -5 -52
-6 -8 -9 -19 -6 -24 4 -6 8 -27 10 -48 2 -21 11 -83 20 -138 9 -55 20 -129 26
-165 120 -784 234 -1463 304 -1805 33 -163 90 -428 101 -470 3 -11 39 -159 80
-330 41 -170 81 -335 89 -365 28 -103 58 -225 72 -290 8 -35 18 -78 24 -95 11
-34 113 -430 166 -644 36 -147 42 -213 9 -100 -10 35 -43 145 -72 244 -30 99
-68 225 -83 280 -16 55 -53 174 -83 265 -29 91 -67 206 -83 255 -16 50 -32 92
-36 93 -5 2 -6 8 -3 13 3 4 -2 23 -11 40 -9 18 -18 46 -21 63 -3 17 -9 35 -14
41 -5 5 -9 16 -9 24 0 9 -11 38 -25 66 -26 54 -114 293 -116 316 -1 8 -5 3 -9
-11 l-8 -25 -1 27 c-1 15 -5 30 -11 33 -5 3 -10 22 -10 41 0 20 -4 33 -10 29
-5 -3 -14 13 -21 35 -7 22 -16 40 -21 40 -5 0 -6 10 -3 21 5 15 4 19 -4 15 -9
-6 -16 8 -8 17 1 2 -6 11 -15 20 -9 9 -24 49 -32 87 -9 39 -20 79 -25 88 -5 9
-14 39 -20 67 -7 27 -16 52 -20 55 -8 5 -33 93 -56 200 -7 36 -25 117 -39 180
-15 63 -29 140 -32 170 -3 30 -9 66 -14 80 -5 14 -14 72 -21 130 -6 58 -18
134 -26 170 -20 89 -32 149 -38 185 -3 17 -10 32 -15 33 -6 2 -8 8 -5 12 3 5
-7 3 -22 -5 -32 -17 -47 -19 -39 -6 3 5 0 14 -8 20 -11 9 -15 7 -19 -9 -3 -11
0 -20 6 -20 8 0 9 -3 2 -8 -6 -4 -21 -20 -34 -37 -15 -19 -21 -23 -17 -10 155
411 179 794 85 1350 -87 515 -254 1012 -461 1374 -159 277 -248 400 -418 571
-420 424 -925 662 -1580 742 -137 17 -582 17 -725 0 -615 -73 -1187 -257
-2040 -657 -44 -20 -102 -47 -130 -60 -27 -13 -171 -80 -320 -150 -148 -70
-283 -132 -300 -140 -16 -7 -55 -24 -86 -38 -248 -112 -724 -307 -849 -347
-30 -10 -127 -43 -214 -74 -347 -122 -968 -311 -1416 -431 -47 -13 -125 -34
-175 -48 -49 -14 -128 -35 -175 -47 -47 -13 -105 -29 -130 -38 -66 -21 -254
-44 -417 -49 -107 -3 -179 1 -294 16 -269 37 -381 83 -431 180 -63 120 -25
265 130 497 62 92 248 320 298 364 15 14 -10 -18 -55 -70 -143 -163 -267 -341
-327 -467 -25 -54 -35 -92 -40 -150 -6 -77 -6 -79 27 -128 65 -95 162 -125
414 -125 264 0 497 28 905 110 269 54 645 146 955 235 327 93 479 144 438 145
-16 0 -147 220 -272 457 -56 105 -198 388 -315 630 -289 595 -368 736 -555
1001 -28 39 -49 72 -47 72 3 0 32 -39 66 -86z m13430 -148 c0 -2 -8 -10 -17
-17 -16 -13 -17 -12 -4 4 13 16 21 21 21 13z m-95 -104 l-39 -37 35 41 c19 22
36 39 39 37 2 -2 -13 -20 -35 -41z m-115 -135 c0 -2 -12 -14 -27 -28 l-28 -24
24 28 c23 25 31 32 31 24z m-167 -181 c-14 -25 -309 -339 -573 -611 -138 -143
-320 -333 -581 -609 -116 -123 -311 -338 -367 -405 -26 -31 -86 -101 -133
-156 -156 -181 -415 -523 -519 -684 -38 -58 -63 -84 -39 -40 13 26 173 261
206 305 12 17 23 36 23 41 0 6 7 13 15 16 8 4 23 23 34 44 19 38 198 265 308
392 262 302 370 417 1054 1121 387 399 510 527 544 568 28 33 42 42 28 18z
m-14013 -819 c0 -1 -48 -50 -107 -107 l-108 -105 105 108 c97 99 110 112 110
104z m10237 -89 c-3 -7 -5 -2 -5 12 0 14 2 19 5 13 2 -7 2 -19 0 -25z m-787
-1034 c0 -8 -4 -14 -9 -14 -11 0 -22 26 -14 34 9 9 23 -3 23 -20z m-8952 -341
c41 -4 59 -9 50 -14 -7 -5 13 -6 47 -3 33 3 78 1 100 -5 22 -6 61 -16 88 -23
26 -7 47 -16 47 -20 0 -5 16 -8 35 -8 22 0 38 -6 41 -15 4 -8 12 -15 19 -15 8
0 20 -6 27 -13 7 -8 27 -19 43 -25 17 -6 24 -11 18 -11 -24 -2 -13 -19 17 -30
20 -7 34 -21 41 -41 6 -16 14 -28 18 -26 4 3 16 -7 27 -21 10 -15 24 -32 31
-38 7 -7 9 -15 6 -18 -9 -10 7 -58 17 -52 12 8 18 -23 23 -116 2 -42 7 -82 11
-88 4 -6 0 -14 -8 -17 -13 -5 -16 -24 -16 -99 0 -52 -4 -97 -10 -100 -6 -4 -7
1 -4 12 5 14 4 15 -4 4 -6 -8 -8 -20 -5 -28 3 -7 0 -13 -6 -13 -6 0 -11 -15
-11 -33 0 -19 -8 -42 -19 -53 -10 -11 -22 -30 -25 -42 -4 -12 -12 -22 -17 -22
-5 0 -9 -7 -9 -15 0 -26 -23 -66 -31 -54 -4 6 2 31 13 56 11 24 17 52 15 61
-3 12 -5 10 -6 -7 -1 -16 -5 -21 -16 -17 -17 6 -40 -38 -29 -56 4 -6 2 -8 -3
-5 -6 4 -16 0 -23 -8 -9 -10 -9 -15 -1 -15 6 0 11 -7 11 -16 0 -8 4 -13 9 -10
5 3 11 0 14 -7 3 -8 -1 -14 -9 -14 -7 0 -15 6 -18 14 -8 19 -24 16 -31 -7 -3
-11 -12 -20 -18 -20 -13 0 -35 -26 -70 -80 -20 -31 -33 -38 -102 -57 -84 -22
-149 -30 -110 -13 16 7 11 9 -20 8 -26 -1 -65 10 -109 30 -38 18 -73 32 -78
32 -5 0 -24 11 -42 25 -18 14 -41 25 -50 25 -9 0 -15 4 -12 8 5 8 -5 19 -67
77 -28 25 -28 25 -22 3 4 -13 11 -27 16 -33 5 -5 9 -15 9 -22 0 -8 9 -33 20
-55 28 -58 26 -76 -5 -70 -14 2 -22 8 -19 13 3 5 -2 12 -10 15 -9 3 -16 11
-16 18 -1 16 -50 70 -57 62 -4 -3 1 -23 11 -44 32 -67 0 -19 -48 73 -26 49
-44 95 -41 103 2 7 1 11 -4 8 -8 -5 -130 239 -209 419 -55 124 -134 287 -177
365 -22 41 -28 56 -14 40 12 -14 26 -24 31 -22 5 1 7 -1 4 -6 -3 -5 1 -9 9 -9
8 0 11 5 8 10 -4 7 1 8 13 4 18 -7 18 -6 2 7 -19 14 -25 32 -8 21 6 -3 10 0
10 7 0 16 53 -45 86 -99 27 -44 54 -63 54 -37 0 30 61 104 120 144 19 13 39
30 43 37 4 7 15 13 23 13 8 0 32 9 52 19 21 11 56 23 77 26 22 4 45 11 51 16
17 14 87 28 114 23 14 -2 53 -7 88 -11z m-800 -108 c-3 -3 -13 7 -23 22 l-17
28 23 -22 c12 -12 20 -25 17 -28z m5857 -154 c590 -97 1024 -320 1442 -742
386 -391 669 -874 1017 -1736 158 -391 263 -649 321 -788 35 -82 79 -188 98
-235 99 -241 243 -585 403 -964 13 -32 23 -60 21 -63 -4 -3 -38 68 -142 297
-29 63 -69 151 -90 195 -56 120 -168 366 -245 540 -33 74 -138 317 -175 405
-15 36 -33 79 -41 95 -7 17 -26 62 -42 100 -326 784 -364 870 -493 1128 -352
704 -763 1168 -1289 1454 -512 280 -1181 366 -1919 247 -523 -84 -1126 -278
-1707 -549 -241 -113 -620 -308 -804 -415 -36 -21 -81 -47 -100 -58 -111 -63
-262 -154 -385 -233 -77 -49 -147 -92 -155 -96 -8 -4 -100 -63 -203 -132 -104
-69 -213 -142 -243 -161 -142 -92 -347 -236 -510 -359 -32 -25 -111 -83 -174
-130 -63 -47 -117 -88 -120 -91 -12 -13 -110 -90 -160 -127 -30 -22 -64 -49
-75 -59 -11 -11 -43 -37 -70 -59 -28 -21 -52 -42 -55 -46 -3 -3 -27 -23 -55
-44 -73 -55 -241 -210 -389 -359 -585 -589 -793 -1114 -660 -1661 4 -16 4 -27
1 -24 -13 11 -46 167 -57 269 -19 169 7 381 67 559 67 200 220 460 399 678
384 467 1119 1063 2064 1673 1386 896 2579 1392 3600 1499 58 6 121 13 140 15
19 2 175 3 345 1 259 -2 331 -6 440 -24z m6204 -43 c-17 -29 -36 -57 -41 -63
-11 -10 37 80 55 103 21 28 15 9 -14 -40z m411 -62 c0 -2 -8 -10 -17 -17 -16
-13 -17 -12 -4 4 13 16 21 21 21 13z m-6838 -160 c286 -15 599 -94 830 -212
426 -218 812 -611 1110 -1129 198 -345 332 -660 638 -1490 28 -77 68 -185 89
-240 22 -55 64 -166 95 -248 57 -147 227 -562 292 -710 19 -43 34 -81 33 -85
-1 -17 -192 392 -319 683 -29 66 -58 134 -66 150 -31 70 -214 537 -299 760
-31 83 -75 195 -97 250 -22 55 -59 147 -83 205 -78 196 -219 489 -323 670
-171 299 -321 500 -532 711 -221 222 -363 324 -615 445 -189 90 -371 144 -615
181 -142 21 -530 24 -695 5 -596 -71 -1205 -256 -1944 -592 -346 -157 -920
-461 -1226 -650 -725 -447 -1076 -711 -1471 -1105 -400 -399 -613 -715 -735
-1090 -93 -283 -105 -590 -34 -869 22 -85 12 -79 -13 7 -40 137 -53 221 -59
372 -11 291 52 554 204 855 61 121 59 126 -11 37 l-22 -27 2 27 c1 20 6 27 18
25 9 -2 16 1 17 5 0 4 2 18 5 31 2 14 0 21 -6 17 -21 -13 -30 6 -14 30 9 13
13 29 9 35 -3 5 1 13 10 16 9 4 14 13 10 22 -3 8 -1 20 5 27 6 7 10 17 9 21
-4 25 3 45 27 73 14 17 22 36 18 42 -4 8 -3 9 4 5 7 -4 12 -1 12 6 0 17 55
100 62 93 2 -3 5 1 5 8 0 16 72 117 84 117 5 0 9 6 9 13 1 17 76 97 85 89 4
-4 5 -2 3 4 -2 7 8 23 22 36 14 14 39 41 57 61 18 21 36 37 40 37 13 0 42 37
36 44 -4 3 0 6 7 6 7 0 33 21 58 48 25 26 42 40 38 32 -4 -8 3 -3 16 13 13 15
28 27 33 27 6 0 47 35 93 78 45 43 84 77 86 75 2 -2 9 4 17 14 12 14 12 16 0
8 -10 -5 -12 -4 -7 3 4 7 12 12 17 12 13 0 103 59 199 131 41 31 107 77 145
102 39 26 75 50 80 54 80 61 137 103 170 125 321 210 419 269 545 332 102 51
187 99 202 114 7 7 17 12 23 12 5 0 97 45 204 100 107 55 198 100 203 100 4 0
8 4 8 9 0 5 6 8 13 8 24 -1 77 16 77 24 0 5 7 9 15 9 9 0 27 7 40 16 14 9 25
12 25 8 0 -5 4 -4 8 1 11 16 72 45 93 45 10 0 19 4 19 9 0 5 18 16 40 25 47
19 53 20 45 6 -4 -7 2 -7 18 -1 14 6 27 7 30 4 7 -7 67 19 67 29 0 5 8 8 18 8
9 0 26 7 36 15 10 8 23 12 27 9 5 -3 18 0 29 6 11 6 20 8 20 6 0 -3 -22 -17
-50 -31 -27 -14 -50 -28 -50 -30 0 -3 12 1 28 9 22 11 128 59 357 162 82 37
408 162 549 211 384 134 745 222 1096 268 117 16 448 34 515 28 17 -1 78 -5
137 -7z m-2422 -546 c-8 -5 -19 -10 -25 -10 -5 0 -3 5 5 10 8 5 20 10 25 10 6
0 3 -5 -5 -10z m-115 -50 c-3 -5 -14 -10 -23 -9 -14 0 -13 2 3 9 27 11 27 11
20 0z m-2538 -100 c6 -16 10 -30 7 -30 -2 0 -10 14 -19 30 -9 17 -12 30 -7 30
4 0 13 -13 19 -30z m9144 -617 c-12 -20 -14 -14 -5 12 4 9 9 14 11 11 3 -2 0
-13 -6 -23z m-2047 -433 c5 -17 4 -20 -2 -10 -5 8 -13 26 -16 40 -5 17 -4 20
2 10 5 -8 13 -26 16 -40z m25 -75 c0 -5 -4 -3 -9 5 -5 8 -9 22 -9 30 0 16 17
-16 18 -35z m36 -140 c3 -22 -4 -6 -14 35 -11 41 -20 80 -20 85 1 19 29 -80
34 -120z m12 -82 c-3 -10 -5 -4 -5 12 0 17 2 24 5 18 2 -7 2 -21 0 -30z m220
-760 c16 -16 37 -50 47 -78 10 -27 25 -60 33 -73 13 -21 12 -25 -8 -43 l-23
-20 22 -6 c13 -3 22 -13 22 -24 0 -11 5 -19 10 -19 6 0 10 -11 10 -24 0 -13 3
-26 8 -28 4 -1 17 -22 30 -44 25 -47 29 -73 10 -56 -10 8 -12 -1 -9 -41 4 -49
5 -50 10 -17 l6 35 12 -40 c6 -22 9 -55 6 -72 -5 -31 -8 -33 -44 -33 -30 0
-47 7 -71 31 -24 23 -29 32 -19 38 10 6 10 13 2 28 -12 23 -48 36 -53 21 -2
-6 -17 1 -32 16 -16 14 -32 26 -37 26 -4 0 -11 21 -15 48 -3 26 -11 52 -15 58
-6 7 -5 22 1 38 13 36 13 43 -3 22 -10 -14 -11 -1 -2 75 6 57 15 94 23 97 6 2
12 12 12 22 0 11 10 20 25 24 14 4 25 10 25 15 0 4 -11 6 -25 3 -18 -3 -25 0
-25 12 0 9 7 16 15 16 8 0 15 5 15 10 0 16 7 12 37 -17z m-2492 -178 c89 -18
187 -68 236 -120 21 -22 67 -71 103 -109 36 -38 66 -74 66 -80 0 -7 9 -18 20
-26 11 -8 20 -19 20 -25 0 -6 14 -27 31 -48 17 -20 28 -41 24 -47 -4 -6 1 -7
11 -3 14 5 16 2 12 -15 -4 -12 -1 -25 4 -29 7 -4 8 -1 4 8 -4 8 0 5 8 -6 9
-11 14 -25 11 -33 -2 -7 -1 -11 4 -8 5 3 14 -1 21 -9 9 -11 9 -15 1 -15 -11 0
4 -38 20 -50 7 -5 82 -154 99 -195 23 -55 31 -100 25 -138 -3 -23 -7 -56 -8
-74 -1 -17 -5 -29 -8 -27 -4 2 -15 -6 -25 -18 -12 -14 -14 -19 -4 -13 8 4 4
-4 -9 -18 -14 -15 -30 -27 -37 -27 -6 0 -18 -7 -25 -17 -14 -16 -125 -91 -184
-123 -165 -91 -203 -115 -291 -180 -54 -41 -220 -188 -184 -163 173 116 268
163 438 216 203 65 331 82 617 81 138 0 270 -5 295 -11 33 -7 -10 -9 -165 -5
-304 7 -517 -19 -730 -90 -527 -176 -848 -564 -895 -1085 -9 -95 -9 -94 -5 42
3 111 9 160 30 234 26 98 92 255 127 304 23 32 17 36 -11 6 -21 -23 -29 -16
-33 30 -2 23 -7 31 -21 31 -10 0 -15 5 -12 10 9 15 -24 25 -38 11 -15 -15 -27
-14 -21 3 5 12 -16 28 -41 30 -5 1 -10 11 -9 22 0 16 -5 20 -25 17 -25 -4 -26
-4 -6 12 20 16 20 16 1 31 -11 8 -28 14 -38 14 -10 0 -18 5 -18 12 0 6 -16 26
-36 44 -20 18 -33 37 -30 42 3 5 -4 15 -15 22 -10 8 -19 24 -20 35 0 20 0 20
-9 0 -5 -11 -9 -15 -9 -10 -1 6 -4 21 -7 35 -5 21 -4 22 6 10 10 -13 11 -12 6
3 -3 10 -6 28 -7 40 -1 21 -1 20 -8 -2 -5 -20 -10 -9 -24 50 -9 41 -20 108
-23 149 -3 41 -10 118 -14 170 -8 86 0 261 16 373 23 157 112 378 188 466 88
102 200 201 228 201 9 0 24 7 32 16 18 18 53 29 146 49 86 18 112 18 195 0z
m2520 -334 c-6 -5 -25 10 -25 20 0 5 6 4 14 -3 8 -7 12 -15 11 -17z m2774
-174 c0 -21 -1 -21 -9 -2 -12 28 -12 37 0 30 6 -3 10 -16 9 -28z m-2015 -653
c3 -8 2 -12 -4 -9 -6 3 -10 10 -10 16 0 14 7 11 14 -7z m-1866 -181 c-10 -2
-28 -2 -40 0 -13 2 -5 4 17 4 22 1 32 -1 23 -4z m49 -9 c-3 -3 -12 -4 -19 -1
-8 3 -5 6 6 6 11 1 17 -2 13 -5z m-8050 -106 c-3 -8 -6 -5 -6 6 -1 11 2 17 5
13 3 -3 4 -12 1 -19z m23 -53 c0 -5 -5 -3 -10 5 -5 8 -10 20 -10 25 0 6 5 3
10 -5 5 -8 10 -19 10 -25z m5864 -115 c-6 -5 -24 21 -24 34 0 6 6 1 14 -10 8
-10 12 -21 10 -24z m6143 -72 c-3 -8 -6 -5 -6 6 -1 11 2 17 5 13 3 -3 4 -12 1
-19z m10 -40 c-3 -8 -6 -5 -6 6 -1 11 2 17 5 13 3 -3 4 -12 1 -19z m-4099
-313 c-444 -54 -751 -211 -919 -468 -46 -70 -96 -189 -115 -271 l-14 -61 6 55
c7 77 58 223 104 300 49 83 121 180 133 180 5 0 27 16 48 35 22 19 46 35 54
35 8 0 15 5 15 10 0 6 6 10 14 10 8 0 16 4 18 8 4 11 84 48 177 82 154 56 371
98 511 98 l75 0 -107 -13z m-1051 -867 c-2 -13 -4 -3 -4 22 0 25 2 35 4 23 2
-13 2 -33 0 -45z"/>
<path d="M14615 16703 c-255 -21 -535 -62 -735 -109 -541 -124 -967 -321
-1333 -613 -310 -247 -469 -486 -455 -683 15 -200 203 -392 521 -530 203 -88
430 -141 782 -183 343 -40 384 -48 492 -95 l51 -22 94 54 c51 30 154 89 228
132 74 43 139 82 144 86 10 10 -88 155 -180 265 -92 111 -258 287 -411 435
-352 342 -388 386 -388 482 0 40 5 52 34 82 84 87 307 162 704 236 82 15 149
30 151 32 38 55 184 232 289 348 63 70 78 92 60 88 -5 -1 -26 -3 -48 -5z"/>
<path d="M14038 16673 c6 -2 18 -2 25 0 6 3 1 5 -13 5 -14 0 -19 -2 -12 -5z"/>
<path d="M22116 16625 c6 -14 34 -35 48 -35 3 0 -5 11 -18 25 -26 28 -38 32
-30 10z"/>
<path d="M17472 11175 c0 -16 2 -22 5 -12 2 9 2 23 0 30 -3 6 -5 -1 -5 -18z"/>
<path d="M17481 11104 c0 -11 3 -14 6 -6 3 7 2 16 -1 19 -3 4 -6 -2 -5 -13z"/>
<path d="M21239 12674 c-5 -15 -8 -29 -5 -31 2 -2 8 10 14 26 13 38 5 41 -9 5z"/>
<path d="M16530 9570 c0 -5 5 -10 11 -10 5 0 7 5 4 10 -3 6 -8 10 -11 10 -2 0
-4 -4 -4 -10z"/>
<path d="M6826 9227 c3 -10 9 -15 12 -12 3 3 0 11 -7 18 -10 9 -11 8 -5 -6z"/>
<path d="M8221 9008 c0 -18 4 -55 9 -83 7 -47 7 -45 9 33 0 49 -3 82 -9 82 -5
0 -10 -15 -9 -32z"/>
<path d="M7240 8350 c6 -11 15 -18 20 -15 13 8 0 35 -16 35 -12 0 -12 -4 -4
-20z"/>
<path d="M9650 8210 c-19 -11 -30 -19 -25 -19 6 0 26 8 45 19 19 11 31 19 25
19 -5 0 -26 -8 -45 -19z"/>
<path d="M14633 5960 c0 -25 2 -35 4 -22 2 12 2 32 0 45 -2 12 -4 2 -4 -23z"/>
<path d="M14665 5700 c-4 -7 -1 -16 6 -21 17 -10 26 8 11 23 -6 6 -12 6 -17
-2z"/>
</g>
</svg>
