<?xml version="1.0" encoding="UTF-8"?>
<!DOCTYPE svg PUBLIC "-//W3C//DTD SVG 1.1//EN" "http://www.w3.org/Graphics/SVG/1.1/DTD/svg11.dtd">
<svg xmlns="http://www.w3.org/2000/svg" version="1.1" width="512px" height="512px" style="shape-rendering:geometricPrecision; text-rendering:geometricPrecision; image-rendering:optimizeQuality; fill-rule:evenodd; clip-rule:evenodd" xmlns:xlink="http://www.w3.org/1999/xlink">
<g><path style="opacity:0.967" fill="#000000" d="M 300.5,-0.5 C 304.5,-0.5 308.5,-0.5 312.5,-0.5C 418.312,29.8169 483.145,98.8169 507,206.5C 509.494,221.223 510.994,235.89 511.5,250.5C 511.5,252.5 511.5,254.5 511.5,256.5C 507.936,343.137 471.603,412.304 402.5,464C 363.623,491.015 320.623,506.848 273.5,511.5C 258.5,511.5 243.5,511.5 228.5,511.5C 141.366,500.868 74.5322,458.535 28,384.5C 15.4101,363.004 5.91014,340.337 -0.5,316.5C -0.5,315.833 -0.5,315.167 -0.5,314.5C 1.66111,301.523 9.32778,296.023 22.5,298C 32.4792,304.636 42.4792,311.303 52.5,318C 107.298,346.877 163.632,350.21 221.5,328C 295.483,293.121 334.817,234.621 339.5,152.5C 339.369,116.639 330.202,83.3061 312,52.5C 305.389,42.2235 298.389,32.2235 291,22.5C 287.712,11.97 290.879,4.30337 300.5,-0.5 Z M 53.5,356.5 C 123.975,385.906 192.975,382.739 260.5,347C 332.918,302.545 370.918,237.545 374.5,152C 374.282,130.476 371.449,109.31 366,88.5C 361.887,75.1493 357.22,62.1493 352,49.5C 439.224,99.2582 479.891,174.592 474,275.5C 463.51,352.041 425.01,409.541 358.5,448C 287.337,484.308 216.004,484.641 144.5,449C 104.879,427.213 74.5453,396.379 53.5,356.5 Z"/></g>
</svg>
