<?xml version="1.0" encoding="UTF-8"?>
<!DOCTYPE svg PUBLIC "-//W3C//DTD SVG 1.1//EN" "http://www.w3.org/Graphics/SVG/1.1/DTD/svg11.dtd">
<svg xmlns="http://www.w3.org/2000/svg" version="1.1" width="512px" height="512px" style="shape-rendering:geometricPrecision; text-rendering:geometricPrecision; image-rendering:optimizeQuality; fill-rule:evenodd; clip-rule:evenodd" xmlns:xlink="http://www.w3.org/1999/xlink">
<g><path style="opacity:0.966" fill="#000000" d="M 251.5,41.5 C 264.91,40.7662 273.41,46.7662 277,59.5C 277.667,119.5 277.667,179.5 277,239.5C 272.416,254.212 262.583,259.712 247.5,256C 240.439,252.605 235.939,247.105 234,239.5C 233.333,179.5 233.333,119.5 234,59.5C 236.014,49.654 241.847,43.654 251.5,41.5 Z"/></g>
<g><path style="opacity:0.971" fill="#000000" d="M 375.5,84.5 C 383.107,83.8991 389.773,86.0658 395.5,91C 455.773,147.15 478.939,215.983 465,297.5C 447.055,374.774 401.221,427.941 327.5,457C 250.014,481.589 179.68,468.589 116.5,418C 54.1186,360.186 30.9519,289.353 47,205.5C 57.9471,160.087 80.7805,121.92 115.5,91C 127.063,83.0739 137.896,83.9072 148,93.5C 153.512,101.957 153.845,110.623 149,119.5C 87.8062,175.61 71.1395,242.943 99,321.5C 130.193,387.497 182.36,422.163 255.5,425.5C 319.373,423.163 368.206,395.163 402,341.5C 433.919,281.805 433.252,222.472 400,163.5C 390,147.542 377.667,133.542 363,121.5C 355.667,111.5 355.667,101.5 363,91.5C 366.739,88.2185 370.905,85.8852 375.5,84.5 Z"/></g>
</svg>
