<?xml version="1.0" encoding="UTF-8"?>
<!DOCTYPE svg PUBLIC "-//W3C//DTD SVG 1.1//EN" "http://www.w3.org/Graphics/SVG/1.1/DTD/svg11.dtd">
<svg xmlns="http://www.w3.org/2000/svg" version="1.1" width="1600px" height="1600px" style="shape-rendering:geometricPrecision; text-rendering:geometricPrecision; image-rendering:optimizeQuality; fill-rule:evenodd; clip-rule:evenodd" xmlns:xlink="http://www.w3.org/1999/xlink">
<g><path style="opacity:1" fill="#78909c" d="M 1362.5,266.5 C 1339.83,266.5 1317.17,266.5 1294.5,266.5C 964.833,266.5 635.167,266.5 305.5,266.5C 282.833,266.5 260.167,266.5 237.5,266.5C 220.131,265.292 209.297,256.292 205,239.5C 201.826,223.96 200.16,208.293 200,192.5C 203.083,179.084 211.25,170.584 224.5,167C 416.138,165.837 607.805,165.337 799.5,165.5C 991.195,165.337 1182.86,165.837 1374.5,167C 1393.48,173.773 1401.65,187.273 1399,207.5C 1397.33,218.167 1395.67,228.833 1394,239.5C 1389.84,255.825 1379.34,264.825 1362.5,266.5 Z"/></g>
<g><path style="opacity:0.992" fill="#bbddfa" d="M 237.5,266.5 C 260.167,266.5 282.833,266.5 305.5,266.5C 344.099,584.955 383.599,903.289 424,1221.5C 427.032,1247.48 429.865,1273.48 432.5,1299.5C 410.167,1299.5 387.833,1299.5 365.5,1299.5C 322.915,955.157 280.249,610.823 237.5,266.5 Z"/></g>
<g><path style="opacity:1" fill="#e1f0fc" d="M 305.5,266.5 C 635.167,266.5 964.833,266.5 1294.5,266.5C 1251.58,610.856 1208.58,955.19 1165.5,1299.5C 921.167,1299.5 676.833,1299.5 432.5,1299.5C 429.865,1273.48 427.032,1247.48 424,1221.5C 383.599,903.289 344.099,584.955 305.5,266.5 Z"/></g>
<g><path style="opacity:0.992" fill="#bbddfa" d="M 1294.5,266.5 C 1317.17,266.5 1339.83,266.5 1362.5,266.5C 1318.92,610.797 1275.59,955.13 1232.5,1299.5C 1210.17,1299.5 1187.83,1299.5 1165.5,1299.5C 1208.58,955.19 1251.58,610.856 1294.5,266.5 Z"/></g>
<g><path style="opacity:1" fill="#1665c0" d="M 733.5,566.5 C 753.866,575.359 769.366,589.692 780,609.5C 785.534,621.23 791.034,632.897 796.5,644.5C 777.264,678.642 757.264,712.309 736.5,745.5C 698.5,722.833 660.5,700.167 622.5,677.5C 639.415,648.668 656.582,620.001 674,591.5C 689.621,573.105 709.454,564.772 733.5,566.5 Z"/></g>
<g><path style="opacity:1" fill="#1e88e4" d="M 733.5,566.5 C 785.501,566.333 837.501,566.5 889.5,567C 897.3,569.133 903.8,573.299 909,579.5C 920.247,599.663 931.747,619.663 943.5,639.5C 944.365,640.583 945.365,640.749 946.5,640C 955.695,634.408 965.028,629.408 974.5,625C 960.382,657.876 946.382,690.709 932.5,723.5C 888.663,723.832 844.997,723.499 801.5,722.5C 811.197,717.934 820.197,712.434 828.5,706C 818.194,685.218 807.527,664.718 796.5,644.5C 791.034,632.897 785.534,621.23 780,609.5C 769.366,589.692 753.866,575.359 733.5,566.5 Z"/></g>
<g><path style="opacity:1" fill="#87c0f1" d="M 801.5,722.5 C 844.997,723.499 888.663,723.832 932.5,723.5C 888.335,724.665 844.002,724.831 799.5,724C 800.044,723.283 800.711,722.783 801.5,722.5 Z"/></g>
<g><path style="opacity:1" fill="#1665c0" d="M 1056.5,878.5 C 1043.52,888.559 1028.85,895.059 1012.5,898C 994.204,899.402 975.871,899.902 957.5,899.5C 938.814,867.97 919.481,836.804 899.5,806C 936.365,781.637 973.365,757.47 1010.5,733.5C 1011.48,733.977 1012.31,734.643 1013,735.5C 1027.08,759.998 1041.41,784.331 1056,808.5C 1069.78,831.828 1069.94,855.161 1056.5,878.5 Z"/></g>
<g><path style="opacity:1" fill="#1e88e4" d="M 651.5,899.5 C 639.634,915.604 629.467,932.937 621,951.5C 614.93,965.673 613.096,980.339 615.5,995.5C 589.108,952.396 562.941,909.063 537,865.5C 532.571,857.203 531.571,848.536 534,839.5C 547.381,815.902 560.881,792.402 574.5,769C 565.459,762.302 556.126,755.969 546.5,750C 586.504,749.167 626.504,749.333 666.5,750.5C 683.277,786.041 699.443,821.708 715,857.5C 707.167,852.333 699.333,847.167 691.5,842C 689.956,840.813 688.289,840.48 686.5,841C 674.433,860.307 662.766,879.807 651.5,899.5 Z"/></g>
<g><path style="opacity:1" fill="#1e88e4" d="M 957.5,899.5 C 975.871,899.902 994.204,899.402 1012.5,898C 1028.85,895.059 1043.52,888.559 1056.5,878.5C 1034.56,925.056 1012.06,971.39 989,1017.5C 983.601,1025.46 976.101,1030.29 966.5,1032C 938.502,1032.5 910.502,1032.67 882.5,1032.5C 882.667,1043.51 882.5,1054.51 882,1065.5C 862.7,1032.4 843.533,999.232 824.5,966C 843.281,932.937 862.448,900.103 882,867.5C 882.5,878.161 882.667,888.828 882.5,899.5C 907.5,899.5 932.5,899.5 957.5,899.5 Z"/></g>
<g><path style="opacity:1" fill="#1565c0" d="M 651.5,899.5 C 689.5,899.5 727.5,899.5 765.5,899.5C 765.5,943.833 765.5,988.167 765.5,1032.5C 733.5,1032.5 701.5,1032.5 669.5,1032.5C 644.926,1029.57 626.926,1017.23 615.5,995.5C 613.096,980.339 614.93,965.673 621,951.5C 629.467,932.937 639.634,915.604 651.5,899.5 Z"/></g>
<g><path style="opacity:1" fill="#86b0e0" d="M 765.5,899.5 C 766.499,943.997 766.832,988.664 766.5,1033.5C 733.996,1033.83 701.662,1033.5 669.5,1032.5C 701.5,1032.5 733.5,1032.5 765.5,1032.5C 765.5,988.167 765.5,943.833 765.5,899.5 Z"/></g>
<g><path style="opacity:1" fill="#78909c" d="M 365.5,1299.5 C 387.833,1299.5 410.167,1299.5 432.5,1299.5C 676.833,1299.5 921.167,1299.5 1165.5,1299.5C 1187.83,1299.5 1210.17,1299.5 1232.5,1299.5C 1232.67,1324.17 1232.5,1348.84 1232,1373.5C 1225.92,1408.24 1205.42,1428.08 1170.5,1433C 922.833,1433.67 675.167,1433.67 427.5,1433C 391.667,1427.83 371.167,1407.33 366,1371.5C 365.5,1347.5 365.333,1323.5 365.5,1299.5 Z"/></g>
</svg>
