<?xml version="1.0" encoding="UTF-8"?>
<!DOCTYPE svg PUBLIC "-//W3C//DTD SVG 1.1//EN" "http://www.w3.org/Graphics/SVG/1.1/DTD/svg11.dtd">
<svg xmlns="http://www.w3.org/2000/svg" version="1.1" width="512px" height="512px" style="shape-rendering:geometricPrecision; text-rendering:geometricPrecision; image-rendering:optimizeQuality; fill-rule:evenodd; clip-rule:evenodd" xmlns:xlink="http://www.w3.org/1999/xlink">
<g><path style="opacity:0.966" fill="#000000" d="M 137.5,-0.5 C 142.167,-0.5 146.833,-0.5 151.5,-0.5C 158.157,3.34799 161.823,9.18133 162.5,17C 158.88,32.9766 155.047,48.8099 151,64.5C 232.328,27.2504 310.161,33.4171 384.5,83C 462.69,143.185 494.523,222.351 480,320.5C 460.201,408.628 408.034,468.461 323.5,500C 306.069,505.584 288.403,509.417 270.5,511.5C 258.167,511.5 245.833,511.5 233.5,511.5C 144.144,499.588 79.6442,453.255 40,372.5C 21.8777,330.856 15.8777,287.522 22,242.5C 27.8786,228.316 37.7119,224.816 51.5,232C 55.989,235.979 58.3223,240.979 58.5,247C 50.0062,324.58 76.0062,387.58 136.5,436C 201.059,480.445 269.393,487.112 341.5,456C 395.477,428.583 430.977,385.75 448,327.5C 465.631,248.489 445.131,181.322 386.5,126C 331.317,80.6932 268.984,67.0266 199.5,85C 188.164,88.502 177.164,92.8354 166.5,98C 182.642,103.121 198.975,107.788 215.5,112C 225.354,116.883 228.854,124.716 226,135.5C 221.654,145.257 214.154,149.091 203.5,147C 174.833,139.333 146.167,131.667 117.5,124C 105.219,120.36 100.386,112.194 103,99.5C 110.894,68.2554 119.56,37.2554 129,6.5C 131.441,3.54644 134.275,1.21311 137.5,-0.5 Z"/></g>
</svg>
