<?xml version="1.0" encoding="UTF-8"?>
<!DOCTYPE svg PUBLIC "-//W3C//DTD SVG 1.1//EN" "http://www.w3.org/Graphics/SVG/1.1/DTD/svg11.dtd">
<svg xmlns="http://www.w3.org/2000/svg" version="1.1" width="353px" height="353px" style="shape-rendering:geometricPrecision; text-rendering:geometricPrecision; image-rendering:optimizeQuality; fill-rule:evenodd; clip-rule:evenodd" xmlns:xlink="http://www.w3.org/1999/xlink">
<g><path style="opacity:0.004" fill="#c7ced4" d="M 109.5,30.5 C 110.251,29.4265 111.251,29.2599 112.5,30C 111.552,30.4828 110.552,30.6495 109.5,30.5 Z"/></g>
<g><path style="opacity:0.01" fill="#c5cdd6" d="M 123.5,35.5 C 123.5,35.1667 123.5,34.8333 123.5,34.5C 128.833,34.8333 128.833,35.1667 123.5,35.5 Z"/></g>
<g><path style="opacity:0.004" fill="#c9cfd6" d="M 128.5,36.5 C 129.251,35.4265 130.251,35.2599 131.5,36C 130.552,36.4828 129.552,36.6495 128.5,36.5 Z"/></g>
<g><path style="opacity:0.004" fill="#c4cfd2" d="M 132.5,36.5 C 133.833,37.1667 133.833,37.1667 132.5,36.5 Z"/></g>
<g><path style="opacity:0.996" fill="#33414a" d="M 102.5,39.5 C 107.641,40.0241 112.641,41.1907 117.5,43C 114.439,44.2359 111.439,44.7359 108.5,44.5C 108.5,89.1667 108.5,133.833 108.5,178.5C 108.167,178.5 107.833,178.5 107.5,178.5C 106.91,177.234 106.41,175.901 106,174.5C 104.984,175.634 104.317,175.301 104,173.5C 104.517,131.802 104.35,90.302 103.5,49C 105.716,45.7281 105.383,42.5615 102.5,39.5 Z"/></g>
<g><path style="opacity:0.004" fill="#323c3b" d="M 99.5,35.5 C 100.665,84.665 100.832,133.998 100,183.5C 99.5,134.168 99.3333,84.8345 99.5,35.5 Z"/></g>
<g><path style="opacity:0.647" fill="#313b3a" d="M 101.5,39.5 C 101.833,39.5 102.167,39.5 102.5,39.5C 105.383,42.5615 105.716,45.7281 103.5,49C 104.35,90.302 104.517,131.802 104,173.5C 104.317,175.301 104.984,175.634 106,174.5C 106.41,175.901 106.91,177.234 107.5,178.5C 105.771,179.117 104.271,180.117 103,181.5C 102.617,180.944 102.117,180.611 101.5,180.5C 101.5,133.5 101.5,86.5 101.5,39.5 Z"/></g>
<g><path style="opacity:0.004" fill="#c8d0d4" d="M 148.5,43.5 C 148.5,43.1667 148.5,42.8333 148.5,42.5C 153.833,42.8333 153.833,43.1667 148.5,43.5 Z"/></g>
<g><path style="opacity:0.004" fill="#c7ced5" d="M 169.5,50.5 C 169.5,50.1667 169.5,49.8333 169.5,49.5C 174.833,49.8333 174.833,50.1667 169.5,50.5 Z"/></g>
<g><path style="opacity:0.004" fill="#c8d1d7" d="M 174.5,50.5 C 175.833,51.1667 175.833,51.1667 174.5,50.5 Z"/></g>
<g><path style="opacity:1" fill="#4cb9fd" d="M 119.5,48.5 C 126.291,50.3215 132.958,52.3215 139.5,54.5C 140.574,55.8846 141.907,57.0513 143.5,58C 148.493,59.2772 153.493,60.4438 158.5,61.5C 170.437,64.1434 181.77,68.1434 192.5,73.5C 187.969,76.1669 186.802,79.8336 189,84.5C 190.775,81.9557 192.608,81.9557 194.5,84.5C 193.833,85.1667 193.167,85.8333 192.5,86.5C 194.113,87.4274 195.779,88.2607 197.5,89C 196.833,89.6667 196.167,90.3333 195.5,91C 197.915,92.4737 197.915,94.1404 195.5,96C 198.186,98.5122 199.186,101.679 198.5,105.5C 200.167,105.5 201.833,105.5 203.5,105.5C 203.666,109.514 203.499,113.514 203,117.5C 201.658,116.098 200.824,116.431 200.5,118.5C 200.667,119.167 200.833,119.833 201,120.5C 201.308,119.692 201.808,119.025 202.5,118.5C 203.354,119.948 204.354,121.281 205.5,122.5C 204.975,123.192 204.308,123.692 203.5,124C 205.333,124.5 206.5,125.667 207,127.5C 207.893,126.289 208.726,126.289 209.5,127.5C 205.864,129.207 205.864,130.374 209.5,131C 209.167,131.333 208.833,131.667 208.5,132C 209.912,133.413 210.912,135.08 211.5,137C 210.622,138.8 209.955,140.633 209.5,142.5C 210.552,142.351 211.552,142.517 212.5,143C 209.332,146.724 205.332,148.891 200.5,149.5C 200.5,150.5 200.5,151.5 200.5,152.5C 197.937,153.088 195.604,154.088 193.5,155.5C 188.24,159.796 182.24,162.463 175.5,163.5C 175.719,164.675 175.386,165.675 174.5,166.5C 170.052,170.042 165.052,172.542 159.5,174C 157.907,174.949 156.574,176.115 155.5,177.5C 149.457,180.029 143.457,182.862 137.5,186C 136.207,186.49 134.873,186.657 133.5,186.5C 126.186,184.926 119.186,182.593 112.5,179.5C 111.828,178.733 110.995,178.066 110,177.5C 109.167,133.83 109.333,90.1629 110.5,46.5C 113.399,47.6416 116.399,48.3083 119.5,48.5 Z"/></g>
<g><path style="opacity:1" fill="#4f99c9" d="M 139.5,54.5 C 146.087,56.3874 152.42,58.7208 158.5,61.5C 153.493,60.4438 148.493,59.2772 143.5,58C 141.907,57.0513 140.574,55.8846 139.5,54.5 Z"/></g>
<g><path style="opacity:1" fill="#3e4850" d="M 101.5,36.5 C 117.008,41.5656 132.341,47.0656 147.5,53C 164.336,57.5186 181.003,62.5186 197.5,68C 207.286,71.4199 216.953,75.0865 226.5,79C 257.91,89.0622 289.243,99.2289 320.5,109.5C 322.488,158.616 323.155,207.949 322.5,257.5C 321.833,257.5 321.167,257.5 320.5,257.5C 319.761,257.631 319.094,257.464 318.5,257C 319.828,233.049 320.495,208.882 320.5,184.5C 320.333,160.5 320.167,136.5 320,112.5C 317.754,112.221 315.254,111.887 312.5,111.5C 304.627,108.765 296.627,106.432 288.5,104.5C 284.243,103.017 279.91,101.684 275.5,100.5C 267.919,96.7458 259.919,93.7458 251.5,91.5C 246.329,89.694 240.996,88.3607 235.5,87.5C 223.384,82.8705 211.051,78.3705 198.5,74C 196.527,73.5045 194.527,73.3379 192.5,73.5C 181.77,68.1434 170.437,64.1434 158.5,61.5C 152.42,58.7208 146.087,56.3874 139.5,54.5C 132.958,52.3215 126.291,50.3215 119.5,48.5C 115.926,47.0193 112.26,45.686 108.5,44.5C 111.439,44.7359 114.439,44.2359 117.5,43C 112.641,41.1907 107.641,40.0241 102.5,39.5C 102.167,39.5 101.833,39.5 101.5,39.5C 101.5,38.5 101.5,37.5 101.5,36.5 Z"/></g>
<g><path style="opacity:0.72" fill="#c4ccd2" d="M 123.5,34.5 C 118.167,34.8333 118.167,35.1667 123.5,35.5C 131.69,38.3644 140.023,40.6977 148.5,42.5C 143.167,42.8333 143.167,43.1667 148.5,43.5C 155.395,45.8174 162.395,47.8174 169.5,49.5C 164.167,49.8333 164.167,50.1667 169.5,50.5C 173.52,53.1688 177.853,54.1688 182.5,53.5C 186.172,54.6701 189.838,55.8368 193.5,57C 192.5,57.3333 191.5,57.6667 190.5,58C 193.528,59.9588 196.695,60.4588 200,59.5C 201.762,59.9444 201.595,60.4444 199.5,61C 201.035,61.4962 202.535,61.3295 204,60.5C 205.762,60.9444 205.595,61.4444 203.5,62C 205.035,62.4962 206.535,62.3295 208,61.5C 208.5,61.6667 209,61.8333 209.5,62C 206.972,62.9978 206.972,63.8311 209.5,64.5C 215.237,67.1011 221.237,68.7677 227.5,69.5C 227.611,70.1174 227.944,70.6174 228.5,71C 233.791,72.2152 239.124,73.2152 244.5,74C 243.167,74.3333 241.833,74.6667 240.5,75C 243.117,75.8215 245.784,76.3215 248.5,76.5C 253.636,78.8004 258.969,80.467 264.5,81.5C 260.5,81.8333 260.5,82.1667 264.5,82.5C 272.72,85.2359 281.053,87.5693 289.5,89.5C 284.167,89.8333 284.167,90.1667 289.5,90.5C 294.003,92.9741 299.003,94.1408 304.5,94C 306.246,94.4709 307.913,95.1376 309.5,96C 305.774,97.0432 306.107,97.5432 310.5,97.5C 313.769,100.09 317.435,100.923 321.5,100C 319.405,100.556 319.238,101.056 321,101.5C 323.835,100.539 326.668,100.706 329.5,102C 328.5,102.333 327.5,102.667 326.5,103C 328.596,103.737 330.263,104.903 331.5,106.5C 328.085,108.271 324.418,109.271 320.5,109.5C 289.243,99.2289 257.91,89.0622 226.5,79C 216.953,75.0865 207.286,71.4199 197.5,68C 181.003,62.5186 164.336,57.5186 147.5,53C 132.341,47.0656 117.008,41.5656 101.5,36.5C 101.5,35.5 101.5,34.5 101.5,33.5C 109.049,31.9471 116.382,32.2804 123.5,34.5 Z"/></g>
<g><path style="opacity:0.004" fill="#c9d2d9" d="M 227.5,69.5 C 228.251,68.4265 229.251,68.2599 230.5,69C 229.552,69.4828 228.552,69.6495 227.5,69.5 Z"/></g>
<g><path style="opacity:1" fill="#41b5fc" d="M 192.5,73.5 C 194.527,73.3379 196.527,73.5045 198.5,74C 211.051,78.3705 223.384,82.8705 235.5,87.5C 230.485,86.4871 225.485,86.3204 220.5,87C 219.655,85.4419 220.321,84.4419 222.5,84C 220.421,83.1923 218.421,83.359 216.5,84.5C 217.854,86.4622 217.187,87.4622 214.5,87.5C 212.956,87.2104 211.623,86.5437 210.5,85.5C 209.738,86.6283 209.071,87.7949 208.5,89C 209.274,91.405 209.774,93.905 210,96.5C 210.333,96.8333 210.667,97.1667 211,97.5C 211.333,96.1667 211.667,94.8333 212,93.5C 213.682,94.8646 213.849,96.3646 212.5,98C 213.759,98.9234 215.092,99.7568 216.5,100.5C 216.887,104.765 219.554,106.765 224.5,106.5C 224.699,109.011 225.032,111.178 225.5,113C 224.377,114.044 223.044,114.71 221.5,115C 222.787,116.41 223.954,117.91 225,119.5C 225.249,118.376 225.749,117.376 226.5,116.5C 226.833,117 227.167,117.5 227.5,118C 227.359,120.717 227.359,123.384 227.5,126C 223.918,128.017 223.585,130.517 226.5,133.5C 225.528,135.305 224.361,136.972 223,138.5C 220.312,140.364 217.812,142.364 215.5,144.5C 213.898,146.074 211.898,146.741 209.5,146.5C 209.67,147.822 209.337,148.989 208.5,150C 203.774,152.598 198.774,154.431 193.5,155.5C 195.604,154.088 197.937,153.088 200.5,152.5C 200.5,151.5 200.5,150.5 200.5,149.5C 205.332,148.891 209.332,146.724 212.5,143C 211.552,142.517 210.552,142.351 209.5,142.5C 209.955,140.633 210.622,138.8 211.5,137C 210.912,135.08 209.912,133.413 208.5,132C 208.833,131.667 209.167,131.333 209.5,131C 205.864,130.374 205.864,129.207 209.5,127.5C 208.726,126.289 207.893,126.289 207,127.5C 206.5,125.667 205.333,124.5 203.5,124C 204.308,123.692 204.975,123.192 205.5,122.5C 204.354,121.281 203.354,119.948 202.5,118.5C 201.808,119.025 201.308,119.692 201,120.5C 200.833,119.833 200.667,119.167 200.5,118.5C 200.824,116.431 201.658,116.098 203,117.5C 203.499,113.514 203.666,109.514 203.5,105.5C 201.833,105.5 200.167,105.5 198.5,105.5C 199.186,101.679 198.186,98.5122 195.5,96C 197.915,94.1404 197.915,92.4737 195.5,91C 196.167,90.3333 196.833,89.6667 197.5,89C 195.779,88.2607 194.113,87.4274 192.5,86.5C 193.167,85.8333 193.833,85.1667 194.5,84.5C 192.608,81.9557 190.775,81.9557 189,84.5C 186.802,79.8336 187.969,76.1669 192.5,73.5 Z"/></g>
<g><path style="opacity:0.004" fill="#c9d1d4" d="M 248.5,76.5 C 249.251,75.4265 250.251,75.2599 251.5,76C 250.552,76.4828 249.552,76.6495 248.5,76.5 Z"/></g>
<g><path style="opacity:0.006" fill="#c7d0d5" d="M 264.5,82.5 C 264.5,82.1667 264.5,81.8333 264.5,81.5C 269.833,81.8333 269.833,82.1667 264.5,82.5 Z"/></g>
<g><path style="opacity:0.004" fill="#c6cdd2" d="M 269.5,83.5 C 270.251,82.4265 271.251,82.2599 272.5,83C 271.552,83.4828 270.552,83.6495 269.5,83.5 Z"/></g>
<g><path style="opacity:1" fill="#4f99c7" d="M 108.5,44.5 C 112.26,45.686 115.926,47.0193 119.5,48.5C 116.399,48.3083 113.399,47.6416 110.5,46.5C 109.333,90.1629 109.167,133.83 110,177.5C 110.995,178.066 111.828,178.733 112.5,179.5C 110.901,179.768 109.568,179.434 108.5,178.5C 108.5,133.833 108.5,89.1667 108.5,44.5 Z"/></g>
<g><path style="opacity:1" fill="#51bcfe" d="M 137.5,60.5 C 139.67,61.768 141.837,61.768 144,60.5C 145.474,64.4216 146.641,68.4216 147.5,72.5C 149.326,72.9202 151.326,72.9202 153.5,72.5C 152.312,76.6109 152.812,80.2775 155,83.5C 156,82.1667 157,82.1667 158,83.5C 159.211,87.854 159.711,93.1874 159.5,99.5C 161.167,99.5 162.833,99.5 164.5,99.5C 164.183,103.927 164.183,108.261 164.5,112.5C 164.023,113.478 163.357,114.311 162.5,115C 164.107,116.049 164.773,117.549 164.5,119.5C 162.856,119.714 161.356,119.38 160,118.5C 159.365,119.966 158.531,121.3 157.5,122.5C 159.332,125.946 158.665,127.446 155.5,127C 159.81,130.292 159.477,131.626 154.5,131C 153.833,131.667 153.167,132.333 152.5,133C 153.711,133.893 153.711,134.726 152.5,135.5C 150.205,136.432 147.871,137.265 145.5,138C 146.833,139 146.833,140 145.5,141C 141.163,142.797 136.996,142.63 133,140.5C 131.691,142.891 130.691,142.891 130,140.5C 127.731,140.904 125.231,141.071 122.5,141C 122.833,140.667 123.167,140.333 123.5,140C 120.983,137.806 121.316,135.806 124.5,134C 122.382,133.365 120.382,132.531 118.5,131.5C 116.895,132.43 115.395,132.43 114,131.5C 113.5,132 113,132.5 112.5,133C 113.731,134.183 113.731,135.349 112.5,136.5C 111.922,129.983 111.589,123.483 111.5,117C 111.667,115.833 111.833,114.667 112,113.5C 112.333,114.167 112.667,114.833 113,115.5C 113.5,114.333 114.333,113.5 115.5,113C 113.189,111.948 111.856,110.115 111.5,107.5C 111.544,103.681 111.544,99.8472 111.5,96C 111.82,94.3468 112.82,93.3468 114.5,93C 113.833,92.6667 113.167,92.3333 112.5,92C 112.553,88.9277 113.22,85.761 114.5,82.5C 114.104,79.5648 113.104,76.8981 111.5,74.5C 112.648,72.8513 113.981,71.3513 115.5,70C 118.881,69.9395 121.714,68.7728 124,66.5C 130.568,66.5312 137.068,66.0312 143.5,65C 142.01,63.228 140.343,63.0613 138.5,64.5C 137.571,63.3112 137.238,61.9778 137.5,60.5 Z"/></g>
<g><path style="opacity:0.006" fill="#c5ccd4" d="M 289.5,90.5 C 289.5,90.1667 289.5,89.8333 289.5,89.5C 294.833,89.8333 294.833,90.1667 289.5,90.5 Z"/></g>
<g><path style="opacity:1" fill="#37b1fd" d="M 235.5,87.5 C 240.996,88.3607 246.329,89.694 251.5,91.5C 251.611,92.1174 251.944,92.6174 252.5,93C 260.215,95.6278 267.882,98.1278 275.5,100.5C 279.91,101.684 284.243,103.017 288.5,104.5C 289.5,105.167 290.5,105.833 291.5,106.5C 288.843,106.162 286.51,106.829 284.5,108.5C 283.396,107.369 283.729,106.535 285.5,106C 285,105.833 284.5,105.667 284,105.5C 282.102,108.689 279.269,110.189 275.5,110C 273.416,111.748 271.416,113.582 269.5,115.5C 259.478,119.927 249.978,125.26 241,131.5C 236.614,132.667 232.78,134.667 229.5,137.5C 224.994,138.837 221.494,141.504 219,145.5C 217.989,144.663 216.822,144.33 215.5,144.5C 217.812,142.364 220.312,140.364 223,138.5C 224.361,136.972 225.528,135.305 226.5,133.5C 223.585,130.517 223.918,128.017 227.5,126C 227.359,123.384 227.359,120.717 227.5,118C 227.167,117.5 226.833,117 226.5,116.5C 225.749,117.376 225.249,118.376 225,119.5C 223.954,117.91 222.787,116.41 221.5,115C 223.044,114.71 224.377,114.044 225.5,113C 225.032,111.178 224.699,109.011 224.5,106.5C 219.554,106.765 216.887,104.765 216.5,100.5C 215.092,99.7568 213.759,98.9234 212.5,98C 213.849,96.3646 213.682,94.8646 212,93.5C 211.667,94.8333 211.333,96.1667 211,97.5C 210.667,97.1667 210.333,96.8333 210,96.5C 209.774,93.905 209.274,91.405 208.5,89C 209.071,87.7949 209.738,86.6283 210.5,85.5C 211.623,86.5437 212.956,87.2104 214.5,87.5C 217.187,87.4622 217.854,86.4622 216.5,84.5C 218.421,83.359 220.421,83.1923 222.5,84C 220.321,84.4419 219.655,85.4419 220.5,87C 225.485,86.3204 230.485,86.4871 235.5,87.5 Z"/></g>
<g><path style="opacity:0.004" fill="#c5cfd5" d="M 294.5,90.5 C 295.833,91.1667 295.833,91.1667 294.5,90.5 Z"/></g>
<g><path style="opacity:1" fill="#357297" d="M 251.5,91.5 C 259.919,93.7458 267.919,96.7458 275.5,100.5C 267.882,98.1278 260.215,95.6278 252.5,93C 251.944,92.6174 251.611,92.1174 251.5,91.5 Z"/></g>
<g><path style="opacity:0.004" fill="#c4cbd2" d="M 310.5,97.5 C 311.601,96.4017 312.934,96.235 314.5,97C 313.207,97.49 311.873,97.6567 310.5,97.5 Z"/></g>
<g><path style="opacity:1" fill="#2b6489" d="M 288.5,104.5 C 296.627,106.432 304.627,108.765 312.5,111.5C 312.5,111.833 312.5,112.167 312.5,112.5C 305.499,110.5 298.499,108.5 291.5,106.5C 290.5,105.833 289.5,105.167 288.5,104.5 Z"/></g>
<g><path style="opacity:1" fill="#22aafd" d="M 291.5,106.5 C 298.499,108.5 305.499,110.5 312.5,112.5C 312.833,112.5 313.167,112.5 313.5,112.5C 313.833,113.167 314.167,113.833 314.5,114.5C 314.5,118.5 314.5,122.5 314.5,126.5C 313.539,128.265 313.205,130.265 313.5,132.5C 309.182,132.697 305.015,132.697 301,132.5C 300,135.167 299,135.167 298,132.5C 297.692,133.308 297.192,133.975 296.5,134.5C 293.324,131.802 290.991,131.802 289.5,134.5C 288.522,134.023 287.689,133.357 287,132.5C 286.784,134.384 286.117,136.051 285,137.5C 284.383,136.551 284.549,135.718 285.5,135C 283.5,134.333 281.5,134.333 279.5,135C 280.711,135.893 280.711,136.726 279.5,137.5C 278.281,136.737 277.281,135.737 276.5,134.5C 275.813,136.274 274.98,137.941 274,139.5C 270.419,138.663 266.919,138.329 263.5,138.5C 263.167,139.167 262.833,139.833 262.5,140.5C 259.629,137.887 256.795,137.887 254,140.5C 253.626,139.584 253.126,138.75 252.5,138C 246.124,136.78 240.458,138.113 235.5,142C 237.707,144.984 237.207,145.15 234,142.5C 231.518,143.269 229.685,142.269 228.5,139.5C 228.863,138.817 229.196,138.15 229.5,137.5C 232.78,134.667 236.614,132.667 241,131.5C 249.978,125.26 259.478,119.927 269.5,115.5C 271.416,113.582 273.416,111.748 275.5,110C 279.269,110.189 282.102,108.689 284,105.5C 284.5,105.667 285,105.833 285.5,106C 283.729,106.535 283.396,107.369 284.5,108.5C 286.51,106.829 288.843,106.162 291.5,106.5 Z"/></g>
<g><path style="opacity:1" fill="#29adfe" d="M 314.5,126.5 C 314.5,139.167 314.5,151.833 314.5,164.5C 314.167,164.5 313.833,164.5 313.5,164.5C 313.5,162.833 313.5,161.167 313.5,159.5C 311.5,159.5 309.5,159.5 307.5,159.5C 307.66,157.801 307.494,156.134 307,154.5C 306.667,155.167 306.333,155.833 306,156.5C 303.806,153.983 301.806,154.316 300,157.5C 299.779,154.057 298.779,153.724 297,156.5C 295.211,154.771 293.044,154.104 290.5,154.5C 290.509,150.657 288.509,148.99 284.5,149.5C 282.359,149.613 280.525,150.28 279,151.5C 278.326,150.422 277.326,149.755 276,149.5C 273.379,149.701 270.712,150.034 268,150.5C 267.29,149.027 266.124,148.36 264.5,148.5C 264.5,150.167 264.5,151.833 264.5,153.5C 268.226,153.177 271.893,153.511 275.5,154.5C 276.052,156.003 276.052,157.669 275.5,159.5C 270.232,158.847 265.399,159.847 261,162.5C 258.821,161.739 256.655,162.072 254.5,163.5C 257.028,164.517 257.028,165.684 254.5,167C 255.759,167.923 257.092,168.757 258.5,169.5C 255.953,170.539 253.953,169.705 252.5,167C 253.696,166.346 253.696,165.846 252.5,165.5C 251.18,167.27 249.68,167.603 248,166.5C 246.84,168.797 245.84,168.464 245,165.5C 243.886,169.456 243.053,169.456 242.5,165.5C 239.263,165.657 235.93,165.991 232.5,166.5C 230.199,168.163 230.199,169.997 232.5,172C 232.167,172.333 231.833,172.667 231.5,173C 228.443,173.256 225.443,173.756 222.5,174.5C 220.096,173.992 219.429,172.825 220.5,171C 217.667,170.833 214.833,170.667 212,170.5C 208.636,170.595 205.469,171.262 202.5,172.5C 198.242,171.745 194.075,171.412 190,171.5C 189.167,171.667 188.333,171.833 187.5,172C 187.833,172.333 188.167,172.667 188.5,173C 187.773,174.399 187.273,175.899 187,177.5C 186.692,176.692 186.192,176.025 185.5,175.5C 182.919,175.121 180.419,175.787 178,177.5C 177.077,176.241 176.243,174.908 175.5,173.5C 174.262,177.311 173.596,177.311 173.5,173.5C 171.04,174.937 168.374,175.937 165.5,176.5C 165.617,178.484 164.95,180.15 163.5,181.5C 160.659,180.292 157.993,178.959 155.5,177.5C 156.574,176.115 157.907,174.949 159.5,174C 165.052,172.542 170.052,170.042 174.5,166.5C 175.386,165.675 175.719,164.675 175.5,163.5C 182.24,162.463 188.24,159.796 193.5,155.5C 198.774,154.431 203.774,152.598 208.5,150C 209.337,148.989 209.67,147.822 209.5,146.5C 211.898,146.741 213.898,146.074 215.5,144.5C 216.822,144.33 217.989,144.663 219,145.5C 221.494,141.504 224.994,138.837 229.5,137.5C 229.196,138.15 228.863,138.817 228.5,139.5C 229.685,142.269 231.518,143.269 234,142.5C 237.207,145.15 237.707,144.984 235.5,142C 240.458,138.113 246.124,136.78 252.5,138C 253.126,138.75 253.626,139.584 254,140.5C 256.795,137.887 259.629,137.887 262.5,140.5C 262.833,139.833 263.167,139.167 263.5,138.5C 266.919,138.329 270.419,138.663 274,139.5C 274.98,137.941 275.813,136.274 276.5,134.5C 277.281,135.737 278.281,136.737 279.5,137.5C 280.711,136.726 280.711,135.893 279.5,135C 281.5,134.333 283.5,134.333 285.5,135C 284.549,135.718 284.383,136.551 285,137.5C 286.117,136.051 286.784,134.384 287,132.5C 287.689,133.357 288.522,134.023 289.5,134.5C 290.991,131.802 293.324,131.802 296.5,134.5C 297.192,133.975 297.692,133.308 298,132.5C 299,135.167 300,135.167 301,132.5C 305.015,132.697 309.182,132.697 313.5,132.5C 313.205,130.265 313.539,128.265 314.5,126.5 Z"/></g>
<g><path style="opacity:1" fill="#2faffd" d="M 313.5,164.5 C 313.5,166.5 313.5,168.5 313.5,170.5C 304.667,170.369 295.667,170.369 286.5,170.5C 286.819,172.75 286.319,174.75 285,176.5C 276.441,176.023 267.941,175.69 259.5,175.5C 259.67,176.822 259.337,177.989 258.5,179C 256.899,179.273 255.399,179.773 254,180.5C 252.913,178.068 252.413,178.402 252.5,181.5C 241.841,181.508 231.341,181.508 221,181.5C 220.727,183.101 220.227,184.601 219.5,186C 212.524,186.892 205.524,187.392 198.5,187.5C 198.649,188.552 198.483,189.552 198,190.5C 194.762,190.59 191.428,190.257 188,189.5C 187.5,190 187,190.5 186.5,191C 183.167,191.333 179.833,191.667 176.5,192C 174.944,195.392 175.611,198.225 178.5,200.5C 177.167,200.5 175.833,200.5 174.5,200.5C 170.869,198.816 167.203,196.983 163.5,195C 165.654,193.816 165.32,192.65 162.5,191.5C 159.242,192.417 155.909,192.751 152.5,192.5C 152.5,191.5 152.5,190.5 152.5,189.5C 148.833,189.5 145.167,189.5 141.5,189.5C 140.167,189.167 138.833,188.833 137.5,188.5C 136.005,188.011 134.671,187.345 133.5,186.5C 134.873,186.657 136.207,186.49 137.5,186C 143.457,182.862 149.457,180.029 155.5,177.5C 157.993,178.959 160.659,180.292 163.5,181.5C 164.95,180.15 165.617,178.484 165.5,176.5C 168.374,175.937 171.04,174.937 173.5,173.5C 173.596,177.311 174.262,177.311 175.5,173.5C 176.243,174.908 177.077,176.241 178,177.5C 180.419,175.787 182.919,175.121 185.5,175.5C 186.192,176.025 186.692,176.692 187,177.5C 187.273,175.899 187.773,174.399 188.5,173C 188.167,172.667 187.833,172.333 187.5,172C 188.333,171.833 189.167,171.667 190,171.5C 194.075,171.412 198.242,171.745 202.5,172.5C 205.469,171.262 208.636,170.595 212,170.5C 214.833,170.667 217.667,170.833 220.5,171C 219.429,172.825 220.096,173.992 222.5,174.5C 225.443,173.756 228.443,173.256 231.5,173C 231.833,172.667 232.167,172.333 232.5,172C 230.199,169.997 230.199,168.163 232.5,166.5C 235.93,165.991 239.263,165.657 242.5,165.5C 243.053,169.456 243.886,169.456 245,165.5C 245.84,168.464 246.84,168.797 248,166.5C 249.68,167.603 251.18,167.27 252.5,165.5C 253.696,165.846 253.696,166.346 252.5,167C 253.953,169.705 255.953,170.539 258.5,169.5C 257.092,168.757 255.759,167.923 254.5,167C 257.028,165.684 257.028,164.517 254.5,163.5C 256.655,162.072 258.821,161.739 261,162.5C 265.399,159.847 270.232,158.847 275.5,159.5C 276.052,157.669 276.052,156.003 275.5,154.5C 271.893,153.511 268.226,153.177 264.5,153.5C 264.5,151.833 264.5,150.167 264.5,148.5C 266.124,148.36 267.29,149.027 268,150.5C 270.712,150.034 273.379,149.701 276,149.5C 277.326,149.755 278.326,150.422 279,151.5C 280.525,150.28 282.359,149.613 284.5,149.5C 288.509,148.99 290.509,150.657 290.5,154.5C 293.044,154.104 295.211,154.771 297,156.5C 298.779,153.724 299.779,154.057 300,157.5C 301.806,154.316 303.806,153.983 306,156.5C 306.333,155.833 306.667,155.167 307,154.5C 307.494,156.134 307.66,157.801 307.5,159.5C 309.5,159.5 311.5,159.5 313.5,159.5C 313.5,161.167 313.5,162.833 313.5,164.5 Z"/></g>
<g><path style="opacity:1" fill="#34b1fe" d="M 313.5,164.5 C 313.833,164.5 314.167,164.5 314.5,164.5C 314.814,172.087 314.481,179.587 313.5,187C 311.009,187.409 309.009,188.576 307.5,190.5C 304.511,189.825 301.511,190.158 298.5,191.5C 292.537,192.496 286.537,192.829 280.5,192.5C 280.5,194.5 280.5,196.5 280.5,198.5C 276.154,198.334 271.821,198.501 267.5,199C 266.282,200.416 264.949,200.249 263.5,198.5C 261.94,199.607 260.44,199.607 259,198.5C 257.715,198.95 256.548,199.617 255.5,200.5C 255.167,199.833 254.833,199.167 254.5,198.5C 253.702,200.078 253.202,201.744 253,203.5C 251.846,201.043 250.512,201.043 249,203.5C 247.684,200.972 246.517,200.972 245.5,203.5C 244.522,203.023 243.689,202.357 243,201.5C 239.905,201.786 236.738,201.786 233.5,201.5C 232.833,201.833 232.167,202.167 231.5,202.5C 232.506,203.396 232.506,204.062 231.5,204.5C 226.22,203.382 220.887,203.216 215.5,204C 213.194,205.793 212.861,207.96 214.5,210.5C 212.865,211.681 211.198,211.681 209.5,210.5C 209.002,209.397 208.669,208.397 208.5,207.5C 207.707,207.931 206.873,208.265 206,208.5C 198.947,205.327 191.447,203.66 183.5,203.5C 181.152,203.408 179.486,202.408 178.5,200.5C 175.611,198.225 174.944,195.392 176.5,192C 179.833,191.667 183.167,191.333 186.5,191C 187,190.5 187.5,190 188,189.5C 191.428,190.257 194.762,190.59 198,190.5C 198.483,189.552 198.649,188.552 198.5,187.5C 205.524,187.392 212.524,186.892 219.5,186C 220.227,184.601 220.727,183.101 221,181.5C 231.341,181.508 241.841,181.508 252.5,181.5C 252.413,178.402 252.913,178.068 254,180.5C 255.399,179.773 256.899,179.273 258.5,179C 259.337,177.989 259.67,176.822 259.5,175.5C 267.941,175.69 276.441,176.023 285,176.5C 286.319,174.75 286.819,172.75 286.5,170.5C 295.667,170.369 304.667,170.369 313.5,170.5C 313.5,168.5 313.5,166.5 313.5,164.5 Z"/></g>
<g><path style="opacity:0.874" fill="#a1a8ac" d="M 331.5,106.5 C 331.667,156.168 331.5,205.834 331,255.5C 330.5,256.667 329.667,257.5 328.5,258C 326.288,258.789 324.288,258.622 322.5,257.5C 323.155,207.949 322.488,158.616 320.5,109.5C 324.418,109.271 328.085,108.271 331.5,106.5 Z"/></g>
<g><path style="opacity:0.004" fill="#a3aaad" d="M 333.5,106.5 C 334.665,155.332 334.832,204.332 334,253.5C 333.5,204.501 333.333,155.501 333.5,106.5 Z"/></g>
<g><path style="opacity:1" fill="#3cb2fc" d="M 314.5,114.5 C 315.498,147.662 315.832,180.996 315.5,214.5C 314.834,217.028 314.168,219.694 313.5,222.5C 312.148,220.364 310.482,220.03 308.5,221.5C 307.749,220.624 307.249,219.624 307,218.5C 304.524,220.815 302.191,220.482 300,217.5C 298.354,219.055 298.021,220.721 299,222.5C 298.667,222.167 298.333,221.833 298,221.5C 297.098,224.804 295.764,225.138 294,222.5C 292.85,223.424 291.85,223.424 291,222.5C 291.213,226.516 290.213,226.516 288,222.5C 286.748,224.001 285.748,225.668 285,227.5C 281.747,226.845 278.581,226.678 275.5,227C 276.167,227.333 276.833,227.667 277.5,228C 274.332,228.582 273.999,229.582 276.5,231C 275.975,231.692 275.308,232.192 274.5,232.5C 272.821,230.896 270.821,230.229 268.5,230.5C 264.165,229.336 260.165,227.502 256.5,225C 252.49,224.499 248.49,223.999 244.5,223.5C 223.951,217.205 203.618,210.539 183.5,203.5C 191.447,203.66 198.947,205.327 206,208.5C 206.873,208.265 207.707,207.931 208.5,207.5C 208.669,208.397 209.002,209.397 209.5,210.5C 211.198,211.681 212.865,211.681 214.5,210.5C 212.861,207.96 213.194,205.793 215.5,204C 220.887,203.216 226.22,203.382 231.5,204.5C 232.506,204.062 232.506,203.396 231.5,202.5C 232.167,202.167 232.833,201.833 233.5,201.5C 236.738,201.786 239.905,201.786 243,201.5C 243.689,202.357 244.522,203.023 245.5,203.5C 246.517,200.972 247.684,200.972 249,203.5C 250.512,201.043 251.846,201.043 253,203.5C 253.202,201.744 253.702,200.078 254.5,198.5C 254.833,199.167 255.167,199.833 255.5,200.5C 256.548,199.617 257.715,198.95 259,198.5C 260.44,199.607 261.94,199.607 263.5,198.5C 264.949,200.249 266.282,200.416 267.5,199C 271.821,198.501 276.154,198.334 280.5,198.5C 280.5,196.5 280.5,194.5 280.5,192.5C 286.537,192.829 292.537,192.496 298.5,191.5C 301.511,190.158 304.511,189.825 307.5,190.5C 309.009,188.576 311.009,187.409 313.5,187C 314.481,179.587 314.814,172.087 314.5,164.5C 314.5,151.833 314.5,139.167 314.5,126.5C 314.5,122.5 314.5,118.5 314.5,114.5 Z"/></g>
<g><path style="opacity:0.783" fill="#333b40" d="M 107.5,178.5 C 107.833,178.5 108.167,178.5 108.5,178.5C 109.568,179.434 110.901,179.768 112.5,179.5C 119.186,182.593 126.186,184.926 133.5,186.5C 134.671,187.345 136.005,188.011 137.5,188.5C 141.418,190.817 145.084,193.65 148.5,197C 149.448,197.483 150.448,197.649 151.5,197.5C 151.5,198.5 151.5,199.5 151.5,200.5C 146.489,199.808 141.489,198.974 136.5,198C 137.833,197.667 139.167,197.333 140.5,197C 131.027,193.92 121.36,191.587 111.5,190C 112.833,189.667 114.167,189.333 115.5,189C 110.97,188.121 106.637,186.787 102.5,185C 101.62,183.644 101.286,182.144 101.5,180.5C 102.117,180.611 102.617,180.944 103,181.5C 104.271,180.117 105.771,179.117 107.5,178.5 Z"/></g>
<g><path style="opacity:0.004" fill="#31373a" d="M 129.5,196.5 C 129.897,195.475 130.563,195.308 131.5,196C 130.906,196.464 130.239,196.631 129.5,196.5 Z"/></g>
<g><path style="opacity:0.004" fill="#343a3b" d="M 181.5,211.5 C 181.103,212.525 180.437,212.692 179.5,212C 180.094,211.536 180.761,211.369 181.5,211.5 Z"/></g>
<g><path style="opacity:0.703" fill="#333a3d" d="M 205.5,218.5 C 200.295,218.866 195.295,218.033 190.5,216C 191.5,215.667 192.5,215.333 193.5,215C 189.418,213.816 185.418,212.649 181.5,211.5C 178.296,211.867 174.962,211.367 171.5,210C 173.167,209.667 174.833,209.333 176.5,209C 171.725,208.185 167.225,206.685 163,204.5C 159.813,205.587 156.647,205.42 153.5,204C 154.5,203.667 155.5,203.333 156.5,203C 154.509,202.626 152.842,201.793 151.5,200.5C 152.404,199.791 152.737,198.791 152.5,197.5C 153.93,197.579 155.264,197.246 156.5,196.5C 157.604,197.631 157.271,198.465 155.5,199C 157.412,202.107 159.579,202.607 162,200.5C 164.16,203.081 166.326,203.081 168.5,200.5C 177.673,204.307 186.839,207.973 196,211.5C 196.414,211.043 196.914,210.709 197.5,210.5C 199.854,211.06 202.187,211.727 204.5,212.5C 203.975,213.192 203.308,213.692 202.5,214C 204.382,216.108 206.715,217.441 209.5,218C 208.207,218.49 206.873,218.657 205.5,218.5 Z"/></g>
<g><path style="opacity:0.004" fill="#353a40" d="M 187.5,215.5 C 187.897,214.475 188.563,214.308 189.5,215C 188.906,215.464 188.239,215.631 187.5,215.5 Z"/></g>
<g><path style="opacity:1" fill="#3f95cb" d="M 313.5,112.5 C 315.027,112.427 316.027,113.094 316.5,114.5C 316.5,158.5 316.5,202.5 316.5,246.5C 315.167,246.5 313.833,246.5 312.5,246.5C 310.597,246.204 308.93,245.537 307.5,244.5C 310.167,244.833 312.833,245.167 315.5,245.5C 315.5,235.167 315.5,224.833 315.5,214.5C 315.832,180.996 315.498,147.662 314.5,114.5C 314.167,113.833 313.833,113.167 313.5,112.5 Z"/></g>
<g><path style="opacity:1" fill="#366584" d="M 316.5,114.5 C 317.499,158.664 317.832,202.997 317.5,247.5C 315.585,247.784 313.919,247.451 312.5,246.5C 313.833,246.5 315.167,246.5 316.5,246.5C 316.5,202.5 316.5,158.5 316.5,114.5 Z"/></g>
<g><path style="opacity:0.004" fill="#c3cfd1" d="M 201.5,223.5 C 202.833,224.167 202.833,224.167 201.5,223.5 Z"/></g>
<g><path style="opacity:0.987" fill="#c5ced5" d="M 244.5,230.5 C 245.418,236.775 245.751,243.108 245.5,249.5C 247.677,249.414 249.677,248.747 251.5,247.5C 252.167,243.353 252.834,239.353 253.5,235.5C 254.209,236.404 255.209,236.737 256.5,236.5C 256.833,236.5 257.167,236.5 257.5,236.5C 257.5,237.167 257.833,237.5 258.5,237.5C 259.568,238.434 260.901,238.768 262.5,238.5C 262.5,239.167 262.833,239.5 263.5,239.5C 265.415,239.216 267.081,239.549 268.5,240.5C 266.523,241.507 266.857,241.507 269.5,240.5C 270.791,240.263 271.791,240.596 272.5,241.5C 270.15,242.11 270.483,242.444 273.5,242.5C 273.833,242.5 274.167,242.5 274.5,242.5C 274.842,243.338 275.508,243.672 276.5,243.5C 276.833,243.5 277.167,243.5 277.5,243.5C 277.842,244.338 278.508,244.672 279.5,244.5C 279.842,245.338 280.508,245.672 281.5,245.5C 282.833,245.833 284.167,246.167 285.5,246.5C 286.167,246.5 286.833,246.5 287.5,246.5C 287.711,248.424 288.377,248.757 289.5,247.5C 289.833,247.5 290.167,247.5 290.5,247.5C 290.5,248.833 291.167,249.5 292.5,249.5C 292.5,250.167 292.833,250.5 293.5,250.5C 293.5,251.167 293.833,251.5 294.5,251.5C 295.209,252.404 296.209,252.737 297.5,252.5C 297.5,253.5 297.5,254.5 297.5,255.5C 297.279,258.097 296.779,258.097 296,255.5C 292.387,260.224 287.554,262.724 281.5,263C 280.944,263.383 280.611,263.883 280.5,264.5C 274.777,265.708 269.111,267.208 263.5,269C 261.68,269.2 260.347,270.034 259.5,271.5C 253.616,273.232 247.616,273.732 241.5,273C 212.042,262.714 182.375,252.881 152.5,243.5C 152.297,241.61 152.963,240.11 154.5,239C 158.683,237.204 163.016,235.871 167.5,235C 166.167,234.667 164.833,234.333 163.5,234C 168.853,233.092 174.187,232.092 179.5,231C 178.5,230.667 177.5,230.333 176.5,230C 178.833,229.667 181.167,229.333 183.5,229C 182.5,228.667 181.5,228.333 180.5,228C 191.217,226.143 202.217,224.976 213.5,224.5C 216.167,225.833 218.833,225.833 221.5,224.5C 221.917,223.876 222.584,223.543 223.5,223.5C 230.444,226.037 237.444,228.37 244.5,230.5 Z"/></g>
<g><path style="opacity:1" fill="#8f9a9f" d="M 244.5,230.5 C 248.434,230.604 251.434,232.271 253.5,235.5C 252.834,239.353 252.167,243.353 251.5,247.5C 249.677,248.747 247.677,249.414 245.5,249.5C 245.751,243.108 245.418,236.775 244.5,230.5 Z"/></g>
<g><path style="opacity:0.004" fill="#d0dbdf" d="M 157.5,235.5 C 158.833,236.167 158.833,236.167 157.5,235.5 Z"/></g>
<g><path style="opacity:0.781" fill="#344047" d="M 312.5,112.5 C 312.5,112.167 312.5,111.833 312.5,111.5C 315.254,111.887 317.754,112.221 320,112.5C 320.167,136.5 320.333,160.5 320.5,184.5C 320.495,208.882 319.828,233.049 318.5,257C 319.094,257.464 319.761,257.631 320.5,257.5C 317.48,258.472 314.48,257.972 311.5,256C 313.932,254.913 313.598,254.413 310.5,254.5C 308.314,253.73 306.148,252.73 304,251.5C 302.535,252.33 301.035,252.496 299.5,252C 301.595,251.444 301.762,250.944 300,250.5C 298.234,251.233 296.401,251.567 294.5,251.5C 293.833,251.5 293.5,251.167 293.5,250.5C 294.557,249.794 294.224,249.461 292.5,249.5C 291.167,249.5 290.5,248.833 290.5,247.5C 290.167,247.5 289.833,247.5 289.5,247.5C 288.833,247.167 288.167,246.833 287.5,246.5C 286.833,246.5 286.167,246.5 285.5,246.5C 284.462,244.481 283.128,244.147 281.5,245.5C 280.508,245.672 279.842,245.338 279.5,244.5C 280.067,243.58 279.401,243.246 277.5,243.5C 277.167,243.5 276.833,243.5 276.5,243.5C 276.158,242.662 275.492,242.328 274.5,242.5C 274.167,242.5 273.833,242.5 273.5,242.5C 273.5,241.833 273.167,241.5 272.5,241.5C 271.791,240.596 270.791,240.263 269.5,240.5C 269.167,240.5 268.833,240.5 268.5,240.5C 267.081,239.549 265.415,239.216 263.5,239.5C 262.833,239.5 262.5,239.167 262.5,238.5C 260.901,238.768 259.568,238.434 258.5,237.5C 260.85,236.89 260.517,236.556 257.5,236.5C 257.167,236.5 256.833,236.5 256.5,236.5C 255.791,235.596 254.791,235.263 253.5,235.5C 251.434,232.271 248.434,230.604 244.5,230.5C 237.444,228.37 230.444,226.037 223.5,223.5C 222.584,223.543 221.917,223.876 221.5,224.5C 218.833,224.5 216.167,224.5 213.5,224.5C 205.445,221.881 205.779,221.047 214.5,222C 211.21,221.275 208.21,220.108 205.5,218.5C 206.873,218.657 208.207,218.49 209.5,218C 206.715,217.441 204.382,216.108 202.5,214C 203.308,213.692 203.975,213.192 204.5,212.5C 202.187,211.727 199.854,211.06 197.5,210.5C 196.914,210.709 196.414,211.043 196,211.5C 186.839,207.973 177.673,204.307 168.5,200.5C 166.326,203.081 164.16,203.081 162,200.5C 159.579,202.607 157.412,202.107 155.5,199C 157.271,198.465 157.604,197.631 156.5,196.5C 155.264,197.246 153.93,197.579 152.5,197.5C 152.737,198.791 152.404,199.791 151.5,200.5C 151.5,199.5 151.5,198.5 151.5,197.5C 150.448,197.649 149.448,197.483 148.5,197C 145.084,193.65 141.418,190.817 137.5,188.5C 138.833,188.833 140.167,189.167 141.5,189.5C 152.385,193.31 163.385,196.976 174.5,200.5C 175.833,200.5 177.167,200.5 178.5,200.5C 179.486,202.408 181.152,203.408 183.5,203.5C 203.618,210.539 223.951,217.205 244.5,223.5C 253.209,227.119 262.209,230.119 271.5,232.5C 283.109,237.481 295.109,241.481 307.5,244.5C 308.93,245.537 310.597,246.204 312.5,246.5C 313.919,247.451 315.585,247.784 317.5,247.5C 317.832,202.997 317.499,158.664 316.5,114.5C 316.027,113.094 315.027,112.427 313.5,112.5C 313.167,112.5 312.833,112.5 312.5,112.5 Z"/></g>
<g><path style="opacity:1" fill="#419bd4" d="M 244.5,223.5 C 248.49,223.999 252.49,224.499 256.5,225C 260.165,227.502 264.165,229.336 268.5,230.5C 269.5,231.167 270.5,231.833 271.5,232.5C 262.209,230.119 253.209,227.119 244.5,223.5 Z"/></g>
<g><path style="opacity:1" fill="#44b5fb" d="M 315.5,214.5 C 315.5,224.833 315.5,235.167 315.5,245.5C 312.833,245.167 310.167,244.833 307.5,244.5C 295.109,241.481 283.109,237.481 271.5,232.5C 270.5,231.833 269.5,231.167 268.5,230.5C 270.821,230.229 272.821,230.896 274.5,232.5C 275.308,232.192 275.975,231.692 276.5,231C 273.999,229.582 274.332,228.582 277.5,228C 276.833,227.667 276.167,227.333 275.5,227C 278.581,226.678 281.747,226.845 285,227.5C 285.748,225.668 286.748,224.001 288,222.5C 290.213,226.516 291.213,226.516 291,222.5C 291.85,223.424 292.85,223.424 294,222.5C 295.764,225.138 297.098,224.804 298,221.5C 298.333,221.833 298.667,222.167 299,222.5C 298.021,220.721 298.354,219.055 300,217.5C 302.191,220.482 304.524,220.815 307,218.5C 307.249,219.624 307.749,220.624 308.5,221.5C 310.482,220.03 312.148,220.364 313.5,222.5C 314.168,219.694 314.834,217.028 315.5,214.5 Z"/></g>
<g><path style="opacity:1" fill="#3698d6" d="M 141.5,189.5 C 145.167,189.5 148.833,189.5 152.5,189.5C 152.5,190.5 152.5,191.5 152.5,192.5C 155.909,192.751 159.242,192.417 162.5,191.5C 165.32,192.65 165.654,193.816 163.5,195C 167.203,196.983 170.869,198.816 174.5,200.5C 163.385,196.976 152.385,193.31 141.5,189.5 Z"/></g>
<g><path style="opacity:0.004" fill="#d4d8db" d="M 78.5,243.5 C 78.8966,242.475 79.5632,242.308 80.5,243C 79.9056,243.464 79.2389,243.631 78.5,243.5 Z"/></g>
<g><path style="opacity:0.004" fill="#d4d9dd" d="M 124.5,243.5 C 124.5,243.167 124.5,242.833 124.5,242.5C 128.5,242.833 128.5,243.167 124.5,243.5 Z"/></g>
<g><path style="opacity:0.004" fill="#d6dadd" d="M 141.5,249.5 C 141.5,249.167 141.5,248.833 141.5,248.5C 145.5,248.833 145.5,249.167 141.5,249.5 Z"/></g>
<g><path style="opacity:0.004" fill="#d5d8db" d="M 57.5,250.5 C 57.8966,249.475 58.5632,249.308 59.5,250C 58.9056,250.464 58.2389,250.631 57.5,250.5 Z"/></g>
<g><path style="opacity:0.004" fill="#d7dadd" d="M 145.5,250.5 C 146.251,249.427 147.251,249.26 148.5,250C 147.552,250.483 146.552,250.649 145.5,250.5 Z"/></g>
<g><path style="opacity:0.004" fill="#313a3c" d="M 310.5,254.5 C 309.749,255.573 308.749,255.74 307.5,255C 308.448,254.517 309.448,254.351 310.5,254.5 Z"/></g>
<g><path style="opacity:0.004" fill="#d4d8da" d="M 37.5,256.5 C 38.8333,257.167 38.8333,257.167 37.5,256.5 Z"/></g>
<g><path style="opacity:0.78" fill="#444b51" d="M 152.5,243.5 C 182.375,252.881 212.042,262.714 241.5,273C 247.616,273.732 253.616,273.232 259.5,271.5C 255.189,273.807 250.523,275.307 245.5,276C 246.097,277.628 245.763,279.295 244.5,281C 245.244,282.039 246.244,282.539 247.5,282.5C 246.791,283.404 245.791,283.737 244.5,283.5C 242.593,280.202 239.926,279.536 236.5,281.5C 239.258,280.033 238.925,279.367 235.5,279.5C 234.833,279.5 234.167,279.5 233.5,279.5C 232.081,278.549 230.415,278.216 228.5,278.5C 228.167,278.5 227.833,278.5 227.5,278.5C 226.791,277.596 225.791,277.263 224.5,277.5C 223.833,277.5 223.5,277.167 223.5,276.5C 224.552,276.649 225.552,276.483 226.5,276C 223.479,275.151 220.479,274.317 217.5,273.5C 215.95,272.28 214.284,272.28 212.5,273.5C 211.448,271.744 209.781,271.077 207.5,271.5C 206.432,270.566 205.099,270.232 203.5,270.5C 202.833,270.5 202.167,270.5 201.5,270.5C 201.5,269.833 201.167,269.5 200.5,269.5C 199.833,269.5 199.5,269.167 199.5,268.5C 200.552,268.649 201.552,268.483 202.5,268C 198.959,266.56 195.292,265.726 191.5,265.5C 191.167,265.5 190.833,265.5 190.5,265.5C 189.432,264.566 188.099,264.232 186.5,264.5C 185.432,263.566 184.099,263.232 182.5,263.5C 183.263,262.732 184.263,262.232 185.5,262C 184.207,261.51 182.873,261.343 181.5,261.5C 180.432,260.566 179.099,260.232 177.5,260.5C 177.389,259.883 177.056,259.383 176.5,259C 173.173,258.39 169.839,257.89 166.5,257.5C 166.167,257.5 165.833,257.5 165.5,257.5C 165.5,257.167 165.5,256.833 165.5,256.5C 165.5,255.833 165.167,255.5 164.5,255.5C 163.791,254.596 162.791,254.263 161.5,254.5C 161.167,254.5 160.833,254.5 160.5,254.5C 159.432,253.566 158.099,253.232 156.5,253.5C 155.713,251.896 154.38,251.229 152.5,251.5C 152.5,248.833 152.5,246.167 152.5,243.5 Z"/></g>
<g><path style="opacity:1" fill="#6d7378" d="M 58.5,263.5 C 59.675,263.281 60.675,263.614 61.5,264.5C 61.3764,265.107 61.0431,265.44 60.5,265.5C 58.847,265.66 57.5137,266.326 56.5,267.5C 54.0065,267.869 53.3398,267.203 54.5,265.5C 55.9952,265.011 57.3285,264.345 58.5,263.5 Z"/></g>
<g><path style="opacity:1" fill="#ced2d7" d="M 86.5,254.5 C 86.7911,255.649 87.6244,256.316 89,256.5C 90.5328,256.227 92.0328,255.894 93.5,255.5C 94.784,257.614 96.784,258.614 99.5,258.5C 99.3893,259.117 99.056,259.617 98.5,260C 100.929,260.703 103.262,260.537 105.5,259.5C 106.1,260.9 107.1,261.9 108.5,262.5C 105.525,264.232 102.525,266.065 99.5,268C 104.004,267.956 108.337,267.123 112.5,265.5C 114.228,265.59 115.894,265.923 117.5,266.5C 118.562,267.425 118.562,268.425 117.5,269.5C 115.697,270.046 114.03,270.88 112.5,272C 115.333,272.446 117.999,271.946 120.5,270.5C 124.449,268.897 128.116,269.397 131.5,272C 130.328,272.419 129.328,273.085 128.5,274C 123.734,274.913 119.068,276.08 114.5,277.5C 112.366,277.485 110.366,276.985 108.5,276C 109.056,275.617 109.389,275.117 109.5,274.5C 109.209,273.351 108.376,272.684 107,272.5C 104.384,272.617 102.884,273.95 102.5,276.5C 97.9775,274.701 93.3108,273.867 88.5,274C 88.1667,274.333 87.8333,274.667 87.5,275C 90.3454,275.008 92.3454,276.175 93.5,278.5C 89.6402,278.674 86.6402,277.341 84.5,274.5C 85.0431,274.44 85.3764,274.107 85.5,273.5C 83.4844,272.306 81.4844,272.306 79.5,273.5C 74.5237,273.797 72.857,271.797 74.5,267.5C 71.4788,268.005 68.4788,268.672 65.5,269.5C 63.3921,269.14 61.3921,268.473 59.5,267.5C 59.8627,266.817 60.1961,266.15 60.5,265.5C 61.0431,265.44 61.3764,265.107 61.5,264.5C 60.675,263.614 59.675,263.281 58.5,263.5C 58.5858,262.504 58.2524,261.671 57.5,261C 58,260.833 58.5,260.667 59,260.5C 64.9777,262.704 71.1444,264.37 77.5,265.5C 76.1501,266.824 76.3167,267.824 78,268.5C 79.8716,267.932 81.7049,267.265 83.5,266.5C 84.7733,265.743 84.7733,265.077 83.5,264.5C 82.2178,262.82 80.5511,261.487 78.5,260.5C 79.5137,259.326 80.847,258.66 82.5,258.5C 81.0474,259.825 81.3808,260.658 83.5,261C 85.4727,261.495 87.4727,261.662 89.5,261.5C 88.9094,262.151 88.2427,262.818 87.5,263.5C 90.4044,264.319 93.0711,263.653 95.5,261.5C 95.0431,260.702 94.3764,260.369 93.5,260.5C 93.4226,259.25 92.756,258.417 91.5,258C 88.854,257.503 86.1873,257.336 83.5,257.5C 83.1583,256.662 82.4916,256.328 81.5,256.5C 82.7804,255.069 84.4471,254.402 86.5,254.5 Z"/></g>
<g><path style="opacity:1" fill="#73777d" d="M 83.5,264.5 C 84.7733,265.077 84.7733,265.743 83.5,266.5C 81.7049,267.265 79.8716,267.932 78,268.5C 76.3167,267.824 76.1501,266.824 77.5,265.5C 79.4352,264.85 81.4352,264.517 83.5,264.5 Z"/></g>
<g><path style="opacity:1" fill="#666f75" d="M 280.5,264.5 C 273.977,267.786 266.977,270.119 259.5,271.5C 260.347,270.034 261.68,269.2 263.5,269C 269.111,267.208 274.777,265.708 280.5,264.5 Z"/></g>
<g><path style="opacity:0.004" fill="#2a2f30" d="M 292.5,268.5 C 293.833,269.167 293.833,269.167 292.5,268.5 Z"/></g>
<g><path style="opacity:1" fill="#73777d" d="M 93.5,268.5 C 94.9778,268.238 96.3112,268.571 97.5,269.5C 95.2585,270.692 92.9252,271.692 90.5,272.5C 89.479,271.998 89.3123,271.332 90,270.5C 91.3024,269.915 92.469,269.249 93.5,268.5 Z"/></g>
<g><path style="opacity:1" fill="#6d7076" d="M 120.5,270.5 C 117.999,271.946 115.333,272.446 112.5,272C 114.03,270.88 115.697,270.046 117.5,269.5C 118.496,269.586 119.329,269.252 120,268.5C 120.464,269.094 120.631,269.761 120.5,270.5 Z"/></g>
<g><path style="opacity:0.008" fill="#282b30" d="M 289.5,270.5 C 289.5,270.167 289.5,269.833 289.5,269.5C 290.5,269.5 291.5,269.5 292.5,269.5C 291.791,270.404 290.791,270.737 289.5,270.5 Z"/></g>
<g><path style="opacity:0.668" fill="#2b3134" d="M 297.5,255.5 C 298.551,258.344 298.551,261.344 297.5,264.5C 295.019,264.774 293.353,266.107 292.5,268.5C 291.209,268.263 290.209,268.596 289.5,269.5C 285.5,269.833 285.5,270.167 289.5,270.5C 282.666,271.889 275.999,273.889 269.5,276.5C 264.167,276.833 264.167,277.167 269.5,277.5C 264.322,278.759 258.989,279.925 253.5,281C 253.167,281.333 252.833,281.667 252.5,282C 257.541,283.008 257.208,283.508 251.5,283.5C 250.432,282.566 249.099,282.232 247.5,282.5C 246.244,282.539 245.244,282.039 244.5,281C 245.763,279.295 246.097,277.628 245.5,276C 250.523,275.307 255.189,273.807 259.5,271.5C 266.977,270.119 273.977,267.786 280.5,264.5C 280.611,263.883 280.944,263.383 281.5,263C 287.554,262.724 292.387,260.224 296,255.5C 296.779,258.097 297.279,258.097 297.5,255.5 Z"/></g>
<g><path style="opacity:1" fill="#6d7176" d="M 84.5,274.5 C 82.5454,275.323 80.5454,275.49 78.5,275C 79.056,274.617 79.3893,274.117 79.5,273.5C 81.4844,272.306 83.4844,272.306 85.5,273.5C 85.3764,274.107 85.0431,274.44 84.5,274.5 Z"/></g>
<g><path style="opacity:1" fill="#75797e" d="M 109.5,274.5 C 107.597,274.796 105.93,275.463 104.5,276.5C 103.833,276.5 103.167,276.5 102.5,276.5C 102.884,273.95 104.384,272.617 107,272.5C 108.376,272.684 109.209,273.351 109.5,274.5 Z"/></g>
<g><path style="opacity:1" fill="#999ca2" d="M 114.5,280.5 C 111.061,279.355 107.727,278.022 104.5,276.5C 105.93,275.463 107.597,274.796 109.5,274.5C 109.389,275.117 109.056,275.617 108.5,276C 110.366,276.985 112.366,277.485 114.5,277.5C 119.068,276.08 123.734,274.913 128.5,274C 129.328,273.085 130.328,272.419 131.5,272C 128.116,269.397 124.449,268.897 120.5,270.5C 120.631,269.761 120.464,269.094 120,268.5C 119.329,269.252 118.496,269.586 117.5,269.5C 118.562,268.425 118.562,267.425 117.5,266.5C 115.894,265.923 114.228,265.59 112.5,265.5C 108.337,267.123 104.004,267.956 99.5,268C 102.525,266.065 105.525,264.232 108.5,262.5C 109.833,262.5 111.167,262.5 112.5,262.5C 110.946,263.895 111.279,264.561 113.5,264.5C 115.135,263.954 116.801,263.62 118.5,263.5C 119.148,265.586 120.648,266.586 123,266.5C 128.855,264.518 134.855,262.852 141,261.5C 142.608,261.974 142.774,262.641 141.5,263.5C 136.987,264.295 132.987,266.128 129.5,269C 134.48,270.298 139.48,270.798 144.5,270.5C 134.692,274.436 124.692,277.769 114.5,280.5 Z"/></g>
<g><path style="opacity:0.004" fill="#252c2e" d="M 274.5,276.5 C 275.251,275.427 276.251,275.26 277.5,276C 276.552,276.483 275.552,276.649 274.5,276.5 Z"/></g>
<g><path style="opacity:0.006" fill="#262c2e" d="M 269.5,277.5 C 269.5,277.167 269.5,276.833 269.5,276.5C 274.833,276.833 274.833,277.167 269.5,277.5 Z"/></g>
<g><path style="opacity:0.899" fill="#d7dbe1" d="M 124.5,242.5 C 119.167,242.833 119.167,243.167 124.5,243.5C 130.028,245.624 135.695,247.29 141.5,248.5C 136.167,248.833 136.167,249.167 141.5,249.5C 146.089,252.024 151.089,253.358 156.5,253.5C 157.568,254.434 158.901,254.768 160.5,254.5C 160.833,254.5 161.167,254.5 161.5,254.5C 162.209,255.404 163.209,255.737 164.5,255.5C 165.167,255.5 165.5,255.833 165.5,256.5C 161.5,256.833 161.5,257.167 165.5,257.5C 165.833,257.5 166.167,257.5 166.5,257.5C 169.686,259.874 173.353,260.874 177.5,260.5C 178.568,261.434 179.901,261.768 181.5,261.5C 180.737,262.268 179.737,262.768 178.5,263C 179.793,263.49 181.127,263.657 182.5,263.5C 183.568,264.434 184.901,264.768 186.5,264.5C 187.568,265.434 188.901,265.768 190.5,265.5C 190.833,265.5 191.167,265.5 191.5,265.5C 193.522,267.693 196.189,268.693 199.5,268.5C 199.5,269.167 199.833,269.5 200.5,269.5C 201.167,269.5 201.5,269.833 201.5,270.5C 202.167,270.5 202.833,270.5 203.5,270.5C 204.568,271.434 205.901,271.768 207.5,271.5C 209.028,272.309 210.694,272.976 212.5,273.5C 213.935,274.096 215.602,274.096 217.5,273.5C 217.389,274.117 217.056,274.617 216.5,275C 218.813,275.662 221.146,276.162 223.5,276.5C 223.5,277.167 223.833,277.5 224.5,277.5C 225.209,278.404 226.209,278.737 227.5,278.5C 227.833,278.5 228.167,278.5 228.5,278.5C 229.919,279.451 231.585,279.784 233.5,279.5C 234.167,279.5 234.833,279.5 235.5,279.5C 232.742,280.967 233.075,281.633 236.5,281.5C 238.905,282.768 241.572,283.435 244.5,283.5C 244.611,284.117 244.944,284.617 245.5,285C 247.866,285.44 250.199,285.94 252.5,286.5C 251.71,287.794 250.71,288.961 249.5,290C 251.976,291.309 253.976,293.142 255.5,295.5C 254.807,296.518 254.141,297.518 253.5,298.5C 248.151,300.172 242.818,301.839 237.5,303.5C 235.801,303.66 234.134,303.494 232.5,303C 231.244,302.583 230.577,301.75 230.5,300.5C 233.528,298.86 236.861,298.026 240.5,298C 243.179,296.211 243.013,295.045 240,294.5C 234.62,295.734 229.453,297.401 224.5,299.5C 222.585,299.216 220.919,299.549 219.5,300.5C 217.62,300.771 216.287,300.104 215.5,298.5C 216.833,298.5 217.5,297.833 217.5,296.5C 222.018,295.119 226.352,293.286 230.5,291C 228.5,290.333 226.5,290.333 224.5,291C 220.199,292.478 215.866,293.978 211.5,295.5C 208.204,295.55 206.871,294.217 207.5,291.5C 211.149,290.887 214.482,289.387 217.5,287C 215.115,286.444 212.782,286.61 210.5,287.5C 207.607,287.969 205.607,286.969 204.5,284.5C 204.611,283.883 204.944,283.383 205.5,283C 203.071,282.297 200.738,282.463 198.5,283.5C 196.712,283.785 195.045,283.452 193.5,282.5C 192.209,281.473 192.209,280.473 193.5,279.5C 193.53,278.503 193.03,277.836 192,277.5C 186.271,278.694 180.771,280.361 175.5,282.5C 173.801,282.66 172.134,282.494 170.5,282C 169.244,281.583 168.577,280.75 168.5,279.5C 184.161,275.412 184.161,273.578 168.5,274C 166.381,273.658 166.047,272.825 167.5,271.5C 168.751,270.528 168.418,269.861 166.5,269.5C 164.865,270.046 163.199,270.38 161.5,270.5C 159.011,270.702 156.677,270.202 154.5,269C 155.056,268.617 155.389,268.117 155.5,267.5C 155.38,266.414 154.713,265.747 153.5,265.5C 151.044,265.753 149.044,266.753 147.5,268.5C 148.325,269.386 149.325,269.719 150.5,269.5C 152.5,270.167 153.833,271.5 154.5,273.5C 149.08,274.956 143.747,276.623 138.5,278.5C 136.219,278.077 134.552,278.744 133.5,280.5C 131.064,280.749 129.064,281.749 127.5,283.5C 130.58,284.536 133.247,283.869 135.5,281.5C 139.219,281.002 142.553,281.836 145.5,284C 144.944,284.383 144.611,284.883 144.5,285.5C 141.966,285.259 140.3,286.259 139.5,288.5C 130.881,286.581 122.548,283.915 114.5,280.5C 124.692,277.769 134.692,274.436 144.5,270.5C 139.48,270.798 134.48,270.298 129.5,269C 132.987,266.128 136.987,264.295 141.5,263.5C 142.774,262.641 142.608,261.974 141,261.5C 134.855,262.852 128.855,264.518 123,266.5C 120.648,266.586 119.148,265.586 118.5,263.5C 119.833,262.833 121.167,262.167 122.5,261.5C 125.308,260.897 127.974,259.897 130.5,258.5C 128.141,257.286 125.808,257.286 123.5,258.5C 120.729,258.579 118.063,258.079 115.5,257C 116.056,256.617 116.389,256.117 116.5,255.5C 117.289,255.217 117.956,254.717 118.5,254C 115.779,253.398 113.113,253.565 110.5,254.5C 108.345,254.628 106.345,254.128 104.5,253C 106.037,251.89 106.703,250.39 106.5,248.5C 105.209,248.263 104.209,248.596 103.5,249.5C 101.708,249.366 100.042,249.699 98.5,250.5C 95.786,250.25 93.1194,250.083 90.5,250C 91.756,250.417 92.4226,251.25 92.5,252.5C 90.5,253.167 88.5,253.833 86.5,254.5C 84.4471,254.402 82.7804,255.069 81.5,256.5C 79.0637,256.749 77.0637,257.749 75.5,259.5C 76.325,260.386 77.325,260.719 78.5,260.5C 80.5511,261.487 82.2178,262.82 83.5,264.5C 81.4352,264.517 79.4352,264.85 77.5,265.5C 71.1444,264.37 64.9777,262.704 59,260.5C 58.5,260.667 58,260.833 57.5,261C 58.2524,261.671 58.5858,262.504 58.5,263.5C 57.3285,264.345 55.9952,265.011 54.5,265.5C 51.2341,265.371 48.2341,264.371 45.5,262.5C 44.4593,264.991 43.6259,264.991 43,262.5C 42.4806,263.516 41.6473,264.182 40.5,264.5C 39.0445,263.61 37.7112,263.61 36.5,264.5C 34.2631,263.731 32.2631,262.564 30.5,261C 30.7284,260.601 31.0618,260.435 31.5,260.5C 36.6685,258.705 42.0018,257.205 47.5,256C 43.1482,255.581 42.8149,254.914 46.5,254C 53.6859,253.161 60.6859,251.495 67.5,249C 66.5,248.667 65.5,248.333 64.5,248C 72.7434,246.939 80.7434,244.939 88.5,242C 84.8149,241.086 85.1482,240.419 89.5,240C 98.1667,239.333 106.833,239.333 115.5,240C 118.678,240.66 121.678,241.493 124.5,242.5 Z"/></g>
<g><path style="opacity:1" fill="#9a9da3" d="M 167.5,271.5 C 166.047,272.825 166.381,273.658 168.5,274C 184.161,273.578 184.161,275.412 168.5,279.5C 166.45,279.961 164.45,280.628 162.5,281.5C 161.702,281.043 161.369,280.376 161.5,279.5C 167.626,277.983 167.959,275.983 162.5,273.5C 163.93,272.463 165.597,271.796 167.5,271.5 Z"/></g>
<g><path style="opacity:1" fill="#83878c" d="M 154.5,273.5 C 155.376,273.369 156.043,273.702 156.5,274.5C 155.007,275.141 154.007,276.141 153.5,277.5C 150.162,277.065 147.162,277.732 144.5,279.5C 142.181,280.167 139.847,280.334 137.5,280C 138.056,279.617 138.389,279.117 138.5,278.5C 143.747,276.623 149.08,274.956 154.5,273.5 Z"/></g>
<g><path style="opacity:1" fill="#e1e5eb" d="M 162.5,273.5 C 167.959,275.983 167.626,277.983 161.5,279.5C 159.217,279.392 157.217,278.559 155.5,277C 157.734,275.415 160.067,274.248 162.5,273.5 Z"/></g>
<g><path style="opacity:1" fill="#787c82" d="M 167.5,271.5 C 165.597,271.796 163.93,272.463 162.5,273.5C 158.995,273.306 158.662,272.306 161.5,270.5C 163.199,270.38 164.865,270.046 166.5,269.5C 168.418,269.861 168.751,270.528 167.5,271.5 Z"/></g>
<g><path style="opacity:1" fill="#767a80" d="M 155.5,267.5 C 153.597,267.796 151.93,268.463 150.5,269.5C 149.325,269.719 148.325,269.386 147.5,268.5C 149.044,266.753 151.044,265.753 153.5,265.5C 154.713,265.747 155.38,266.414 155.5,267.5 Z"/></g>
<g><path style="opacity:1" fill="#6e7278" d="M 116.5,261.5 C 118.993,261.131 119.66,261.797 118.5,263.5C 116.801,263.62 115.135,263.954 113.5,264.5C 111.279,264.561 110.946,263.895 112.5,262.5C 113.708,261.766 115.041,261.433 116.5,261.5 Z"/></g>
<g><path style="opacity:1" fill="#74787d" d="M 93.5,260.5 C 94.3764,260.369 95.0431,260.702 95.5,261.5C 93.0711,263.653 90.4044,264.319 87.5,263.5C 88.2427,262.818 88.9094,262.151 89.5,261.5C 90.8333,261.167 92.1667,260.833 93.5,260.5 Z"/></g>
<g><path style="opacity:1" fill="#e4e9ee" d="M 116.5,261.5 C 115.041,261.433 113.708,261.766 112.5,262.5C 111.167,262.5 109.833,262.5 108.5,262.5C 107.1,261.9 106.1,260.9 105.5,259.5C 106.167,259.167 106.833,258.833 107.5,258.5C 111.513,256.726 114.513,257.726 116.5,261.5 Z"/></g>
<g><path style="opacity:1" fill="#74787d" d="M 122.5,261.5 C 122.557,260.391 122.89,259.391 123.5,258.5C 125.808,257.286 128.141,257.286 130.5,258.5C 127.974,259.897 125.308,260.897 122.5,261.5 Z"/></g>
<g><path style="opacity:1" fill="#767b80" d="M 104.5,256.5 C 106.179,256.285 107.179,256.952 107.5,258.5C 106.833,258.833 106.167,259.167 105.5,259.5C 103.262,260.537 100.929,260.703 98.5,260C 99.056,259.617 99.3893,259.117 99.5,258.5C 101.306,257.976 102.972,257.309 104.5,256.5 Z"/></g>
<g><path style="opacity:1" fill="#e7ebf0" d="M 83.5,257.5 C 86.1873,257.336 88.854,257.503 91.5,258C 92.756,258.417 93.4226,259.25 93.5,260.5C 92.1667,260.833 90.8333,261.167 89.5,261.5C 87.4727,261.662 85.4727,261.495 83.5,261C 81.3808,260.658 81.0474,259.825 82.5,258.5C 83.1667,258.5 83.5,258.167 83.5,257.5 Z"/></g>
<g><path style="opacity:1" fill="#74787e" d="M 81.5,256.5 C 82.4916,256.328 83.1583,256.662 83.5,257.5C 83.5,258.167 83.1667,258.5 82.5,258.5C 80.847,258.66 79.5137,259.326 78.5,260.5C 77.325,260.719 76.325,260.386 75.5,259.5C 77.0637,257.749 79.0637,256.749 81.5,256.5 Z"/></g>
<g><path style="opacity:1" fill="#6d7176" d="M 116.5,255.5 C 115.183,255.821 113.849,256.154 112.5,256.5C 111.287,256.253 110.62,255.586 110.5,254.5C 113.113,253.565 115.779,253.398 118.5,254C 117.956,254.717 117.289,255.217 116.5,255.5 Z"/></g>
<g><path style="opacity:1" fill="#e4e8ee" d="M 104.5,256.5 C 102.972,257.309 101.306,257.976 99.5,258.5C 96.784,258.614 94.784,257.614 93.5,255.5C 93.5,254.833 93.8333,254.5 94.5,254.5C 98.4658,252.679 101.799,253.346 104.5,256.5 Z"/></g>
<g><path style="opacity:1" fill="#707379" d="M 92.5,252.5 C 93.8333,252.5 94.5,253.167 94.5,254.5C 93.8333,254.5 93.5,254.833 93.5,255.5C 92.0328,255.894 90.5328,256.227 89,256.5C 87.6244,256.316 86.7911,255.649 86.5,254.5C 88.5,253.833 90.5,253.167 92.5,252.5 Z"/></g>
<g><path style="opacity:1" fill="#b4b8be" d="M 103.5,249.5 C 104.209,248.596 105.209,248.263 106.5,248.5C 106.703,250.39 106.037,251.89 104.5,253C 106.345,254.128 108.345,254.628 110.5,254.5C 110.62,255.586 111.287,256.253 112.5,256.5C 113.849,256.154 115.183,255.821 116.5,255.5C 116.389,256.117 116.056,256.617 115.5,257C 118.063,258.079 120.729,258.579 123.5,258.5C 122.89,259.391 122.557,260.391 122.5,261.5C 121.167,262.167 119.833,262.833 118.5,263.5C 119.66,261.797 118.993,261.131 116.5,261.5C 114.513,257.726 111.513,256.726 107.5,258.5C 107.179,256.952 106.179,256.285 104.5,256.5C 101.799,253.346 98.4658,252.679 94.5,254.5C 94.5,253.167 93.8333,252.5 92.5,252.5C 92.4226,251.25 91.756,250.417 90.5,250C 93.1194,250.083 95.786,250.25 98.5,250.5C 96.9456,251.895 97.279,252.561 99.5,252.5C 101.731,252.147 103.731,251.314 105.5,250C 104.906,249.536 104.239,249.369 103.5,249.5 Z"/></g>
<g><path style="opacity:1" fill="#6b6f75" d="M 103.5,249.5 C 104.239,249.369 104.906,249.536 105.5,250C 103.731,251.314 101.731,252.147 99.5,252.5C 97.279,252.561 96.9456,251.895 98.5,250.5C 100.042,249.699 101.708,249.366 103.5,249.5 Z"/></g>
<g><path style="opacity:1" fill="#e5e8ee" d="M 153.5,277.5 C 154.6,278.558 155.934,279.392 157.5,280C 156.584,280.278 155.918,280.778 155.5,281.5C 154.041,281.433 152.708,281.766 151.5,282.5C 149.801,282.66 148.134,282.494 146.5,282C 145.244,281.583 144.577,280.75 144.5,279.5C 147.162,277.732 150.162,277.065 153.5,277.5 Z"/></g>
<g><path style="opacity:1" fill="#ebeef4" d="M 102.5,276.5 C 103.167,276.5 103.833,276.5 104.5,276.5C 107.727,278.022 111.061,279.355 114.5,280.5C 122.548,283.915 130.881,286.581 139.5,288.5C 143.04,290.791 147.04,292.125 151.5,292.5C 154.085,293.002 156.418,294.169 158.5,296C 157.944,296.383 157.611,296.883 157.5,297.5C 156.167,297.833 154.833,298.167 153.5,298.5C 133.392,292.02 113.392,285.353 93.5,278.5C 92.3454,276.175 90.3454,275.008 87.5,275C 87.8333,274.667 88.1667,274.333 88.5,274C 93.3108,273.867 97.9775,274.701 102.5,276.5 Z"/></g>
<g><path style="opacity:1" fill="#8b8f94" d="M 193.5,279.5 C 191.033,279.755 189.033,280.755 187.5,282.5C 185.379,282.325 183.379,282.659 181.5,283.5C 179.772,284.379 177.939,285.046 176,285.5C 172.993,285.001 172.826,284.001 175.5,282.5C 180.771,280.361 186.271,278.694 192,277.5C 193.03,277.836 193.53,278.503 193.5,279.5 Z"/></g>
<g><path style="opacity:1" fill="#787c81" d="M 133.5,280.5 C 134.492,280.328 135.158,280.662 135.5,281.5C 133.247,283.869 130.58,284.536 127.5,283.5C 129.064,281.749 131.064,280.749 133.5,280.5 Z"/></g>
<g><path style="opacity:1" fill="#b8bcc2" d="M 193.5,279.5 C 192.209,280.473 192.209,281.473 193.5,282.5C 195.045,283.452 196.712,283.785 198.5,283.5C 196.946,284.895 197.279,285.561 199.5,285.5C 201.135,284.954 202.801,284.62 204.5,284.5C 205.607,286.969 207.607,287.969 210.5,287.5C 208.343,288.407 206.01,289.073 203.5,289.5C 200.752,286.371 197.418,285.704 193.5,287.5C 193.158,286.662 192.492,286.328 191.5,286.5C 191.167,284.167 189.833,282.833 187.5,282.5C 189.033,280.755 191.033,279.755 193.5,279.5 Z"/></g>
<g><path style="opacity:1" fill="#e5e9ef" d="M 187.5,282.5 C 189.833,282.833 191.167,284.167 191.5,286.5C 189.708,286.366 188.042,286.699 186.5,287.5C 184.407,286.955 182.407,286.122 180.5,285C 181.056,284.617 181.389,284.117 181.5,283.5C 183.379,282.659 185.379,282.325 187.5,282.5 Z"/></g>
<g><path style="opacity:0.004" fill="#4e5658" d="M 251.5,283.5 C 250.749,284.573 249.749,284.74 248.5,284C 249.448,283.517 250.448,283.351 251.5,283.5 Z"/></g>
<g><path style="opacity:0.008" fill="#3f464c" d="M 61.5,284.5 C 60.3991,285.598 59.0657,285.765 57.5,285C 58.7932,284.51 60.1266,284.343 61.5,284.5 Z"/></g>
<g><path style="opacity:1" fill="#6b6e74" d="M 204.5,284.5 C 202.801,284.62 201.135,284.954 199.5,285.5C 197.279,285.561 196.946,284.895 198.5,283.5C 200.738,282.463 203.071,282.297 205.5,283C 204.944,283.383 204.611,283.883 204.5,284.5 Z"/></g>
<g><path style="opacity:0.729" fill="#444a4f" d="M 169.5,315.5 C 166.754,314.531 163.921,313.864 161,313.5C 159.213,313.759 157.713,314.425 156.5,315.5C 149.995,313.469 143.328,311.969 136.5,311C 137.5,310.667 138.5,310.333 139.5,310C 130.385,306.84 121.052,304.506 111.5,303C 112.833,302.667 114.167,302.333 115.5,302C 110.345,300.962 105.345,299.462 100.5,297.5C 97.1001,298.22 93.7668,297.72 90.5,296C 91.8333,295.667 93.1667,295.333 94.5,295C 90.8634,294.232 87.3634,293.066 84,291.5C 82.5349,292.33 81.0349,292.496 79.5,292C 81.5951,291.444 81.7618,290.944 80,290.5C 77.1655,291.461 74.3321,291.294 71.5,290C 72.3081,289.692 72.9747,289.192 73.5,288.5C 69.468,287.145 65.468,285.811 61.5,284.5C 53.703,280.966 45.3697,278.799 36.5,278C 37.8333,277.667 39.1667,277.333 40.5,277C 33.927,275.372 27.5936,273.206 21.5,270.5C 21.5,269.5 21.5,268.5 21.5,267.5C 22.1515,266.909 22.8182,266.243 23.5,265.5C 24.2164,266.311 25.0497,266.978 26,267.5C 39.288,271.596 52.4547,276.096 65.5,281C 100.003,291.613 134.336,302.613 168.5,314C 169.056,314.383 169.389,314.883 169.5,315.5 Z"/></g>
<g><path style="opacity:1" fill="#6f7278" d="M 144.5,285.5 C 146.379,285.393 146.712,285.893 145.5,287C 143.564,287.813 141.564,288.313 139.5,288.5C 140.3,286.259 141.966,285.259 144.5,285.5 Z"/></g>
<g><path style="opacity:0.004" fill="#c7d0d7" d="M 261.5,289.5 C 261.5,289.167 261.5,288.833 261.5,288.5C 263.099,288.232 264.432,288.566 265.5,289.5C 264.167,289.5 262.833,289.5 261.5,289.5 Z"/></g>
<g><path style="opacity:0.004" fill="#c8d2d7" d="M 265.5,289.5 C 266.552,289.351 267.552,289.517 268.5,290C 267.251,290.74 266.251,290.573 265.5,289.5 Z"/></g>
<g><path style="opacity:0.004" fill="#3e4346" d="M 84.5,293.5 C 85.8333,294.167 85.8333,294.167 84.5,293.5 Z"/></g>
<g><path style="opacity:1" fill="#b3b9be" d="M 60.5,265.5 C 60.1961,266.15 59.8627,266.817 59.5,267.5C 61.3921,268.473 63.3921,269.14 65.5,269.5C 68.4788,268.672 71.4788,268.005 74.5,267.5C 72.857,271.797 74.5237,273.797 79.5,273.5C 79.3893,274.117 79.056,274.617 78.5,275C 80.5454,275.49 82.5454,275.323 84.5,274.5C 86.6402,277.341 89.6402,278.674 93.5,278.5C 113.392,285.353 133.392,292.02 153.5,298.5C 153.167,299.167 152.833,299.833 152.5,300.5C 128.908,294.183 105.908,286.516 83.5,277.5C 75.9926,275.83 68.6593,273.663 61.5,271C 59.6769,270.003 58.0103,268.836 56.5,267.5C 57.5137,266.326 58.847,265.66 60.5,265.5 Z"/></g>
<g><path style="opacity:1" fill="#6d7378" d="M 157.5,297.5 C 158.552,297.351 159.552,297.517 160.5,298C 158.091,299.707 155.425,300.54 152.5,300.5C 152.833,299.833 153.167,299.167 153.5,298.5C 154.833,298.167 156.167,297.833 157.5,297.5 Z"/></g>
<g><path style="opacity:1" fill="#c2c7cd" d="M 155.5,267.5 C 155.389,268.117 155.056,268.617 154.5,269C 156.677,270.202 159.011,270.702 161.5,270.5C 158.662,272.306 158.995,273.306 162.5,273.5C 160.067,274.248 157.734,275.415 155.5,277C 157.217,278.559 159.217,279.392 161.5,279.5C 161.369,280.376 161.702,281.043 162.5,281.5C 164.45,280.628 166.45,279.961 168.5,279.5C 168.577,280.75 169.244,281.583 170.5,282C 172.134,282.494 173.801,282.66 175.5,282.5C 172.826,284.001 172.993,285.001 176,285.5C 177.939,285.046 179.772,284.379 181.5,283.5C 181.389,284.117 181.056,284.617 180.5,285C 182.407,286.122 184.407,286.955 186.5,287.5C 184.946,288.895 185.279,289.561 187.5,289.5C 189.516,288.822 191.516,288.156 193.5,287.5C 194.392,290.292 196.392,291.625 199.5,291.5C 197.946,292.895 198.279,293.561 200.5,293.5C 202.851,292.827 205.184,292.16 207.5,291.5C 206.871,294.217 208.204,295.55 211.5,295.5C 211.47,296.497 211.97,297.164 213,297.5C 214.44,296.852 215.94,296.519 217.5,296.5C 217.5,297.833 216.833,298.5 215.5,298.5C 213.167,298.5 210.833,298.5 208.5,298.5C 208.158,297.662 207.492,297.328 206.5,297.5C 206.119,296.069 205.119,295.236 203.5,295C 200.739,294.278 198.073,294.445 195.5,295.5C 193.342,293.077 191.009,293.244 188.5,296C 190.545,296.49 192.545,296.323 194.5,295.5C 193.047,296.825 193.381,297.658 195.5,298C 197.473,298.495 199.473,298.662 201.5,298.5C 201.047,299.458 200.381,300.292 199.5,301C 202.594,301.251 205.594,300.751 208.5,299.5C 208.532,301.567 209.532,302.9 211.5,303.5C 216.976,305.619 222.643,306.619 228.5,306.5C 231.125,305.559 231.125,304.393 228.5,303C 225.278,302.801 222.278,301.968 219.5,300.5C 220.919,299.549 222.585,299.216 224.5,299.5C 222.946,300.895 223.279,301.561 225.5,301.5C 227.135,300.954 228.801,300.62 230.5,300.5C 230.577,301.75 231.244,302.583 232.5,303C 234.134,303.494 235.801,303.66 237.5,303.5C 236.15,304.824 236.317,305.824 238,306.5C 244.178,304.999 250.011,302.665 255.5,299.5C 255.043,298.702 254.376,298.369 253.5,298.5C 254.141,297.518 254.807,296.518 255.5,295.5C 253.976,293.142 251.976,291.309 249.5,290C 250.71,288.961 251.71,287.794 252.5,286.5C 255.781,286.42 258.781,287.087 261.5,288.5C 256.167,288.833 256.167,289.167 261.5,289.5C 264.926,291.2 268.593,292.534 272.5,293.5C 273.705,294.577 274.372,295.91 274.5,297.5C 273.106,299.708 271.106,301.208 268.5,302C 251.236,306.899 234.236,312.565 217.5,319C 215.866,319.494 214.199,319.66 212.5,319.5C 212.918,318.778 213.584,318.278 214.5,318C 213.833,317.667 213.167,317.333 212.5,317C 207.126,317.997 201.792,317.664 196.5,316C 196.043,315.586 195.709,315.086 195.5,314.5C 180.731,310.576 166.397,305.909 152.5,300.5C 155.425,300.54 158.091,299.707 160.5,298C 159.552,297.517 158.552,297.351 157.5,297.5C 157.611,296.883 157.944,296.383 158.5,296C 156.418,294.169 154.085,293.002 151.5,292.5C 147.04,292.125 143.04,290.791 139.5,288.5C 141.564,288.313 143.564,287.813 145.5,287C 146.712,285.893 146.379,285.393 144.5,285.5C 144.611,284.883 144.944,284.383 145.5,284C 142.553,281.836 139.219,281.002 135.5,281.5C 135.158,280.662 134.492,280.328 133.5,280.5C 134.552,278.744 136.219,278.077 138.5,278.5C 138.389,279.117 138.056,279.617 137.5,280C 139.847,280.334 142.181,280.167 144.5,279.5C 144.577,280.75 145.244,281.583 146.5,282C 148.134,282.494 149.801,282.66 151.5,282.5C 149.946,283.895 150.279,284.561 152.5,284.5C 154.731,284.147 156.731,283.314 158.5,282C 157.552,281.517 156.552,281.351 155.5,281.5C 155.918,280.778 156.584,280.278 157.5,280C 155.934,279.392 154.6,278.558 153.5,277.5C 154.007,276.141 155.007,275.141 156.5,274.5C 156.043,273.702 155.376,273.369 154.5,273.5C 153.833,271.5 152.5,270.167 150.5,269.5C 151.93,268.463 153.597,267.796 155.5,267.5 Z"/></g>
<g><path style="opacity:1" fill="#858a90" d="M 230.5,300.5 C 228.801,300.62 227.135,300.954 225.5,301.5C 223.279,301.561 222.946,300.895 224.5,299.5C 229.453,297.401 234.62,295.734 240,294.5C 243.013,295.045 243.179,296.211 240.5,298C 236.861,298.026 233.528,298.86 230.5,300.5 Z"/></g>
<g><path style="opacity:1" fill="#787b81" d="M 206.5,297.5 C 207.492,297.328 208.158,297.662 208.5,298.5C 208.5,298.833 208.5,299.167 208.5,299.5C 205.594,300.751 202.594,301.251 199.5,301C 200.381,300.292 201.047,299.458 201.5,298.5C 203.117,297.962 204.784,297.629 206.5,297.5 Z"/></g>
<g><path style="opacity:1" fill="#e5e9ee" d="M 206.5,297.5 C 204.784,297.629 203.117,297.962 201.5,298.5C 199.473,298.662 197.473,298.495 195.5,298C 193.381,297.658 193.047,296.825 194.5,295.5C 194.833,295.5 195.167,295.5 195.5,295.5C 198.073,294.445 200.739,294.278 203.5,295C 205.119,295.236 206.119,296.069 206.5,297.5 Z"/></g>
<g><path style="opacity:1" fill="#6b6e74" d="M 195.5,295.5 C 195.167,295.5 194.833,295.5 194.5,295.5C 192.545,296.323 190.545,296.49 188.5,296C 191.009,293.244 193.342,293.077 195.5,295.5 Z"/></g>
<g><path style="opacity:1" fill="#6b6e74" d="M 168.5,293.5 C 169.873,293.343 171.207,293.51 172.5,294C 170.065,296.098 167.399,296.598 164.5,295.5C 165.949,294.828 167.282,294.161 168.5,293.5 Z"/></g>
<g><path style="opacity:1" fill="#83868c" d="M 217.5,296.5 C 215.94,296.519 214.44,296.852 213,297.5C 211.97,297.164 211.47,296.497 211.5,295.5C 215.866,293.978 220.199,292.478 224.5,291C 226.5,290.333 228.5,290.333 230.5,291C 226.352,293.286 222.018,295.119 217.5,296.5 Z"/></g>
<g><path style="opacity:1" fill="#73777c" d="M 178.5,289.5 C 180.199,289.34 181.866,289.506 183.5,290C 181.049,292.211 178.382,293.044 175.5,292.5C 176.34,291.265 177.34,290.265 178.5,289.5 Z"/></g>
<g><path style="opacity:1" fill="#7e8388" d="M 207.5,291.5 C 205.184,292.16 202.851,292.827 200.5,293.5C 198.279,293.561 197.946,292.895 199.5,291.5C 200.833,290.833 202.167,290.167 203.5,289.5C 206.01,289.073 208.343,288.407 210.5,287.5C 212.782,286.61 215.115,286.444 217.5,287C 214.482,289.387 211.149,290.887 207.5,291.5 Z"/></g>
<g><path style="opacity:1" fill="#72757b" d="M 191.5,286.5 C 192.492,286.328 193.158,286.662 193.5,287.5C 191.516,288.156 189.516,288.822 187.5,289.5C 185.279,289.561 184.946,288.895 186.5,287.5C 188.042,286.699 189.708,286.366 191.5,286.5 Z"/></g>
<g><path style="opacity:1" fill="#84888e" d="M 167.5,285.5 C 168.675,285.281 169.675,285.614 170.5,286.5C 170,286.833 169.5,287.167 169,287.5C 164.979,288.63 161.146,290.13 157.5,292C 155.527,292.495 153.527,292.662 151.5,292.5C 151.953,291.542 152.619,290.708 153.5,290C 158.311,288.552 162.977,287.052 167.5,285.5 Z"/></g>
<g><path style="opacity:1" fill="#e7ebf1" d="M 203.5,289.5 C 202.167,290.167 200.833,290.833 199.5,291.5C 196.392,291.625 194.392,290.292 193.5,287.5C 197.418,285.704 200.752,286.371 203.5,289.5 Z"/></g>
<g><path style="opacity:1" fill="#ebeff5" d="M 167.5,285.5 C 164.15,285.665 160.817,285.498 157.5,285C 160.032,282.585 163.032,281.919 166.5,283C 167.252,283.671 167.586,284.504 167.5,285.5 Z"/></g>
<g><path style="opacity:1" fill="#6d7176" d="M 155.5,281.5 C 156.552,281.351 157.552,281.517 158.5,282C 156.731,283.314 154.731,284.147 152.5,284.5C 150.279,284.561 149.946,283.895 151.5,282.5C 152.708,281.766 154.041,281.433 155.5,281.5 Z"/></g>
<g><path style="opacity:1" fill="#878c91" d="M 184.5,299.5 C 183.5,299.833 182.833,300.5 182.5,301.5C 178.556,301.113 174.889,301.78 171.5,303.5C 169.516,304.694 167.516,304.694 165.5,303.5C 170.634,300.569 176.134,298.569 182,297.5C 183.376,297.684 184.209,298.351 184.5,299.5 Z"/></g>
<g><path style="opacity:1" fill="#eaedf3" d="M 194.5,301.5 C 193.041,301.433 191.708,301.766 190.5,302.5C 187.794,302.425 185.127,302.092 182.5,301.5C 182.833,300.5 183.5,299.833 184.5,299.5C 187.113,298.565 189.779,298.398 192.5,299C 193.756,299.417 194.423,300.25 194.5,301.5 Z"/></g>
<g><path style="opacity:0.004" fill="#3b414b" d="M 276.5,297.5 C 277.613,298.946 277.78,300.613 277,302.5C 276.506,300.866 276.34,299.199 276.5,297.5 Z"/></g>
<g><path style="opacity:1" fill="#899095" d="M 253.5,298.5 C 254.376,298.369 255.043,298.702 255.5,299.5C 250.011,302.665 244.178,304.999 238,306.5C 236.317,305.824 236.15,304.824 237.5,303.5C 242.818,301.839 248.151,300.172 253.5,298.5 Z"/></g>
<g><path style="opacity:1" fill="#e7ecf1" d="M 182.5,301.5 C 183.405,302.964 183.405,304.298 182.5,305.5C 181.833,305.5 181.167,305.5 180.5,305.5C 177.813,305.664 175.146,305.497 172.5,305C 171.944,304.617 171.611,304.117 171.5,303.5C 174.889,301.78 178.556,301.113 182.5,301.5 Z"/></g>
<g><path style="opacity:1" fill="#e9edf2" d="M 219.5,309.5 C 218.292,310.234 216.959,310.567 215.5,310.5C 207.905,310.145 201.239,307.812 195.5,303.5C 195.833,303.5 196.167,303.5 196.5,303.5C 199.113,302.565 201.779,302.398 204.5,303C 207.657,304.578 210.991,305.578 214.5,306C 216.431,306.902 218.097,308.069 219.5,309.5 Z"/></g>
<g><path style="opacity:1" fill="#ebeff5" d="M 208.5,298.5 C 210.833,298.5 213.167,298.5 215.5,298.5C 216.287,300.104 217.62,300.771 219.5,300.5C 222.278,301.968 225.278,302.801 228.5,303C 231.125,304.393 231.125,305.559 228.5,306.5C 222.643,306.619 216.976,305.619 211.5,303.5C 209.532,302.9 208.532,301.567 208.5,299.5C 208.5,299.167 208.5,298.833 208.5,298.5 Z"/></g>
<g><path style="opacity:1" fill="#6d7076" d="M 194.5,301.5 C 196.993,301.131 197.66,301.797 196.5,303.5C 196.167,303.5 195.833,303.5 195.5,303.5C 193.545,304.323 191.545,304.49 189.5,304C 190.056,303.617 190.389,303.117 190.5,302.5C 191.708,301.766 193.041,301.433 194.5,301.5 Z"/></g>
<g><path style="opacity:0.004" fill="#202526" d="M 275.5,303.5 C 276.833,304.167 276.833,304.167 275.5,303.5 Z"/></g>
<g><path style="opacity:1" fill="#73777c" d="M 186.5,306.5 C 185.833,306.833 185.167,307.167 184.5,307.5C 182.46,308.519 180.46,308.519 178.5,307.5C 179.243,306.818 179.909,306.151 180.5,305.5C 181.167,305.5 181.833,305.5 182.5,305.5C 183.583,305.461 184.583,305.127 185.5,304.5C 186.298,304.957 186.631,305.624 186.5,306.5 Z"/></g>
<g><path style="opacity:0.579" fill="#303539" d="M 274.5,297.5 C 275.764,299.772 275.598,302.105 274,304.5C 271.987,306.248 269.82,307.582 267.5,308.5C 262.167,308.833 262.167,309.167 267.5,309.5C 262.444,311.347 257.111,312.514 251.5,313C 249.685,313.757 248.019,314.59 246.5,315.5C 244.901,315.232 243.568,315.566 242.5,316.5C 237.167,316.833 237.167,317.167 242.5,317.5C 236.616,318.425 230.949,320.092 225.5,322.5C 223.901,322.232 222.568,322.566 221.5,323.5C 219.901,323.232 218.568,323.566 217.5,324.5C 213.532,325.811 209.532,327.145 205.5,328.5C 208.131,330.005 207.797,330.671 204.5,330.5C 200.812,329.238 196.978,329.238 193,330.5C 192.5,330.333 192,330.167 191.5,330C 194.028,329.002 194.028,328.169 191.5,327.5C 188.724,327.181 186.224,326.181 184,324.5C 182.211,325.409 180.377,325.576 178.5,325C 182.226,323.957 181.893,323.457 177.5,323.5C 169.609,320.148 161.276,317.981 152.5,317C 154.058,316.79 155.391,316.29 156.5,315.5C 157.713,314.425 159.213,313.759 161,313.5C 163.921,313.864 166.754,314.531 169.5,315.5C 176.261,316.31 182.595,318.31 188.5,321.5C 188.611,322.117 188.944,322.617 189.5,323C 195.718,325.143 201.718,324.976 207.5,322.5C 209.072,321.313 210.739,320.313 212.5,319.5C 214.199,319.66 215.866,319.494 217.5,319C 234.236,312.565 251.236,306.899 268.5,302C 271.106,301.208 273.106,299.708 274.5,297.5 Z"/></g>
<g><path style="opacity:0.005" fill="#3e4549" d="M 128.5,309.5 C 129.251,308.427 130.251,308.26 131.5,309C 130.552,309.483 129.552,309.649 128.5,309.5 Z"/></g>
<g><path style="opacity:1" fill="#e8ecf1" d="M 186.5,306.5 C 188.857,306.337 191.19,306.503 193.5,307C 194.756,307.417 195.423,308.25 195.5,309.5C 195.167,309.5 194.833,309.5 194.5,309.5C 190.671,310.069 187.337,309.402 184.5,307.5C 185.167,307.167 185.833,306.833 186.5,306.5 Z"/></g>
<g><path style="opacity:0.008" fill="#282f32" d="M 267.5,309.5 C 267.5,309.167 267.5,308.833 267.5,308.5C 271.5,308.833 271.5,309.167 267.5,309.5 Z"/></g>
<g><path style="opacity:1" fill="#696d72" d="M 194.5,309.5 C 194.833,309.5 195.167,309.5 195.5,309.5C 196.552,309.351 197.552,309.517 198.5,310C 196.13,311.902 193.464,312.569 190.5,312C 191.858,311.066 193.192,310.232 194.5,309.5 Z"/></g>
<g><path style="opacity:1" fill="#797e83" d="M 228.5,306.5 C 229.873,306.343 231.207,306.51 232.5,307C 227.202,309.917 221.535,312.084 215.5,313.5C 214.438,312.575 214.438,311.575 215.5,310.5C 216.959,310.567 218.292,310.234 219.5,309.5C 222.746,308.946 225.746,307.946 228.5,306.5 Z"/></g>
<g><path style="opacity:0.004" fill="#393c42" d="M 146.5,314.5 C 147.833,315.167 147.833,315.167 146.5,314.5 Z"/></g>
<g><path style="opacity:0.004" fill="#292e32" d="M 251.5,314.5 C 252.833,315.167 252.833,315.167 251.5,314.5 Z"/></g>
<g><path style="opacity:1" fill="#666b70" d="M 206.5,313.5 C 211.475,314.404 211.142,315.404 205.5,316.5C 204.833,316.333 204.167,316.167 203.5,316C 204.571,315.148 205.571,314.315 206.5,313.5 Z"/></g>
<g><path style="opacity:0.004" fill="#2b3034" d="M 246.5,316.5 C 246.5,316.167 246.5,315.833 246.5,315.5C 250.5,315.833 250.5,316.167 246.5,316.5 Z"/></g>
<g><path style="opacity:1" fill="#ced4d9" d="M 31.5,260.5 C 31.0618,260.435 30.7284,260.601 30.5,261C 32.2631,262.564 34.2631,263.731 36.5,264.5C 37.7112,263.61 39.0445,263.61 40.5,264.5C 41.6473,264.182 42.4806,263.516 43,262.5C 43.6259,264.991 44.4593,264.991 45.5,262.5C 48.2341,264.371 51.2341,265.371 54.5,265.5C 53.3398,267.203 54.0065,267.869 56.5,267.5C 58.0103,268.836 59.6769,270.003 61.5,271C 68.6593,273.663 75.9926,275.83 83.5,277.5C 105.908,286.516 128.908,294.183 152.5,300.5C 166.397,305.909 180.731,310.576 195.5,314.5C 195.709,315.086 196.043,315.586 196.5,316C 201.792,317.664 207.126,317.997 212.5,317C 213.167,317.333 213.833,317.667 214.5,318C 213.584,318.278 212.918,318.778 212.5,319.5C 210.739,320.313 209.072,321.313 207.5,322.5C 201.063,324.007 194.729,323.673 188.5,321.5C 182.595,318.31 176.261,316.31 169.5,315.5C 169.389,314.883 169.056,314.383 168.5,314C 134.336,302.613 100.003,291.613 65.5,281C 52.4547,276.096 39.288,271.596 26,267.5C 25.0497,266.978 24.2164,266.311 23.5,265.5C 22.8182,266.243 22.1515,266.909 21.5,267.5C 21.8087,264.654 23.4754,263.154 26.5,263C 25.8333,262.667 25.1667,262.333 24.5,262C 26.8962,260.446 29.2295,259.946 31.5,260.5 Z"/></g>
<g><path style="opacity:0.007" fill="#2a2d30" d="M 242.5,317.5 C 242.5,317.167 242.5,316.833 242.5,316.5C 243.833,316.5 245.167,316.5 246.5,316.5C 245.432,317.434 244.099,317.768 242.5,317.5 Z"/></g>
<g><path style="opacity:0.004" fill="#2c3032" d="M 167.5,321.5 C 168.833,322.167 168.833,322.167 167.5,321.5 Z"/></g>
<g><path style="opacity:0.004" fill="#2c2d31" d="M 225.5,323.5 C 225.5,323.167 225.5,322.833 225.5,322.5C 230.833,322.833 230.833,323.167 225.5,323.5 Z"/></g>
<g><path style="opacity:0.006" fill="#282f30" d="M 177.5,323.5 C 176.399,324.598 175.066,324.765 173.5,324C 174.793,323.51 176.127,323.343 177.5,323.5 Z"/></g>
<g><path style="opacity:1" fill="#6d7174" d="M 188.5,321.5 C 194.729,323.673 201.063,324.007 207.5,322.5C 201.718,324.976 195.718,325.143 189.5,323C 188.944,322.617 188.611,322.117 188.5,321.5 Z"/></g>
<g><path style="opacity:0.005" fill="#2a2b30" d="M 221.5,324.5 C 221.5,324.167 221.5,323.833 221.5,323.5C 222.833,323.5 224.167,323.5 225.5,323.5C 224.432,324.434 223.099,324.768 221.5,324.5 Z"/></g>
<g><path style="opacity:0.005" fill="#2c2e32" d="M 217.5,324.5 C 218.833,324.5 220.167,324.5 221.5,324.5C 220.167,325.833 218.833,325.833 217.5,324.5 Z"/></g>
<g><path style="opacity:0.004" fill="#23282a" d="M 210.5,327.5 C 211.833,328.167 211.833,328.167 210.5,327.5 Z"/></g>
<g><path style="opacity:0.004" fill="#272b2d" d="M 204.5,330.5 C 201.696,331.638 198.696,331.805 195.5,331C 198.482,330.502 201.482,330.335 204.5,330.5 Z"/></g>
</svg>
